<svg xmlns="http://www.w3.org/2000/svg" viewBox="0 0 2440 40" width="2440" height="40"><g stroke="#66fcf1"><path d="M30 6v15.12c0 4.64-2.88 7.88-7 7.88H12.88C8.53 29 5 25.47 5 21.12V6h25m.99-2H4.01C3.45 4 3 4.45 3 5.01v16.11C3 26.58 7.42 31 12.88 31H23c5.46 0 9-4.42 9-9.88V5.01C32 4.45 31.55 4 30.99 4z" fill="#66fcf1"/><path d="M31.5 8.5C41 8 40 21 32 21M2.5 33.5h36" fill="none" stroke-width="2" stroke-miterlimit="10"/></g><g stroke="#66fcf1"><path d="M70 6v15.12c0 4.64-2.88 7.88-7 7.88H52.88C48.53 29 45 25.47 45 21.12V6h25m.99-2H44.01C43.45 4 43 4.45 43 5.01v16.11c0 5.46 4.42 9.88 9.88 9.88H63c5.46 0 9-4.42 9-9.88V5.01C72 4.45 71.55 4 70.99 4z" fill="#66fcf1"/><path d="M71.5 8.5C81 8 80 21 72 21M42.5 33.5h36" fill="none" stroke-width="2" stroke-miterlimit="10"/></g><g stroke="#66fcf1"><path d="M110 6v15.12c0 4.64-2.88 7.88-7 7.88H92.88C88.53 29 85 25.47 85 21.12V6h25m.99-2H84.01C83.45 4 83 4.45 83 5.01v16.11c0 5.46 4.42 9.88 9.88 9.88H103c5.46 0 9-4.42 9-9.88V5.01c0-.56-.45-1.01-1.01-1.01z" fill="#66fcf1" stroke-dasharray="0.00038959092514460707,89.55591816984173" stroke-dashoffset="89.556308"/><path d="M111.5 8.5C121 8 120 21 112 21M82.5 33.5h36" fill="none" stroke-width="2" stroke-miterlimit="10"/></g><g stroke="#66fcf1"><path d="M150 6v15.12c0 4.64-2.88 7.88-7 7.88h-10.12c-4.35 0-7.88-3.53-7.88-7.88V6h25m.99-2h-26.98c-.56 0-1.01.45-1.01 1.01v16.11c0 5.46 4.42 9.88 9.88 9.88H143c5.46 0 9-4.42 9-9.88V5.01c0-.56-.45-1.01-1.01-1.01z" fill="#66fcf1" fill-opacity=".000058" stroke-dasharray="0.07359371936461605,89.48271404140225" stroke-dashoffset="89.556308"/><path d="M151.5 8.5C161 8 160 21 152 21m-29.5 12.5h36" fill="none" stroke-width="2" stroke-miterlimit="10"/></g><g stroke="#66fcf1"><path d="M190 6v15.12c0 4.64-2.88 7.88-7 7.88h-10.12c-4.35 0-7.88-3.53-7.88-7.88V6h25m.99-2h-26.98c-.56 0-1.01.45-1.01 1.01v16.11c0 5.46 4.42 9.88 9.88 9.88H183c5.46 0 9-4.42 9-9.88V5.01c0-.56-.45-1.01-1.01-1.01z" fill="#66fcf1" fill-opacity=".001122" stroke-dasharray="0.28332194991635856,89.27298581085051" stroke-dashoffset="89.556308"/><path d="M191.5 8.5C201 8 200 21 192 21m-29.5 12.5h36" fill="none" stroke-width="2" stroke-miterlimit="10"/></g><g stroke="#66fcf1"><path d="M230 6v15.12c0 4.64-2.88 7.88-7 7.88h-10.12c-4.35 0-7.88-3.53-7.88-7.88V6h25m.99-2h-26.98c-.56 0-1.01.45-1.01 1.01v16.11c0 5.46 4.42 9.88 9.88 9.88H223c5.46 0 9-4.42 9-9.88V5.01c0-.56-.45-1.01-1.01-1.01z" fill="#66fcf1" fill-opacity=".003641" stroke-dasharray="0.6457163050506218,88.91059145571626" stroke-dashoffset="89.556308"/><path d="M231.5 8.5C241 8 240 21 232 21m-29.5 12.5h36" fill="none" stroke-width="2" stroke-miterlimit="10"/></g><g stroke="#66fcf1"><path d="M270 6v15.12c0 4.64-2.88 7.88-7 7.88h-10.12c-4.35 0-7.88-3.53-7.88-7.88V6h25m.99-2h-26.98c-.56 0-1.01.45-1.01 1.01v16.11c0 5.46 4.42 9.88 9.88 9.88H263c5.46 0 9-4.42 9-9.88V5.01c0-.56-.45-1.01-1.01-1.01z" fill="#66fcf1" fill-opacity=".007783" stroke-dasharray="1.179507631628615,88.37680012913825" stroke-dashoffset="89.556308"/><path d="M271.5 8.5C281 8 280 21 272 21m-29.5 12.5h36" fill="none" stroke-width="2" stroke-miterlimit="10"/></g><g stroke="#66fcf1"><path d="M310 6v15.12c0 4.64-2.88 7.88-7 7.88h-10.12c-4.35 0-7.88-3.53-7.88-7.88V6h25m.99-2h-26.98c-.56 0-1.01.45-1.01 1.01v16.11c0 5.46 4.42 9.88 9.88 9.88H303c5.46 0 9-4.42 9-9.88V5.01c0-.56-.45-1.01-1.01-1.01z" fill="#66fcf1" fill-opacity=".01374" stroke-dasharray="1.9064299437615762,87.64987781700529" stroke-dashoffset="89.556308"/><path d="M311.5 8.5C321 8 320 21 312 21m-29.5 12.5h36" fill="none" stroke-width="2" stroke-miterlimit="10"/></g><g stroke="#66fcf1"><path d="M350 6v15.12c0 4.64-2.88 7.88-7 7.88h-10.12c-4.35 0-7.88-3.53-7.88-7.88V6h25m.99-2h-26.98c-.56 0-1.01.45-1.01 1.01v16.11c0 5.46 4.42 9.88 9.88 9.88H343c5.46 0 9-4.42 9-9.88V5.01c0-.56-.45-1.01-1.01-1.01z" fill="#66fcf1" fill-opacity=".021736" stroke-dasharray="2.8516280611368936,86.70467969962998" stroke-dashoffset="89.556308"/><path d="M351.5 8.5C361 8 360 21 352 21m-29.5 12.5h36" fill="none" stroke-width="2" stroke-miterlimit="10"/></g><g stroke="#66fcf1"><path d="M390 6v15.12c0 4.64-2.88 7.88-7 7.88h-10.12c-4.35 0-7.88-3.53-7.88-7.88V6h25m.99-2h-26.98c-.56 0-1.01.45-1.01 1.01v16.11c0 5.46 4.42 9.88 9.88 9.88H383c5.46 0 9-4.42 9-9.88V5.01c0-.56-.45-1.01-1.01-1.01z" fill="#66fcf1" fill-opacity=".032026" stroke-dasharray="4.043971888414471,85.5123358723524" stroke-dashoffset="89.556308"/><path d="M391.5 8.5C401 8 400 21 392 21m-29.5 12.5h36" fill="none" stroke-width="2" stroke-miterlimit="10"/></g><g stroke="#66fcf1"><path d="M430 6v15.12c0 4.64-2.88 7.88-7 7.88h-10.12c-4.35 0-7.88-3.53-7.88-7.88V6h25m.99-2h-26.98c-.56 0-1.01.45-1.01 1.01v16.11c0 5.46 4.42 9.88 9.88 9.88H423c5.46 0 9-4.42 9-9.88V5.01c0-.56-.45-1.01-1.01-1.01z" fill="#66fcf1" fill-opacity=".044905" stroke-dasharray="5.516103183145916,84.04020457762095" stroke-dashoffset="89.556308"/><path d="M431.5 8.5C441 8 440 21 432 21m-29.5 12.5h36" fill="none" stroke-width="2" stroke-miterlimit="10"/></g><g stroke="#66fcf1"><path d="M470 6v15.12c0 4.64-2.88 7.88-7 7.88h-10.12c-4.35 0-7.88-3.53-7.88-7.88V6h25m.99-2h-26.98c-.56 0-1.01.45-1.01 1.01v16.11c0 5.46 4.42 9.88 9.88 9.88H463c5.46 0 9-4.42 9-9.88V5.01c0-.56-.45-1.01-1.01-1.01z" fill="#66fcf1" fill-opacity=".060702" stroke-dasharray="7.303890619239664,82.2524171415272" stroke-dashoffset="89.556308"/><path d="M471.5 8.5C481 8 480 21 472 21m-29.5 12.5h36" fill="none" stroke-width="2" stroke-miterlimit="10"/></g><g stroke="#66fcf1"><path d="M510 6v15.12c0 4.64-2.88 7.88-7 7.88h-10.12c-4.35 0-7.88-3.53-7.88-7.88V6h25m.99-2h-26.98c-.56 0-1.01.45-1.01 1.01v16.11c0 5.46 4.42 9.88 9.88 9.88H503c5.46 0 9-4.42 9-9.88V5.01c0-.56-.45-1.01-1.01-1.01z" fill="#66fcf1" fill-opacity=".079779" stroke-dasharray="9.444737504437445,80.11157025632943" stroke-dashoffset="89.556308"/><path d="M511.5 8.5C521 8 520 21 512 21m-29.5 12.5h36" fill="none" stroke-width="2" stroke-miterlimit="10"/></g><g stroke="#66fcf1"><path d="M550 6v15.12c0 4.64-2.88 7.88-7 7.88h-10.12c-4.35 0-7.88-3.53-7.88-7.88V6h25m.99-2h-26.98c-.56 0-1.01.45-1.01 1.01v16.11c0 5.46 4.42 9.88 9.88 9.88H543c5.46 0 9-4.42 9-9.88V5.01c0-.56-.45-1.01-1.01-1.01z" fill="#66fcf1" fill-opacity=".102515" stroke-dasharray="11.97389875717384,77.58240900359303" stroke-dashoffset="89.556308"/><path d="M551.5 8.5C561 8 560 21 552 21m-29.5 12.5h36" fill="none" stroke-width="2" stroke-miterlimit="10"/></g><g stroke="#66fcf1"><path d="M590 6v15.12c0 4.64-2.88 7.88-7 7.88h-10.12c-4.35 0-7.88-3.53-7.88-7.88V6h25m.99-2h-26.98c-.56 0-1.01.45-1.01 1.01v16.11c0 5.46 4.42 9.88 9.88 9.88H583c5.46 0 9-4.42 9-9.88V5.01c0-.56-.45-1.01-1.01-1.01z" fill="#66fcf1" fill-opacity=".129272" stroke-dasharray="14.917792678457564,74.63851508230931" stroke-dashoffset="89.556308"/><path d="M591.5 8.5C601 8 600 21 592 21m-29.5 12.5h36" fill="none" stroke-width="2" stroke-miterlimit="10"/></g><g stroke="#66fcf1"><path d="M630 6v15.12c0 4.64-2.88 7.88-7 7.88h-10.12c-4.35 0-7.88-3.53-7.88-7.88V6h25m.99-2h-26.98c-.56 0-1.01.45-1.01 1.01v16.11c0 5.46 4.42 9.88 9.88 9.88H623c5.46 0 9-4.42 9-9.88V5.01c0-.56-.45-1.01-1.01-1.01z" fill="#66fcf1" fill-opacity=".160333" stroke-dasharray="18.2837286060439,71.27257915472296" stroke-dashoffset="89.556308"/><path d="M631.5 8.5C641 8 640 21 632 21m-29.5 12.5h36" fill="none" stroke-width="2" stroke-miterlimit="10"/></g><g stroke="#66fcf1"><path d="M670 6v15.12c0 4.64-2.88 7.88-7 7.88h-10.12c-4.35 0-7.88-3.53-7.88-7.88V6h25m.99-2h-26.98c-.56 0-1.01.45-1.01 1.01v16.11c0 5.46 4.42 9.88 9.88 9.88H663c5.46 0 9-4.42 9-9.88V5.01c0-.56-.45-1.01-1.01-1.01z" fill="#66fcf1" fill-opacity=".195815" stroke-dasharray="22.047329138078357,67.50897862268852" stroke-dashoffset="89.556308"/><path d="M671.5 8.5C681 8 680 21 672 21m-29.5 12.5h36" fill="none" stroke-width="2" stroke-miterlimit="10"/></g><g stroke="#66fcf1"><path d="M710 6v15.12c0 4.64-2.88 7.88-7 7.88h-10.12c-4.35 0-7.88-3.53-7.88-7.88V6h25m.99-2h-26.98c-.56 0-1.01.45-1.01 1.01v16.11c0 5.46 4.42 9.88 9.88 9.88H703c5.46 0 9-4.42 9-9.88V5.01c0-.56-.45-1.01-1.01-1.01z" fill="#66fcf1" fill-opacity=".235544" stroke-dasharray="26.142492681975536,63.41381507879134" stroke-dashoffset="89.556308"/><path d="M711.5 8.5C721 8 720 21 712 21m-29.5 12.5h36" fill="none" stroke-width="2" stroke-miterlimit="10"/></g><g stroke="#66fcf1"><path d="M750 6v15.12c0 4.64-2.88 7.88-7 7.88h-10.12c-4.35 0-7.88-3.53-7.88-7.88V6h25m.99-2h-26.98c-.56 0-1.01.45-1.01 1.01v16.11c0 5.46 4.42 9.88 9.88 9.88H743c5.46 0 9-4.42 9-9.88V5.01c0-.56-.45-1.01-1.01-1.01z" fill="#66fcf1" fill-opacity=".278952" stroke-dasharray="30.46170827357957,59.094599487187295" stroke-dashoffset="89.556308"/><path d="M751.5 8.5C761 8 760 21 752 21m-29.5 12.5h36" fill="none" stroke-width="2" stroke-miterlimit="10"/></g><g stroke="#66fcf1"><path d="M790 6v15.12c0 4.64-2.88 7.88-7 7.88h-10.12c-4.35 0-7.88-3.53-7.88-7.88V6h25m.99-2h-26.98c-.56 0-1.01.45-1.01 1.01v16.11c0 5.46 4.42 9.88 9.88 9.88H783c5.46 0 9-4.42 9-9.88V5.01c0-.56-.45-1.01-1.01-1.01z" fill="#66fcf1" fill-opacity=".325052" stroke-dasharray="34.87174147065158,54.684566290115285" stroke-dashoffset="89.556308"/><path d="M791.5 8.5C801 8 800 21 792 21m-29.5 12.5h36" fill="none" stroke-width="2" stroke-miterlimit="10"/></g><g stroke="#66fcf1"><path d="M830 6v15.12c0 4.64-2.88 7.88-7 7.88h-10.12c-4.35 0-7.88-3.53-7.88-7.88V6h25m.99-2h-26.98c-.56 0-1.01.45-1.01 1.01v16.11c0 5.46 4.42 9.88 9.88 9.88H823c5.46 0 9-4.42 9-9.88V5.01c0-.56-.45-1.01-1.01-1.01z" fill="#66fcf1" fill-opacity=".372545" stroke-dasharray="39.23980241163752,50.31650534912936" stroke-dashoffset="89.556308"/><path d="M831.5 8.5C841 8 840 21 832 21m-29.5 12.5h36" fill="none" stroke-width="2" stroke-miterlimit="10"/></g><g stroke="#66fcf1"><path d="M870 6v15.12c0 4.64-2.88 7.88-7 7.88h-10.12c-4.35 0-7.88-3.53-7.88-7.88V6h25m.99-2h-26.98c-.56 0-1.01.45-1.01 1.01v16.11c0 5.46 4.42 9.88 9.88 9.88H863c5.46 0 9-4.42 9-9.88V5.01c0-.56-.45-1.01-1.01-1.01z" fill="#66fcf1" fill-opacity=".420055" stroke-dasharray="43.45722010181763,46.09908765894924" stroke-dashoffset="89.556308"/><path d="M871.5 8.5C881 8 880 21 872 21m-29.5 12.5h36" fill="none" stroke-width="2" stroke-miterlimit="10"/></g><g stroke="#66fcf1"><path d="M910 6v15.12c0 4.64-2.88 7.88-7 7.88h-10.12c-4.35 0-7.88-3.53-7.88-7.88V6h25m.99-2h-26.98c-.56 0-1.01.45-1.01 1.01v16.11c0 5.46 4.42 9.88 9.88 9.88H903c5.46 0 9-4.42 9-9.88V5.01c0-.56-.45-1.01-1.01-1.01z" fill="#66fcf1" fill-opacity=".466372" stroke-dasharray="47.45067268542186,42.10563507534501" stroke-dashoffset="89.556308"/><path d="M911.5 8.5C921 8 920 21 912 21m-29.5 12.5h36" fill="none" stroke-width="2" stroke-miterlimit="10"/></g><g stroke="#66fcf1"><path d="M950 6v15.12c0 4.64-2.88 7.88-7 7.88h-10.12c-4.35 0-7.88-3.53-7.88-7.88V6h25m.99-2h-26.98c-.56 0-1.01.45-1.01 1.01v16.11c0 5.46 4.42 9.88 9.88 9.88H943c5.46 0 9-4.42 9-9.88V5.01c0-.56-.45-1.01-1.01-1.01z" fill="#66fcf1" fill-opacity=".510612" stroke-dasharray="51.18082124768923,38.37548651307764" stroke-dashoffset="89.556308"/><path d="M951.5 8.5C961 8 960 21 952 21m-29.5 12.5h36" fill="none" stroke-width="2" stroke-miterlimit="10"/></g><g stroke="#66fcf1"><path d="M990 6v15.12c0 4.64-2.88 7.88-7 7.88h-10.12c-4.35 0-7.88-3.53-7.88-7.88V6h25m.99-2h-26.98c-.56 0-1.01.45-1.01 1.01v16.11c0 5.46 4.42 9.88 9.88 9.88H983c5.46 0 9-4.42 9-9.88V5.01c0-.56-.45-1.01-1.01-1.01z" fill="#66fcf1" fill-opacity=".552239" stroke-dasharray="54.63427527060463,34.92203249016224" stroke-dashoffset="89.556308"/><path d="M991.5 8.5C1001 8 1000 21 992 21m-29.5 12.5h36" fill="none" stroke-width="2" stroke-miterlimit="10"/></g><g stroke="#66fcf1"><path d="M1030 6v15.12c0 4.64-2.88 7.88-7 7.88h-10.12c-4.35 0-7.88-3.53-7.88-7.88V6h25m.99-2h-26.98c-.56 0-1.01.45-1.01 1.01v16.11c0 5.46 4.42 9.88 9.88 9.88H1023c5.46 0 9-4.42 9-9.88V5.01c0-.56-.45-1.01-1.01-1.01z" fill="#66fcf1" fill-opacity=".591012" stroke-dasharray="57.81451890315918,31.741788857607688" stroke-dashoffset="89.556308"/><path d="M1031.5 8.5c9.5-.5 8.5 12.5.5 12.5m-29.5 12.5h36" fill="none" stroke-width="2" stroke-miterlimit="10"/></g><g stroke="#66fcf1"><path d="M1070 6v15.12c0 4.64-2.88 7.88-7 7.88h-10.12c-4.35 0-7.88-3.53-7.88-7.88V6h25m.99-2h-26.98c-.56 0-1.01.45-1.01 1.01v16.11c0 5.46 4.42 9.88 9.88 9.88H1063c5.46 0 9-4.42 9-9.88V5.01c0-.56-.45-1.01-1.01-1.01z" fill="#66fcf1" fill-opacity=".626892" stroke-dasharray="60.73459167046432,28.821716090302548" stroke-dashoffset="89.556308"/><path d="M1071.5 8.5c9.5-.5 8.5 12.5.5 12.5m-29.5 12.5h36" fill="none" stroke-width="2" stroke-miterlimit="10"/></g><g stroke="#66fcf1"><path d="M1110 6v15.12c0 4.64-2.88 7.88-7 7.88h-10.12c-4.35 0-7.88-3.53-7.88-7.88V6h25m.99-2h-26.98c-.56 0-1.01.45-1.01 1.01v16.11c0 5.46 4.42 9.88 9.88 9.88H1103c5.46 0 9-4.42 9-9.88V5.01c0-.56-.45-1.01-1.01-1.01z" fill="#66fcf1" fill-opacity=".659971" stroke-dasharray="63.412100942193874,26.144206818572997" stroke-dashoffset="89.556308"/><path d="M1111.5 8.5c9.5-.5 8.5 12.5.5 12.5m-29.5 12.5h36" fill="none" stroke-width="2" stroke-miterlimit="10"/></g><g stroke="#66fcf1"><path d="M1150 6v15.12c0 4.64-2.88 7.88-7 7.88h-10.12c-4.35 0-7.88-3.53-7.88-7.88V6h25m.99-2h-26.98c-.56 0-1.01.45-1.01 1.01v16.11c0 5.46 4.42 9.88 9.88 9.88H1143c5.46 0 9-4.42 9-9.88V5.01c0-.56-.45-1.01-1.01-1.01z" fill="#66fcf1" fill-opacity=".690406" stroke-dasharray="65.86616963568584,23.69013812508103" stroke-dashoffset="89.556308"/><path d="M1151.5 8.5c9.5-.5 8.5 12.5.5 12.5m-29.5 12.5h36" fill="none" stroke-width="2" stroke-miterlimit="10"/></g><g stroke="#66fcf1"><path d="M1190 6v15.12c0 4.64-2.88 7.88-7 7.88h-10.12c-4.35 0-7.88-3.53-7.88-7.88V6h25m.99-2h-26.98c-.56 0-1.01.45-1.01 1.01v16.11c0 5.46 4.42 9.88 9.88 9.88H1183c5.46 0 9-4.42 9-9.88V5.01c0-.56-.45-1.01-1.01-1.01z" fill="#66fcf1" fill-opacity=".718385" stroke-dasharray="68.11572203708603,21.440585723680847" stroke-dashoffset="89.556308"/><path d="M1191.5 8.5c9.5-.5 8.5 12.5.5 12.5m-29.5 12.5h36" fill="none" stroke-width="2" stroke-miterlimit="10"/></g><g stroke="#66fcf1"><path d="M1230 6v15.12c0 4.64-2.88 7.88-7 7.88h-10.12c-4.35 0-7.88-3.53-7.88-7.88V6h25m.99-2h-26.98c-.56 0-1.01.45-1.01 1.01v16.11c0 5.46 4.42 9.88 9.88 9.88H1223c5.46 0 9-4.42 9-9.88V5.01c0-.56-.45-1.01-1.01-1.01z" fill="#66fcf1" fill-opacity=".744101" stroke-dasharray="70.17860813353401,19.37769962723286" stroke-dashoffset="89.556308"/><path d="M1231.5 8.5c9.5-.5 8.5 12.5.5 12.5m-29.5 12.5h36" fill="none" stroke-width="2" stroke-miterlimit="10"/></g><g stroke="#66fcf1"><path d="M1270 6v15.12c0 4.64-2.88 7.88-7 7.88h-10.12c-4.35 0-7.88-3.53-7.88-7.88V6h25m.99-2h-26.98c-.56 0-1.01.45-1.01 1.01v16.11c0 5.46 4.42 9.88 9.88 9.88H1263c5.46 0 9-4.42 9-9.88V5.01c0-.56-.45-1.01-1.01-1.01z" fill="#66fcf1" fill-opacity=".767743" stroke-dasharray="72.07122077577768,17.48508698498919" stroke-dashoffset="89.556308"/><path d="M1271.5 8.5c9.5-.5 8.5 12.5.5 12.5m-29.5 12.5h36" fill="none" stroke-width="2" stroke-miterlimit="10"/></g><g stroke="#66fcf1"><path d="M1310 6v15.12c0 4.64-2.88 7.88-7 7.88h-10.12c-4.35 0-7.88-3.53-7.88-7.88V6h25m.99-2h-26.98c-.56 0-1.01.45-1.01 1.01v16.11c0 5.46 4.42 9.88 9.88 9.88H1303c5.46 0 9-4.42 9-9.88V5.01c0-.56-.45-1.01-1.01-1.01z" fill="#66fcf1" fill-opacity=".789488" stroke-dasharray="73.80838769318446,15.74792006758242" stroke-dashoffset="89.556308"/><path d="M1311.5 8.5c9.5-.5 8.5 12.5.5 12.5m-29.5 12.5h36" fill="none" stroke-width="2" stroke-miterlimit="10"/></g><g stroke="#66fcf1"><path d="M1350 6v15.12c0 4.64-2.88 7.88-7 7.88h-10.12c-4.35 0-7.88-3.53-7.88-7.88V6h25m.99-2h-26.98c-.56 0-1.01.45-1.01 1.01v16.11c0 5.46 4.42 9.88 9.88 9.88H1343c5.46 0 9-4.42 9-9.88V5.01c0-.56-.45-1.01-1.01-1.01z" fill="#66fcf1" fill-opacity=".809496" stroke-dasharray="75.40340812558306,14.15289963518381" stroke-dashoffset="89.556308"/><path d="M1351.5 8.5c9.5-.5 8.5 12.5.5 12.5m-29.5 12.5h36" fill="none" stroke-width="2" stroke-miterlimit="10"/></g><g stroke="#66fcf1"><path d="M1390 6v15.12c0 4.64-2.88 7.88-7 7.88h-10.12c-4.35 0-7.88-3.53-7.88-7.88V6h25m.99-2h-26.98c-.56 0-1.01.45-1.01 1.01v16.11c0 5.46 4.42 9.88 9.88 9.88H1383c5.46 0 9-4.42 9-9.88V5.01c0-.56-.45-1.01-1.01-1.01z" fill="#66fcf1" fill-opacity=".827913" stroke-dasharray="76.86815909238904,12.688148668377835" stroke-dashoffset="89.556308"/><path d="M1391.5 8.5c9.5-.5 8.5 12.5.5 12.5m-29.5 12.5h36" fill="none" stroke-width="2" stroke-miterlimit="10"/></g><g stroke="#66fcf1"><path d="M1430 6v15.12c0 4.64-2.88 7.88-7 7.88h-10.12c-4.35 0-7.88-3.53-7.88-7.88V6h25m.99-2h-26.98c-.56 0-1.01.45-1.01 1.01v16.11c0 5.46 4.42 9.88 9.88 9.88H1423c5.46 0 9-4.42 9-9.88V5.01c0-.56-.45-1.01-1.01-1.01z" fill="#66fcf1" fill-opacity=".844872" stroke-dasharray="78.21322950642434,11.343078254342537" stroke-dashoffset="89.556308"/><path d="M1431.5 8.5c9.5-.5 8.5 12.5.5 12.5m-29.5 12.5h36" fill="none" stroke-width="2" stroke-miterlimit="10"/></g><g stroke="#66fcf1"><path d="M1470 6v15.12c0 4.64-2.88 7.88-7 7.88h-10.12c-4.35 0-7.88-3.53-7.88-7.88V6h25m.99-2h-26.98c-.56 0-1.01.45-1.01 1.01v16.11c0 5.46 4.42 9.88 9.88 9.88H1463c5.46 0 9-4.42 9-9.88V5.01c0-.56-.45-1.01-1.01-1.01z" fill="#66fcf1" fill-opacity=".860488" stroke-dasharray="79.4480596987969,10.108248061969977" stroke-dashoffset="89.556308"/><path d="M1471.5 8.5c9.5-.5 8.5 12.5.5 12.5m-29.5 12.5h36" fill="none" stroke-width="2" stroke-dasharray="0.051956088120073816,20.383265510242275" stroke-dashoffset=".051956" stroke-miterlimit="10"/></g><g stroke="#66fcf1"><path d="M1510 6v15.12c0 4.64-2.88 7.88-7 7.88h-10.12c-4.35 0-7.88-3.53-7.88-7.88V6h25m.99-2h-26.98c-.56 0-1.01.45-1.01 1.01v16.11c0 5.46 4.42 9.88 9.88 9.88H1503c5.46 0 9-4.42 9-9.88V5.01c0-.56-.45-1.01-1.01-1.01z" fill="#66fcf1" fill-opacity=".874868" stroke-dasharray="80.58107497466098,8.975232786105884" stroke-dashoffset="89.556308"/><path d="M1511.5 8.5c9.5-.5 8.5 12.5.5 12.5m-29.5 12.5h36" fill="none" stroke-width="2" stroke-dasharray="0.29740698528094345,20.137814613081407" stroke-dashoffset=".297407" stroke-miterlimit="10"/></g><g stroke="#66fcf1"><path d="M1550 6v15.12c0 4.64-2.88 7.88-7 7.88h-10.12c-4.35 0-7.88-3.53-7.88-7.88V6h25m.99-2h-26.98c-.56 0-1.01.45-1.01 1.01v16.11c0 5.46 4.42 9.88 9.88 9.88H1543c5.46 0 9-4.42 9-9.88V5.01c0-.56-.45-1.01-1.01-1.01z" fill="#66fcf1" fill-opacity=".888106" stroke-dasharray="81.61980800393235,7.936499756834517" stroke-dashoffset="89.556308"/><path d="M1551.5 8.5c9.5-.5 8.5 12.5.5 12.5m-29.5 12.5h36" fill="none" stroke-width="2" stroke-dasharray="0.8044906568556309,19.63073094150672" stroke-dashoffset=".804491" stroke-miterlimit="10"/></g><g stroke="#66fcf1"><path d="M1590 6v15.12c0 4.64-2.88 7.88-7 7.88h-10.12c-4.35 0-7.88-3.53-7.88-7.88V6h25m.99-2h-26.98c-.56 0-1.01.45-1.01 1.01v16.11c0 5.46 4.42 9.88 9.88 9.88H1583c5.46 0 9-4.42 9-9.88V5.01c0-.56-.45-1.01-1.01-1.01z" fill="#66fcf1" fill-opacity=".900285" stroke-dasharray="82.57100822468036,6.985299536086516" stroke-dashoffset="89.556308"/><path d="M1591.5 8.5c9.5-.5 8.5 12.5.5 12.5m-29.5 12.5h36" fill="none" stroke-width="2" stroke-dasharray="1.6630513790324057,18.772170219329944" stroke-dashoffset="1.663051" stroke-miterlimit="10"/></g><g stroke="#66fcf1"><path d="M1630 6v15.12c0 4.64-2.88 7.88-7 7.88h-10.12c-4.35 0-7.88-3.53-7.88-7.88V6h25m.99-2h-26.98c-.56 0-1.01.45-1.01 1.01v16.11c0 5.46 4.42 9.88 9.88 9.88H1623c5.46 0 9-4.42 9-9.88V5.01c0-.56-.45-1.01-1.01-1.01z" fill="#66fcf1" fill-opacity=".911482" stroke-dasharray="83.44073820801357,6.115569552753304" stroke-dashoffset="89.556308"/><path d="M1631.5 8.5c9.5-.5 8.5 12.5.5 12.5m-29.5 12.5h36" fill="none" stroke-width="2" stroke-dasharray="2.984067807693066,17.451153790669284" stroke-dashoffset="2.984068" stroke-miterlimit="10"/></g><g stroke="#66fcf1"><path d="M1670 6v15.12c0 4.64-2.88 7.88-7 7.88h-10.12c-4.35 0-7.88-3.53-7.88-7.88V6h25m.99-2h-26.98c-.56 0-1.01.45-1.01 1.01v16.11c0 5.46 4.42 9.88 9.88 9.88H1663c5.46 0 9-4.42 9-9.88V5.01c0-.56-.45-1.01-1.01-1.01z" fill="#66fcf1" fill-opacity=".921765" stroke-dasharray="84.23445780235961,5.321849958407255" stroke-dashoffset="89.556308"/><path d="M1671.5 8.5c9.5-.5 8.5 12.5.5 12.5m-29.5 12.5h36" fill="none" stroke-width="2" stroke-dasharray="4.845313089733156,15.589908508629193" stroke-dashoffset="4.845313" stroke-miterlimit="10"/></g><g stroke="#66fcf1"><path d="M1710 6v15.12c0 4.64-2.88 7.88-7 7.88h-10.12c-4.35 0-7.88-3.53-7.88-7.88V6h25m.99-2h-26.98c-.56 0-1.01.45-1.01 1.01v16.11c0 5.46 4.42 9.88 9.88 9.88H1703c5.46 0 9-4.42 9-9.88V5.01c0-.56-.45-1.01-1.01-1.01z" fill="#66fcf1" fill-opacity=".931194" stroke-dasharray="84.9570972451771,4.59921051558977" stroke-dashoffset="89.556308"/><path d="M1711.5 8.5c9.5-.5 8.5 12.5.5 12.5m-29.5 12.5h36" fill="none" stroke-width="2" stroke-dasharray="7.143417324199319,13.291804274163031" stroke-dashoffset="7.143417" stroke-miterlimit="10"/></g><g stroke="#66fcf1"><path d="M1750 6v15.12c0 4.64-2.88 7.88-7 7.88h-10.12c-4.35 0-7.88-3.53-7.88-7.88V6h25m.99-2h-26.98c-.56 0-1.01.45-1.01 1.01v16.11c0 5.46 4.42 9.88 9.88 9.88H1743c5.46 0 9-4.42 9-9.88V5.01c0-.56-.45-1.01-1.01-1.01z" fill="#66fcf1" fill-opacity=".939827" stroke-dasharray="85.61312053166984,3.9431872290970396" stroke-dashoffset="89.556308"/><path d="M1751.5 8.5c9.5-.5 8.5 12.5.5 12.5m-29.5 12.5h36" fill="none" stroke-width="2" stroke-dasharray="9.528973005917448,10.906248592444902" stroke-dashoffset="9.528973" stroke-miterlimit="10"/></g><g stroke="#66fcf1"><path d="M1790 6v15.12c0 4.64-2.88 7.88-7 7.88h-10.12c-4.35 0-7.88-3.53-7.88-7.88V6h25m.99-2h-26.98c-.56 0-1.01.45-1.01 1.01v16.11c0 5.46 4.42 9.88 9.88 9.88H1783c5.46 0 9-4.42 9-9.88V5.01c0-.56-.45-1.01-1.01-1.01z" fill="#66fcf1" fill-opacity=".947712" stroke-dasharray="86.20658029356105,3.349727467205819" stroke-dashoffset="89.556308"/><path d="M1791.5 8.5c9.5-.5 8.5 12.5.5 12.5m-29.5 12.5h36" fill="none" stroke-width="2" stroke-dasharray="11.672030539869409,8.763191058492941" stroke-dashoffset="11.672031" stroke-miterlimit="10"/></g><g stroke="#66fcf1"><path d="M1830 6v15.12c0 4.64-2.88 7.88-7 7.88h-10.12c-4.35 0-7.88-3.53-7.88-7.88V6h25m.99-2h-26.98c-.56 0-1.01.45-1.01 1.01v16.11c0 5.46 4.42 9.88 9.88 9.88H1823c5.46 0 9-4.42 9-9.88V5.01c0-.56-.45-1.01-1.01-1.01z" fill="#66fcf1" fill-opacity=".954895" stroke-dasharray="86.74116533952862,2.8151424212382485" stroke-dashoffset="89.556308"/><path d="M1831.5 8.5c9.5-.5 8.5 12.5.5 12.5m-29.5 12.5h36" fill="none" stroke-width="2" stroke-dasharray="13.460347196662424,6.9748744016999265" stroke-dashoffset="13.460347" stroke-miterlimit="10"/></g><g stroke="#66fcf1"><path d="M1870 6v15.12c0 4.64-2.88 7.88-7 7.88h-10.12c-4.35 0-7.88-3.53-7.88-7.88V6h25m.99-2h-26.98c-.56 0-1.01.45-1.01 1.01v16.11c0 5.46 4.42 9.88 9.88 9.88H1863c5.46 0 9-4.42 9-9.88V5.01c0-.56-.45-1.01-1.01-1.01z" fill="#66fcf1" fill-opacity=".961418" stroke-dasharray="87.22024188263757,2.3360658781292982" stroke-dashoffset="89.556308"/><path d="M1871.5 8.5c9.5-.5 8.5 12.5.5 12.5m-29.5 12.5h36" fill="none" stroke-width="2" stroke-dasharray="14.917045434051193,5.518176164311157" stroke-dashoffset="14.917045" stroke-miterlimit="10"/></g><g stroke="#66fcf1"><path d="M1910 6v15.12c0 4.64-2.88 7.88-7 7.88h-10.12c-4.35 0-7.88-3.53-7.88-7.88V6h25m.99-2h-26.98c-.56 0-1.01.45-1.01 1.01v16.11c0 5.46 4.42 9.88 9.88 9.88H1903c5.46 0 9-4.42 9-9.88V5.01c0-.56-.45-1.01-1.01-1.01z" fill="#66fcf1" fill-opacity=".967318" stroke-dasharray="87.64688935034941,1.9094184104174643" stroke-dashoffset="89.556308"/><path d="M1911.5 8.5c9.5-.5 8.5 12.5.5 12.5m-29.5 12.5h36" fill="none" stroke-width="2" stroke-dasharray="16.09938313483285,4.335838463529502" stroke-dashoffset="16.099383" stroke-miterlimit="10"/></g><g stroke="#66fcf1"><path d="M1950 6v15.12c0 4.64-2.88 7.88-7 7.88h-10.12c-4.35 0-7.88-3.53-7.88-7.88V6h25m.99-2h-26.98c-.56 0-1.01.45-1.01 1.01v16.11c0 5.46 4.42 9.88 9.88 9.88H1943c5.46 0 9-4.42 9-9.88V5.01c0-.56-.45-1.01-1.01-1.01z" fill="#66fcf1" fill-opacity=".972631" stroke-dasharray="88.02393155009253,1.5323762106743446" stroke-dashoffset="89.556308"/><path d="M1951.5 8.5c9.5-.5 8.5 12.5.5 12.5m-29.5 12.5h36" fill="none" stroke-width="2" stroke-dasharray="17.061013613854037,3.3742079845083137" stroke-dashoffset="17.061014" stroke-miterlimit="10"/></g><g stroke="#66fcf1"><path d="M1990 6v15.12c0 4.64-2.88 7.88-7 7.88h-10.12c-4.35 0-7.88-3.53-7.88-7.88V6h25m.99-2h-26.98c-.56 0-1.01.45-1.01 1.01v16.11c0 5.46 4.42 9.88 9.88 9.88H1983c5.46 0 9-4.42 9-9.88V5.01c0-.56-.45-1.01-1.01-1.01z" fill="#66fcf1" fill-opacity=".977389" stroke-dasharray="88.35396385266742,1.2023439080994534" stroke-dashoffset="89.556308"/><path d="M1991.5 8.5c9.5-.5 8.5 12.5.5 12.5m-29.5 12.5h36" fill="none" stroke-width="2" stroke-dasharray="17.844571802087305,2.5906497962750437" stroke-dashoffset="17.844572" stroke-miterlimit="10"/></g><g stroke="#66fcf1"><path d="M2030 6v15.12c0 4.64-2.88 7.88-7 7.88h-10.12c-4.35 0-7.88-3.53-7.88-7.88V6h25m.99-2h-26.98c-.56 0-1.01.45-1.01 1.01v16.11c0 5.46 4.42 9.88 9.88 9.88H2023c5.46 0 9-4.42 9-9.88V5.01c0-.56-.45-1.01-1.01-1.01z" fill="#66fcf1" fill-opacity=".981619" stroke-dasharray="88.63937695840931,0.916930802357549" stroke-dashoffset="89.556308"/><path d="M2031.5 8.5c9.5-.5 8.5 12.5.5 12.5m-29.5 12.5h36" fill="none" stroke-width="2" stroke-dasharray="18.482613736382806,1.952607861979543" stroke-dashoffset="18.482614" stroke-miterlimit="10"/></g><g stroke="#66fcf1"><path d="M2070 6v15.12c0 4.64-2.88 7.88-7 7.88h-10.12c-4.35 0-7.88-3.53-7.88-7.88V6h25m.99-2h-26.98c-.56 0-1.01.45-1.01 1.01v16.11c0 5.46 4.42 9.88 9.88 9.88H2063c5.46 0 9-4.42 9-9.88V5.01c0-.56-.45-1.01-1.01-1.01z" fill="#66fcf1" fill-opacity=".98535" stroke-dasharray="88.88237772683894,0.6739300339279335" stroke-dashoffset="89.556308"/><path d="M2071.5 8.5c9.5-.5 8.5 12.5.5 12.5m-29.5 12.5h36" fill="none" stroke-width="2" stroke-dasharray="18.9999418248784,1.4352797734839469" stroke-dashoffset="18.999942" stroke-miterlimit="10"/></g><g stroke="#66fcf1"><path d="M2110 6v15.12c0 4.64-2.88 7.88-7 7.88h-10.12c-4.35 0-7.88-3.53-7.88-7.88V6h25m.99-2h-26.98c-.56 0-1.01.45-1.01 1.01v16.11c0 5.46 4.42 9.88 9.88 9.88H2103c5.46 0 9-4.42 9-9.88V5.01c0-.56-.45-1.01-1.01-1.01z" fill="#66fcf1" fill-opacity=".988606" stroke-dasharray="89.08500747847927,0.4713002822876028" stroke-dashoffset="89.556308"/><path d="M2111.5 8.5c9.5-.5 8.5 12.5.5 12.5m-29.5 12.5h36" fill="none" stroke-width="2" stroke-dasharray="19.41565068703296,1.0195709113293887" stroke-dashoffset="19.415651" stroke-miterlimit="10"/></g><g stroke="#66fcf1"><path d="M2150 6v15.12c0 4.64-2.88 7.88-7 7.88h-10.12c-4.35 0-7.88-3.53-7.88-7.88V6h25m.99-2h-26.98c-.56 0-1.01.45-1.01 1.01v16.11c0 5.46 4.42 9.88 9.88 9.88H2143c5.46 0 9-4.42 9-9.88V5.01c0-.56-.45-1.01-1.01-1.01z" fill="#66fcf1" fill-opacity=".991411" stroke-dasharray="89.24915811626016,0.30714964450670623" stroke-dashoffset="89.556308"/><path d="M2151.5 8.5c9.5-.5 8.5 12.5.5 12.5m-29.5 12.5h36" fill="none" stroke-width="2" stroke-dasharray="19.74465661980149,0.690564978560862" stroke-dashoffset="19.744657" stroke-miterlimit="10"/></g><g stroke="#66fcf1"><path d="M2190 6v15.12c0 4.64-2.88 7.88-7 7.88h-10.12c-4.35 0-7.88-3.53-7.88-7.88V6h25m.99-2h-26.98c-.56 0-1.01.45-1.01 1.01v16.11c0 5.46 4.42 9.88 9.88 9.88H2183c5.46 0 9-4.42 9-9.88V5.01c0-.56-.45-1.01-1.01-1.01z" fill="#66fcf1" fill-opacity=".993784" stroke-dasharray="89.37658636206514,0.1797213987017234" stroke-dashoffset="89.556308"/><path d="M2191.5 8.5c9.5-.5 8.5 12.5.5 12.5m-29.5 12.5h36" fill="none" stroke-width="2" stroke-dasharray="19.998791799450277,0.4364297989120721" stroke-dashoffset="19.998792" stroke-miterlimit="10"/></g><g stroke="#66fcf1"><path d="M2230 6v15.12c0 4.64-2.88 7.88-7 7.88h-10.12c-4.35 0-7.88-3.53-7.88-7.88V6h25m.99-2h-26.98c-.56 0-1.01.45-1.01 1.01v16.11c0 5.46 4.42 9.88 9.88 9.88H2223c5.46 0 9-4.42 9-9.88V5.01c0-.56-.45-1.01-1.01-1.01z" fill="#66fcf1" fill-opacity=".995747" stroke-dasharray="89.4689263601556,0.08738140061126465" stroke-dashoffset="89.556308"/><path d="M2231.5 8.5c9.5-.5 8.5 12.5.5 12.5m-29.5 12.5h36" fill="none" stroke-width="2" stroke-dasharray="20.18758134001327,0.24764025834908118" stroke-dashoffset="20.187581" stroke-miterlimit="10"/></g><g stroke="#66fcf1"><path d="M2270 6v15.12c0 4.64-2.88 7.88-7 7.88h-10.12c-4.35 0-7.88-3.53-7.88-7.88V6h25m.99-2h-26.98c-.56 0-1.01.45-1.01 1.01v16.11c0 5.46 4.42 9.88 9.88 9.88H2263c5.46 0 9-4.42 9-9.88V5.01c0-.56-.45-1.01-1.01-1.01z" fill="#66fcf1" fill-opacity=".997317" stroke-dasharray="89.52770086222286,0.028606898544014322" stroke-dashoffset="89.556308"/><path d="M2271.5 8.5c9.5-.5 8.5 12.5.5 12.5m-29.5 12.5h36" fill="none" stroke-width="2" stroke-dasharray="20.318798744200727,0.11642285416162262" stroke-dashoffset="20.318799" stroke-miterlimit="10"/></g><g stroke="#66fcf1"><path d="M2310 6v15.12c0 4.64-2.88 7.88-7 7.88h-10.12c-4.35 0-7.88-3.53-7.88-7.88V6h25m.99-2h-26.98c-.56 0-1.01.45-1.01 1.01v16.11c0 5.46 4.42 9.88 9.88 9.88H2303c5.46 0 9-4.42 9-9.88V5.01c0-.56-.45-1.01-1.01-1.01z" fill="#66fcf1" fill-opacity=".998512" stroke-dasharray="89.55433117760599,0.0019765831608892126" stroke-dashoffset="89.556308"/><path d="M2311.5 8.5c9.5-.5 8.5 12.5.5 12.5m-29.5 12.5h36" fill="none" stroke-width="2" stroke-dasharray="20.398867763144793,0.03635383521755701" stroke-dashoffset="20.398868" stroke-miterlimit="10"/></g><g stroke="#66fcf1"><path d="M2350 6v15.12c0 4.64-2.88 7.88-7 7.88h-10.12c-4.35 0-7.88-3.53-7.88-7.88V6h25m.99-2h-26.98c-.56 0-1.01.45-1.01 1.01v16.11c0 5.46 4.42 9.88 9.88 9.88H2343c5.46 0 9-4.42 9-9.88V5.01c0-.56-.45-1.01-1.01-1.01z" fill="#66fcf1" fill-opacity=".999348"/><path d="M2351.5 8.5c9.5-.5 8.5 12.5.5 12.5m-29.5 12.5h36" fill="none" stroke-width="2" stroke-dasharray="20.43315724789396,0.0020643504683916067" stroke-dashoffset="20.433157" stroke-miterlimit="10"/></g><g stroke="#66fcf1"><path d="M2390 6v15.12c0 4.64-2.88 7.88-7 7.88h-10.12c-4.35 0-7.88-3.53-7.88-7.88V6h25m.99-2h-26.98c-.56 0-1.01.45-1.01 1.01v16.11c0 5.46 4.42 9.88 9.88 9.88H2383c5.46 0 9-4.42 9-9.88V5.01c0-.56-.45-1.01-1.01-1.01z" fill="#66fcf1" fill-opacity=".999839"/><path d="M2391.5 8.5c9.5-.5 8.5 12.5.5 12.5m-29.5 12.5h36" fill="none" stroke-width="2" stroke-miterlimit="10"/></g><g stroke="#66fcf1"><path d="M2430 6v15.12c0 4.64-2.88 7.88-7 7.88h-10.12c-4.35 0-7.88-3.53-7.88-7.88V6h25m.99-2h-26.98c-.56 0-1.01.45-1.01 1.01v16.11c0 5.46 4.42 9.88 9.88 9.88H2423c5.46 0 9-4.42 9-9.88V5.01c0-.56-.45-1.01-1.01-1.01z" fill="#66fcf1"/><path d="M2431.5 8.5c9.5-.5 8.5 12.5.5 12.5m-29.5 12.5h36" fill="none" stroke-width="2" stroke-miterlimit="10"/></g></svg>