<svg xmlns="http://www.w3.org/2000/svg" viewBox="0 0 2440 40" width="2440" height="40"><g fill="none" stroke="#66fcf1" stroke-miterlimit="10"><path d="M29.5 9.5l-12 14-11-14H29zm-12 26v-12m-9 12h19"/><path d="M30 12.5c2.49 0 4.5-2.01 4.5-4.5S32.49 3.5 30 3.5 25.5 5.51 25.5 8"/></g><g fill="none" stroke="#66fcf1" stroke-miterlimit="10"><path d="M69.5 9.5l-12 14-11-14H69zm-12 26v-12m-9 12h19"/><path d="M70 12.5c2.49 0 4.5-2.01 4.5-4.5S72.49 3.5 70 3.5 65.5 5.51 65.5 8"/></g><g fill="none" stroke="#66fcf1" stroke-miterlimit="10"><path d="M109.5 9.5l-12 14-11-14H109zm-12 26v-12m-9 12h19"/><path d="M110 12.5c2.49 0 4.5-2.01 4.5-4.5s-2.01-4.5-4.5-4.5-4.5 2.01-4.5 4.5"/></g><g fill="none" stroke="#66fcf1" stroke-miterlimit="10"><path d="M149.5 9.5l-12 14-11-14H149zm-12 26v-12m-9 12h19" stroke-dasharray="0.005678873275408705,59.23790385607522" stroke-dashoffset="59.243583"/><path d="M150 12.5c2.49 0 4.5-2.01 4.5-4.5s-2.01-4.5-4.5-4.5-4.5 2.01-4.5 4.5"/></g><g fill="none" stroke="#66fcf1" stroke-miterlimit="10"><path d="M189.5 9.5l-12 14-11-14H189zm-12 26v-12m-9 12h19" stroke-dasharray="0.1115818212548105,59.13200090809582" stroke-dashoffset="59.243583"/><path d="M190 12.5c2.49 0 4.5-2.01 4.5-4.5s-2.01-4.5-4.5-4.5-4.5 2.01-4.5 4.5"/></g><g fill="none" stroke="#66fcf1" stroke-miterlimit="10"><path d="M229.5 9.5l-12 14-11-14H229zm-12 26v-12m-9 12h19" stroke-dasharray="0.3662683556655501,58.877314373685074" stroke-dashoffset="59.243583"/><path d="M230 12.5c2.49 0 4.5-2.01 4.5-4.5s-2.01-4.5-4.5-4.5-4.5 2.01-4.5 4.5"/></g><g fill="none" stroke="#66fcf1" stroke-miterlimit="10"><path d="M269.5 9.5l-12 14-11-14H269zm-12 26v-12m-9 12h19" stroke-dasharray="0.7925251092503682,58.45105762010026" stroke-dashoffset="59.243583"/><path d="M270 12.5c2.49 0 4.5-2.01 4.5-4.5s-2.01-4.5-4.5-4.5-4.5 2.01-4.5 4.5"/></g><g fill="none" stroke="#66fcf1" stroke-miterlimit="10"><path d="M309.5 9.5l-12 14-11-14H309zm-12 26v-12m-9 12h19" stroke-dasharray="1.4177728652647086,57.82580986408592" stroke-dashoffset="59.243583"/><path d="M310 12.5c2.49 0 4.5-2.01 4.5-4.5s-2.01-4.5-4.5-4.5-4.5 2.01-4.5 4.5"/></g><g fill="none" stroke="#66fcf1" stroke-miterlimit="10"><path d="M349.5 9.5l-12 14-11-14H349zm-12 26v-12m-9 12h19" stroke-dasharray="2.2748626954934075,56.968720033857224" stroke-dashoffset="59.243583"/><path d="M350 12.5c2.49 0 4.5-2.01 4.5-4.5s-2.01-4.5-4.5-4.5-4.5 2.01-4.5 4.5"/></g><g fill="none" stroke="#66fcf1" stroke-miterlimit="10"><path d="M389.5 9.5l-12 14-11-14H389zm-12 26v-12m-9 12h19" stroke-dasharray="3.402602900199812,55.84097982915082" stroke-dashoffset="59.243583"/><path d="M390 12.5c2.49 0 4.5-2.01 4.5-4.5s-2.01-4.5-4.5-4.5-4.5 2.01-4.5 4.5"/></g><g fill="none" stroke="#66fcf1" stroke-miterlimit="10"><path d="M429.5 9.5l-12 14-11-14H429zm-12 26v-12m-9 12h19" stroke-dasharray="4.845393218281628,54.398189511069" stroke-dashoffset="59.243583"/><path d="M430 12.5c2.49 0 4.5-2.01 4.5-4.5s-2.01-4.5-4.5-4.5-4.5 2.01-4.5 4.5"/></g><g fill="none" stroke="#66fcf1" stroke-miterlimit="10"><path d="M469.5 9.5l-12 14-11-14H469zm-12 26v-12m-9 12h19" stroke-dasharray="6.65067816687402,52.59290456247661" stroke-dashoffset="59.243583"/><path d="M470 12.5c2.49 0 4.5-2.01 4.5-4.5s-2.01-4.5-4.5-4.5-4.5 2.01-4.5 4.5"/></g><g fill="none" stroke="#66fcf1" stroke-miterlimit="10"><path d="M509.5 9.5l-12 14-11-14H509zm-12 26v-12m-9 12h19" stroke-dasharray="8.8619567800708,50.38162594927983" stroke-dashoffset="59.243583"/><path d="M510 12.5c2.49 0 4.5-2.01 4.5-4.5s-2.01-4.5-4.5-4.5-4.5 2.01-4.5 4.5"/></g><g fill="none" stroke="#66fcf1" stroke-miterlimit="10"><path d="M549.5 9.5l-12 14-11-14H549zm-12 26v-12m-9 12h19" stroke-dasharray="11.504494401413535,47.73908832793709" stroke-dashoffset="59.243583"/><path d="M550 12.5c2.49 0 4.5-2.01 4.5-4.5s-2.01-4.5-4.5-4.5-4.5 2.01-4.5 4.5"/></g><g fill="none" stroke="#66fcf1" stroke-miterlimit="10"><path d="M589.5 9.5l-12 14-11-14H589zm-12 26v-12m-9 12h19" stroke-dasharray="14.563168588320183,44.68041414103044" stroke-dashoffset="59.243583"/><path d="M590 12.5c2.49 0 4.5-2.01 4.5-4.5s-2.01-4.5-4.5-4.5-4.5 2.01-4.5 4.5"/></g><g fill="none" stroke="#66fcf1" stroke-miterlimit="10"><path d="M629.5 9.5l-12 14-11-14H629zm-12 26v-12m-9 12h19" stroke-dasharray="17.960705855675144,41.28287687367548" stroke-dashoffset="59.243583"/><path d="M630 12.5c2.49 0 4.5-2.01 4.5-4.5s-2.01-4.5-4.5-4.5-4.5 2.01-4.5 4.5"/></g><g fill="none" stroke="#66fcf1" stroke-miterlimit="10"><path d="M669.5 9.5l-12 14-11-14H669zm-12 26v-12m-9 12h19" stroke-dasharray="21.556195041646642,37.68738768770399" stroke-dashoffset="59.243583"/><path d="M670 12.5c2.49 0 4.5-2.01 4.5-4.5s-2.01-4.5-4.5-4.5-4.5 2.01-4.5 4.5"/></g><g fill="none" stroke="#66fcf1" stroke-miterlimit="10"><path d="M709.5 9.5l-12 14-11-14H709zm-12 26v-12m-9 12h19" stroke-dasharray="25.178024612933513,34.065558116417115" stroke-dashoffset="59.243583"/><path d="M710 12.5c2.49 0 4.5-2.01 4.5-4.5s-2.01-4.5-4.5-4.5-4.5 2.01-4.5 4.5"/></g><g fill="none" stroke="#66fcf1" stroke-miterlimit="10"><path d="M749.5 9.5l-12 14-11-14H749zm-12 26v-12m-9 12h19" stroke-dasharray="28.673953712741625,30.569629016609007" stroke-dashoffset="59.243583"/><path d="M750 12.5c2.49 0 4.5-2.01 4.5-4.5s-2.01-4.5-4.5-4.5-4.5 2.01-4.5 4.5"/></g><g fill="none" stroke="#66fcf1" stroke-miterlimit="10"><path d="M789.5 9.5l-12 14-11-14H789zm-12 26v-12m-9 12h19" stroke-dasharray="31.943317580544612,27.300265148806016" stroke-dashoffset="59.243583"/><path d="M790 12.5c2.49 0 4.5-2.01 4.5-4.5s-2.01-4.5-4.5-4.5-4.5 2.01-4.5 4.5"/></g><g fill="none" stroke="#66fcf1" stroke-miterlimit="10"><path d="M829.5 9.5l-12 14-11-14H829zm-12 26v-12m-9 12h19" stroke-dasharray="34.93876668113799,24.304816048212636" stroke-dashoffset="59.243583"/><path d="M830 12.5c2.49 0 4.5-2.01 4.5-4.5s-2.01-4.5-4.5-4.5-4.5 2.01-4.5 4.5"/></g><g fill="none" stroke="#66fcf1" stroke-miterlimit="10"><path d="M869.5 9.5l-12 14-11-14H869zm-12 26v-12m-9 12h19" stroke-dasharray="37.650998017233455,21.59258471211717" stroke-dashoffset="59.243583"/><path d="M870 12.5c2.49 0 4.5-2.01 4.5-4.5s-2.01-4.5-4.5-4.5-4.5 2.01-4.5 4.5"/></g><g fill="none" stroke="#66fcf1" stroke-miterlimit="10"><path d="M909.5 9.5l-12 14-11-14H909zm-12 26v-12m-9 12h19" stroke-dasharray="40.09203438537388,19.151548343976753" stroke-dashoffset="59.243583"/><path d="M910 12.5c2.49 0 4.5-2.01 4.5-4.5s-2.01-4.5-4.5-4.5-4.5 2.01-4.5 4.5"/></g><g fill="none" stroke="#66fcf1" stroke-miterlimit="10"><path d="M949.5 9.5l-12 14-11-14H949zm-12 26v-12m-9 12h19" stroke-dasharray="42.28342604989588,16.960156679454744" stroke-dashoffset="59.243583"/><path d="M950 12.5c2.49 0 4.5-2.01 4.5-4.5s-2.01-4.5-4.5-4.5-4.5 2.01-4.5 4.5"/></g><g fill="none" stroke="#66fcf1" stroke-miterlimit="10"><path d="M989.5 9.5l-12 14-11-14H989zm-12 26v-12m-9 12h19" stroke-dasharray="44.249502221959844,14.994080507390786" stroke-dashoffset="59.243583"/><path d="M990 12.5c2.49 0 4.5-2.01 4.5-4.5s-2.01-4.5-4.5-4.5-4.5 2.01-4.5 4.5"/></g><g fill="none" stroke="#66fcf1" stroke-miterlimit="10"><path d="M1029.5 9.5l-12 14-11-14h22.5zm-12 26v-12m-9 12h19" stroke-dasharray="46.014022397645846,13.229560331704784" stroke-dashoffset="59.243583"/><path d="M1030 12.5c2.49 0 4.5-2.01 4.5-4.5s-2.01-4.5-4.5-4.5-4.5 2.01-4.5 4.5"/></g><g fill="none" stroke="#66fcf1" stroke-miterlimit="10"><path d="M1069.5 9.5l-12 14-11-14h22.5zm-12 26v-12m-9 12h19" stroke-dasharray="47.598749050545564,11.644833678805067" stroke-dashoffset="59.243583"/><path d="M1070 12.5c2.49 0 4.5-2.01 4.5-4.5s-2.01-4.5-4.5-4.5-4.5 2.01-4.5 4.5"/></g><g fill="none" stroke="#66fcf1" stroke-miterlimit="10"><path d="M1109.5 9.5l-12 14-11-14h22.5zm-12 26v-12m-9 12h19" stroke-dasharray="49.02300139969022,10.220581329660405" stroke-dashoffset="59.243583"/><path d="M1110 12.5c2.49 0 4.5-2.01 4.5-4.5s-2.01-4.5-4.5-4.5-4.5 2.01-4.5 4.5"/></g><g fill="none" stroke="#66fcf1" stroke-miterlimit="10"><path d="M1149.5 9.5l-12 14-11-14h22.5zm-12 26v-12m-9 12h19" stroke-dasharray="50.303669457328795,8.93991327202183" stroke-dashoffset="59.243583"/><path d="M1150 12.5c2.49 0 4.5-2.01 4.5-4.5s-2.01-4.5-4.5-4.5-4.5 2.01-4.5 4.5"/></g><g fill="none" stroke="#66fcf1" stroke-miterlimit="10"><path d="M1189.5 9.5l-12 14-11-14h22.5zm-12 26v-12m-9 12h19" stroke-dasharray="51.455420482054706,7.788162247295924" stroke-dashoffset="59.243583"/><path d="M1190 12.5c2.49 0 4.5-2.01 4.5-4.5s-2.01-4.5-4.5-4.5-4.5 2.01-4.5 4.5"/></g><g fill="none" stroke="#66fcf1" stroke-miterlimit="10"><path d="M1229.5 9.5l-12 14-11-14h22.5zm-12 26v-12m-9 12h19" stroke-dasharray="52.490967242132044,6.752615487218587" stroke-dashoffset="59.243583"/><path d="M1230 12.5c2.49 0 4.5-2.01 4.5-4.5s-2.01-4.5-4.5-4.5-4.5 2.01-4.5 4.5"/></g><g fill="none" stroke="#66fcf1" stroke-miterlimit="10"><path d="M1269.5 9.5l-12 14-11-14h22.5zm-12 26v-12m-9 12h19" stroke-dasharray="53.421338097801836,5.822244631548789" stroke-dashoffset="59.243583"/><path d="M1270 12.5c2.49 0 4.5-2.01 4.5-4.5s-2.01-4.5-4.5-4.5-4.5 2.01-4.5 4.5"/></g><g fill="none" stroke="#66fcf1" stroke-miterlimit="10"><path d="M1309.5 9.5l-12 14-11-14h22.5zm-12 26v-12m-9 12h19" stroke-dasharray="54.25612396338903,4.987458765961601" stroke-dashoffset="59.243583"/><path d="M1310 12.5c2.49 0 4.5-2.01 4.5-4.5s-2.01-4.5-4.5-4.5-4.5 2.01-4.5 4.5"/></g><g fill="none" stroke="#66fcf1" stroke-miterlimit="10"><path d="M1349.5 9.5l-12 14-11-14h22.5zm-12 26v-12m-9 12h19" stroke-dasharray="55.00369402662442,4.239888702726206" stroke-dashoffset="59.243583"/><path d="M1350 12.5c2.49 0 4.5-2.01 4.5-4.5s-2.01-4.5-4.5-4.5-4.5 2.01-4.5 4.5"/></g><g fill="none" stroke="#66fcf1" stroke-miterlimit="10"><path d="M1389.5 9.5l-12 14-11-14h22.5zm-12 26v-12m-9 12h19" stroke-dasharray="55.671379781438766,3.57220294791186" stroke-dashoffset="59.243583"/><path d="M1390 12.5c2.49 0 4.5-2.01 4.5-4.5s-2.01-4.5-4.5-4.5-4.5 2.01-4.5 4.5"/></g><g fill="none" stroke="#66fcf1" stroke-miterlimit="10"><path d="M1429.5 9.5l-12 14-11-14h22.5zm-12 26v-12m-9 12h19" stroke-dasharray="56.26563012200965,2.9779526073409825" stroke-dashoffset="59.243583"/><path d="M1430 12.5c2.49 0 4.5-2.01 4.5-4.5s-2.01-4.5-4.5-4.5-4.5 2.01-4.5 4.5"/></g><g fill="none" stroke="#66fcf1" stroke-miterlimit="10"><path d="M1469.5 9.5l-12 14-11-14h22.5zm-12 26v-12m-9 12h19" stroke-dasharray="56.792141291858,2.451441437492625" stroke-dashoffset="59.243583"/><path d="M1470 12.5c2.49 0 4.5-2.01 4.5-4.5s-2.01-4.5-4.5-4.5-4.5 2.01-4.5 4.5"/></g><g fill="none" stroke="#66fcf1" stroke-miterlimit="10"><path d="M1509.5 9.5l-12 14-11-14h22.5zm-12 26v-12m-9 12h19" stroke-dasharray="57.255965548080965,1.9876171812696632" stroke-dashoffset="59.243583"/><path d="M1510 12.5c2.49 0 4.5-2.01 4.5-4.5s-2.01-4.5-4.5-4.5-4.5 2.01-4.5 4.5"/></g><g fill="none" stroke="#66fcf1" stroke-miterlimit="10"><path d="M1549.5 9.5l-12 14-11-14h22.5zm-12 26v-12m-9 12h19" stroke-dasharray="57.66160205939705,1.5819806699535832" stroke-dashoffset="59.243583"/><path d="M1550 12.5c2.49 0 4.5-2.01 4.5-4.5s-2.01-4.5-4.5-4.5-4.5 2.01-4.5 4.5"/></g><g fill="none" stroke="#66fcf1" stroke-miterlimit="10"><path d="M1589.5 9.5l-12 14-11-14h22.5zm-12 26v-12m-9 12h19" stroke-dasharray="58.01307308152823,1.2305096478223974" stroke-dashoffset="59.243583"/><path d="M1590 12.5c2.49 0 4.5-2.01 4.5-4.5s-2.01-4.5-4.5-4.5-4.5 2.01-4.5 4.5"/></g><g fill="none" stroke="#66fcf1" stroke-miterlimit="10"><path d="M1629.5 9.5l-12 14-11-14h22.5zm-12 26v-12m-9 12h19" stroke-dasharray="58.31398796992623,0.9295947594243995" stroke-dashoffset="59.243583"/><path d="M1630 12.5c2.49 0 4.5-2.01 4.5-4.5s-2.01-4.5-4.5-4.5-4.5 2.01-4.5 4.5"/></g><g fill="none" stroke="#66fcf1" stroke-miterlimit="10"><path d="M1669.5 9.5l-12 14-11-14h22.5zm-12 26v-12m-9 12h19" stroke-dasharray="58.5675971501946,0.6759855791560239" stroke-dashoffset="59.243583"/><path d="M1670 12.5c2.49 0 4.5-2.01 4.5-4.5s-2.01-4.5-4.5-4.5-4.5 2.01-4.5 4.5"/></g><g fill="none" stroke="#66fcf1" stroke-miterlimit="10"><path d="M1709.5 9.5l-12 14-11-14h22.5zm-12 26v-12m-9 12h19" stroke-dasharray="58.776837787838204,0.4667449415124269" stroke-dashoffset="59.243583"/><path d="M1710 12.5c2.49 0 4.5-2.01 4.5-4.5s-2.01-4.5-4.5-4.5-4.5 2.01-4.5 4.5"/></g><g fill="none" stroke="#66fcf1" stroke-miterlimit="10"><path d="M1749.5 9.5l-12 14-11-14h22.5zm-12 26v-12m-9 12h19" stroke-dasharray="58.944372582128246,0.2992101472223829" stroke-dashoffset="59.243583"/><path d="M1750 12.5c2.49 0 4.5-2.01 4.5-4.5s-2.01-4.5-4.5-4.5-4.5 2.01-4.5 4.5"/></g><g fill="none" stroke="#66fcf1" stroke-miterlimit="10"><path d="M1789.5 9.5l-12 14-11-14h22.5zm-12 26v-12m-9 12h19" stroke-dasharray="59.0726228481257,0.17095988122493042" stroke-dashoffset="59.243583"/><path d="M1790 12.5c2.49 0 4.5-2.01 4.5-4.5s-2.01-4.5-4.5-4.5-4.5 2.01-4.5 4.5" stroke-dasharray="0.0955761891473223,21.11929909496418" stroke-dashoffset="21.214875"/></g><g fill="none" stroke="#66fcf1" stroke-miterlimit="10"><path d="M1829.5 9.5l-12 14-11-14h22.5zm-12 26v-12m-9 12h19" stroke-dasharray="59.16379683829568,0.07978589105494935" stroke-dashoffset="59.243583"/><path d="M1830 12.5c2.49 0 4.5-2.01 4.5-4.5s-2.01-4.5-4.5-4.5-4.5 2.01-4.5 4.5" stroke-dasharray="0.6774171995313285,20.537458084580177" stroke-dashoffset="21.214875"/></g><g fill="none" stroke="#66fcf1" stroke-miterlimit="10"><path d="M1869.5 9.5l-12 14-11-14h22.5zm-12 26v-12m-9 12h19" stroke-dasharray="59.21991408261901,0.023668646731615294" stroke-dashoffset="59.243583"/><path d="M1870 12.5c2.49 0 4.5-2.01 4.5-4.5s-2.01-4.5-4.5-4.5-4.5 2.01-4.5 4.5" stroke-dasharray="2.039955561319434,19.17491972279207" stroke-dashoffset="21.214875"/></g><g fill="none" stroke="#66fcf1" stroke-miterlimit="10"><path d="M1909.5 9.5l-12 14-11-14h22.5zm-12 26v-12m-9 12h19" stroke-dasharray="59.24282638638395,0.0007563429666760947" stroke-dashoffset="59.243583"/><path d="M1910 12.5c2.49 0 4.5-2.01 4.5-4.5s-2.01-4.5-4.5-4.5-4.5 2.01-4.5 4.5" stroke-dasharray="4.549687804023712,16.66518748008779" stroke-dashoffset="21.214875"/></g><g fill="none" stroke="#66fcf1" stroke-miterlimit="10"><path d="M1949.5 9.5l-12 14-11-14h22.5zm-12 26v-12m-9 12h19"/><path d="M1950 12.5c2.49 0 4.5-2.01 4.5-4.5s-2.01-4.5-4.5-4.5-4.5 2.01-4.5 4.5" stroke-dasharray="8.133330247746736,13.081545036364767" stroke-dashoffset="21.214875"/></g><g fill="none" stroke="#66fcf1" stroke-miterlimit="10"><path d="M1989.5 9.5l-12 14-11-14h22.5zm-12 26v-12m-9 12h19"/><path d="M1990 12.5c2.49 0 4.5-2.01 4.5-4.5s-2.01-4.5-4.5-4.5-4.5 2.01-4.5 4.5" stroke-dasharray="11.691910272757731,9.522965011353772" stroke-dashoffset="21.214875"/></g><g fill="none" stroke="#66fcf1" stroke-miterlimit="10"><path d="M2029.5 9.5l-12 14-11-14h22.5zm-12 26v-12m-9 12h19"/><path d="M2030 12.5c2.49 0 4.5-2.01 4.5-4.5s-2.01-4.5-4.5-4.5-4.5 2.01-4.5 4.5" stroke-dasharray="14.469787407601297,6.745087876510206" stroke-dashoffset="21.214875"/></g><g fill="none" stroke="#66fcf1" stroke-miterlimit="10"><path d="M2069.5 9.5l-12 14-11-14h22.5zm-12 26v-12m-9 12h19"/><path d="M2070 12.5c2.49 0 4.5-2.01 4.5-4.5s-2.01-4.5-4.5-4.5-4.5 2.01-4.5 4.5" stroke-dasharray="16.50565721049394,4.709218073617564" stroke-dashoffset="21.214875"/></g><g fill="none" stroke="#66fcf1" stroke-miterlimit="10"><path d="M2109.5 9.5l-12 14-11-14h22.5zm-12 26v-12m-9 12h19"/><path d="M2110 12.5c2.49 0 4.5-2.01 4.5-4.5s-2.01-4.5-4.5-4.5-4.5 2.01-4.5 4.5" stroke-dasharray="17.99483809859319,3.2200371855183163" stroke-dashoffset="21.214875"/></g><g fill="none" stroke="#66fcf1" stroke-miterlimit="10"><path d="M2149.5 9.5l-12 14-11-14h22.5zm-12 26v-12m-9 12h19"/><path d="M2150 12.5c2.49 0 4.5-2.01 4.5-4.5s-2.01-4.5-4.5-4.5-4.5 2.01-4.5 4.5" stroke-dasharray="19.08765580175801,2.127219482353492" stroke-dashoffset="21.214875"/></g><g fill="none" stroke="#66fcf1" stroke-miterlimit="10"><path d="M2189.5 9.5l-12 14-11-14h22.5zm-12 26v-12m-9 12h19"/><path d="M2190 12.5c2.49 0 4.5-2.01 4.5-4.5s-2.01-4.5-4.5-4.5-4.5 2.01-4.5 4.5" stroke-dasharray="19.884653494679572,1.330221789431931" stroke-dashoffset="21.214875"/></g><g fill="none" stroke="#66fcf1" stroke-miterlimit="10"><path d="M2229.5 9.5l-12 14-11-14h22.5zm-12 26v-12m-9 12h19"/><path d="M2230 12.5c2.49 0 4.5-2.01 4.5-4.5s-2.01-4.5-4.5-4.5-4.5 2.01-4.5 4.5" stroke-dasharray="20.453363800693438,0.7615114834180655" stroke-dashoffset="21.214875"/></g><g fill="none" stroke="#66fcf1" stroke-miterlimit="10"><path d="M2269.5 9.5l-12 14-11-14h22.5zm-12 26v-12m-9 12h19"/><path d="M2270 12.5c2.49 0 4.5-2.01 4.5-4.5s-2.01-4.5-4.5-4.5-4.5 2.01-4.5 4.5" stroke-dasharray="20.840593384929758,0.3742818991817472" stroke-dashoffset="21.214875"/></g><g fill="none" stroke="#66fcf1" stroke-miterlimit="10"><path d="M2309.5 9.5l-12 14-11-14h22.5zm-12 26v-12m-9 12h19"/><path d="M2310 12.5c2.49 0 4.5-2.01 4.5-4.5s-2.01-4.5-4.5-4.5-4.5 2.01-4.5 4.5" stroke-dasharray="21.079909924610785,0.13496535950071656" stroke-dashoffset="21.214875"/></g><g fill="none" stroke="#66fcf1" stroke-miterlimit="10"><path d="M2349.5 9.5l-12 14-11-14h22.5zm-12 26v-12m-9 12h19"/><path d="M2350 12.5c2.49 0 4.5-2.01 4.5-4.5s-2.01-4.5-4.5-4.5-4.5 2.01-4.5 4.5" stroke-dasharray="21.196147916842634,0.018727367268869276" stroke-dashoffset="21.214875"/></g><g fill="none" stroke="#66fcf1" stroke-miterlimit="10"><path d="M2389.5 9.5l-12 14-11-14h22.5zm-12 26v-12m-9 12h19"/><path d="M2390 12.5c2.49 0 4.5-2.01 4.5-4.5s-2.01-4.5-4.5-4.5-4.5 2.01-4.5 4.5"/></g><g fill="none" stroke="#66fcf1" stroke-miterlimit="10"><path d="M2429.5 9.5l-12 14-11-14h22.5zm-12 26v-12m-9 12h19"/><path d="M2430 12.5c2.49 0 4.5-2.01 4.5-4.5s-2.01-4.5-4.5-4.5-4.5 2.01-4.5 4.5"/></g></svg>