<svg xmlns="http://www.w3.org/2000/svg" viewBox="0 0 2440 40" width="2440" height="40"><g fill="none" stroke="#66fcf1" stroke-miterlimit="10"><path d="M6 32l28.49-10.84C37.55 15.25 20.54.54 18.5 3.5l-1 2c-4.57 9.46-7.43 16.54-12 26l.5.5zM17.5 5.5c3.76-.82 16.47 12.99 14.45 16.61"/><path d="M20.5 12.5c-.265 0-.52.105-.707.293-.188.187-.293.442-.293.707 0 .265.105.52.293.707.187.188.442.293.707.293.265 0 .52-.105.707-.293.188-.187.293-.442.293-.707 0-.265-.105-.52-.293-.707-.187-.188-.442-.293-.707-.293zm0 7c-.265 0-.52.105-.707.293-.188.187-.293.442-.293.707 0 .265.105.52.293.707.187.188.442.293.707.293.265 0 .52-.105.707-.293.188-.187.293-.442.293-.707 0-.265-.105-.52-.293-.707-.187-.188-.442-.293-.707-.293zm5-2c-.265 0-.52.105-.707.293-.188.187-.293.442-.293.707 0 .265.105.52.293.707.187.188.442.293.707.293.265 0 .52-.105.707-.293.188-.187.293-.442.293-.707 0-.265-.105-.52-.293-.707-.187-.188-.442-.293-.707-.293zm-11 5c-.265 0-.52.105-.707.293-.188.187-.293.442-.293.707 0 .265.105.52.293.707.187.188.442.293.707.293.265 0 .52-.105.707-.293.188-.187.293-.442.293-.707 0-.265-.105-.52-.293-.707-.187-.188-.442-.293-.707-.293zm2-6c-.265 0-.52.105-.707.293-.188.187-.293.442-.293.707 0 .265.105.52.293.707.187.188.442.293.707.293.265 0 .52-.105.707-.293.188-.187.293-.442.293-.707 0-.265-.105-.52-.293-.707-.187-.188-.442-.293-.707-.293z" stroke-width=".5"/></g><g fill="none" stroke="#66fcf1" stroke-miterlimit="10"><path d="M46 32l28.49-10.84C77.55 15.25 60.54.54 58.5 3.5l-1 2c-4.57 9.46-7.43 16.54-12 26l.5.5zM57.5 5.5c3.76-.82 16.47 12.99 14.45 16.61"/><path d="M60.5 12.5c-.265 0-.52.105-.707.293-.188.187-.293.442-.293.707 0 .265.105.52.293.707.187.188.442.293.707.293.265 0 .52-.105.707-.293.188-.187.293-.442.293-.707 0-.265-.105-.52-.293-.707-.187-.188-.442-.293-.707-.293zm0 7c-.265 0-.52.105-.707.293-.188.187-.293.442-.293.707 0 .265.105.52.293.707.187.188.442.293.707.293.265 0 .52-.105.707-.293.188-.187.293-.442.293-.707 0-.265-.105-.52-.293-.707-.187-.188-.442-.293-.707-.293zm5-2c-.265 0-.52.105-.707.293-.188.187-.293.442-.293.707 0 .265.105.52.293.707.187.188.442.293.707.293.265 0 .52-.105.707-.293.188-.187.293-.442.293-.707 0-.265-.105-.52-.293-.707-.187-.188-.442-.293-.707-.293zm-11 5c-.265 0-.52.105-.707.293-.188.187-.293.442-.293.707 0 .265.105.52.293.707.187.188.442.293.707.293.265 0 .52-.105.707-.293.188-.187.293-.442.293-.707 0-.265-.105-.52-.293-.707-.187-.188-.442-.293-.707-.293zm2-6c-.265 0-.52.105-.707.293-.188.187-.293.442-.293.707 0 .265.105.52.293.707.187.188.442.293.707.293.265 0 .52-.105.707-.293.188-.187.293-.442.293-.707 0-.265-.105-.52-.293-.707-.187-.188-.442-.293-.707-.293z" stroke-width=".5"/></g><g fill="none" stroke="#66fcf1" stroke-miterlimit="10"><path d="M86 32l28.49-10.84C117.55 15.25 100.54.54 98.5 3.5l-1 2c-4.57 9.46-7.43 16.54-12 26l.5.5zM97.5 5.5c3.76-.82 16.47 12.99 14.45 16.61"/><path d="M100.5 12.5c-.265 0-.52.105-.707.293-.188.187-.293.442-.293.707 0 .265.105.52.293.707.187.188.442.293.707.293.265 0 .52-.105.707-.293.188-.187.293-.442.293-.707 0-.265-.105-.52-.293-.707-.187-.188-.442-.293-.707-.293zm0 7c-.265 0-.52.105-.707.293-.188.187-.293.442-.293.707 0 .265.105.52.293.707.187.188.442.293.707.293.265 0 .52-.105.707-.293.188-.187.293-.442.293-.707 0-.265-.105-.52-.293-.707-.187-.188-.442-.293-.707-.293zm5-2c-.265 0-.52.105-.707.293-.188.187-.293.442-.293.707 0 .265.105.52.293.707.187.188.442.293.707.293.265 0 .52-.105.707-.293.188-.187.293-.442.293-.707 0-.265-.105-.52-.293-.707-.187-.188-.442-.293-.707-.293zm-11 5c-.265 0-.52.105-.707.293-.188.187-.293.442-.293.707 0 .265.105.52.293.707.187.188.442.293.707.293.265 0 .52-.105.707-.293.188-.187.293-.442.293-.707 0-.265-.105-.52-.293-.707-.187-.188-.442-.293-.707-.293zm2-6c-.265 0-.52.105-.707.293-.188.187-.293.442-.293.707 0 .265.105.52.293.707.187.188.442.293.707.293.265 0 .52-.105.707-.293.188-.187.293-.442.293-.707 0-.265-.105-.52-.293-.707-.187-.188-.442-.293-.707-.293z" stroke-width=".5"/></g><g fill="none" stroke="#66fcf1" stroke-miterlimit="10"><path d="M126 32l28.49-10.84C157.55 15.25 140.54.54 138.5 3.5l-1 2c-4.57 9.46-7.43 16.54-12 26l.5.5zm11.5-26.5c3.76-.82 16.47 12.99 14.45 16.61" stroke-dasharray="0.0053154057138625295,88.28645337028303" stroke-dashoffset="88.291769"/><path d="M140.5 12.5c-.265 0-.52.105-.707.293-.188.187-.293.442-.293.707 0 .265.105.52.293.707.187.188.442.293.707.293.265 0 .52-.105.707-.293.188-.187.293-.442.293-.707 0-.265-.105-.52-.293-.707-.187-.188-.442-.293-.707-.293zm0 7c-.265 0-.52.105-.707.293-.188.187-.293.442-.293.707 0 .265.105.52.293.707.187.188.442.293.707.293.265 0 .52-.105.707-.293.188-.187.293-.442.293-.707 0-.265-.105-.52-.293-.707-.187-.188-.442-.293-.707-.293zm5-2c-.265 0-.52.105-.707.293-.188.187-.293.442-.293.707 0 .265.105.52.293.707.187.188.442.293.707.293.265 0 .52-.105.707-.293.188-.187.293-.442.293-.707 0-.265-.105-.52-.293-.707-.187-.188-.442-.293-.707-.293zm-11 5c-.265 0-.52.105-.707.293-.188.187-.293.442-.293.707 0 .265.105.52.293.707.187.188.442.293.707.293.265 0 .52-.105.707-.293.188-.187.293-.442.293-.707 0-.265-.105-.52-.293-.707-.187-.188-.442-.293-.707-.293zm2-6c-.265 0-.52.105-.707.293-.188.187-.293.442-.293.707 0 .265.105.52.293.707.187.188.442.293.707.293.265 0 .52-.105.707-.293.188-.187.293-.442.293-.707 0-.265-.105-.52-.293-.707-.187-.188-.442-.293-.707-.293z" stroke-width=".5"/></g><g fill="none" stroke="#66fcf1" stroke-miterlimit="10"><path d="M166 32l28.49-10.84C197.55 15.25 180.54.54 178.5 3.5l-1 2c-4.57 9.46-7.43 16.54-12 26l.5.5zm11.5-26.5c3.76-.82 16.47 12.99 14.45 16.61" stroke-dasharray="0.14839742818622603,88.14337134781067" stroke-dashoffset="88.291769"/><path d="M180.5 12.5c-.265 0-.52.105-.707.293-.188.187-.293.442-.293.707 0 .265.105.52.293.707.187.188.442.293.707.293.265 0 .52-.105.707-.293.188-.187.293-.442.293-.707 0-.265-.105-.52-.293-.707-.187-.188-.442-.293-.707-.293zm0 7c-.265 0-.52.105-.707.293-.188.187-.293.442-.293.707 0 .265.105.52.293.707.187.188.442.293.707.293.265 0 .52-.105.707-.293.188-.187.293-.442.293-.707 0-.265-.105-.52-.293-.707-.187-.188-.442-.293-.707-.293zm5-2c-.265 0-.52.105-.707.293-.188.187-.293.442-.293.707 0 .265.105.52.293.707.187.188.442.293.707.293.265 0 .52-.105.707-.293.188-.187.293-.442.293-.707 0-.265-.105-.52-.293-.707-.187-.188-.442-.293-.707-.293zm-11 5c-.265 0-.52.105-.707.293-.188.187-.293.442-.293.707 0 .265.105.52.293.707.187.188.442.293.707.293.265 0 .52-.105.707-.293.188-.187.293-.442.293-.707 0-.265-.105-.52-.293-.707-.187-.188-.442-.293-.707-.293zm2-6c-.265 0-.52.105-.707.293-.188.187-.293.442-.293.707 0 .265.105.52.293.707.187.188.442.293.707.293.265 0 .52-.105.707-.293.188-.187.293-.442.293-.707 0-.265-.105-.52-.293-.707-.187-.188-.442-.293-.707-.293z" stroke-width=".5"/></g><g fill="none" stroke="#66fcf1" stroke-miterlimit="10"><path d="M206 32l28.49-10.84C237.55 15.25 220.54.54 218.5 3.5l-1 2c-4.57 9.46-7.43 16.54-12 26l.5.5zm11.5-26.5c3.76-.82 16.47 12.99 14.45 16.61" stroke-dasharray="0.5075499538719963,87.78421882212488" stroke-dashoffset="88.291769"/><path d="M220.5 12.5c-.265 0-.52.105-.707.293-.188.187-.293.442-.293.707 0 .265.105.52.293.707.187.188.442.293.707.293.265 0 .52-.105.707-.293.188-.187.293-.442.293-.707 0-.265-.105-.52-.293-.707-.187-.188-.442-.293-.707-.293zm0 7c-.265 0-.52.105-.707.293-.188.187-.293.442-.293.707 0 .265.105.52.293.707.187.188.442.293.707.293.265 0 .52-.105.707-.293.188-.187.293-.442.293-.707 0-.265-.105-.52-.293-.707-.187-.188-.442-.293-.707-.293zm5-2c-.265 0-.52.105-.707.293-.188.187-.293.442-.293.707 0 .265.105.52.293.707.187.188.442.293.707.293.265 0 .52-.105.707-.293.188-.187.293-.442.293-.707 0-.265-.105-.52-.293-.707-.187-.188-.442-.293-.707-.293zm-11 5c-.265 0-.52.105-.707.293-.188.187-.293.442-.293.707 0 .265.105.52.293.707.187.188.442.293.707.293.265 0 .52-.105.707-.293.188-.187.293-.442.293-.707 0-.265-.105-.52-.293-.707-.187-.188-.442-.293-.707-.293zm2-6c-.265 0-.52.105-.707.293-.188.187-.293.442-.293.707 0 .265.105.52.293.707.187.188.442.293.707.293.265 0 .52-.105.707-.293.188-.187.293-.442.293-.707 0-.265-.105-.52-.293-.707-.187-.188-.442-.293-.707-.293z" stroke-width=".5"/></g><g fill="none" stroke="#66fcf1" stroke-miterlimit="10"><path d="M246 32l28.49-10.84C277.55 15.25 260.54.54 258.5 3.5l-1 2c-4.57 9.46-7.43 16.54-12 26l.5.5zm11.5-26.5c3.76-.82 16.47 12.99 14.45 16.61" stroke-dasharray="1.1154680952410603,87.17630068075582" stroke-dashoffset="88.291769"/><path d="M260.5 12.5c-.265 0-.52.105-.707.293-.188.187-.293.442-.293.707 0 .265.105.52.293.707.187.188.442.293.707.293.265 0 .52-.105.707-.293.188-.187.293-.442.293-.707 0-.265-.105-.52-.293-.707-.187-.188-.442-.293-.707-.293zm0 7c-.265 0-.52.105-.707.293-.188.187-.293.442-.293.707 0 .265.105.52.293.707.187.188.442.293.707.293.265 0 .52-.105.707-.293.188-.187.293-.442.293-.707 0-.265-.105-.52-.293-.707-.187-.188-.442-.293-.707-.293zm5-2c-.265 0-.52.105-.707.293-.188.187-.293.442-.293.707 0 .265.105.52.293.707.187.188.442.293.707.293.265 0 .52-.105.707-.293.188-.187.293-.442.293-.707 0-.265-.105-.52-.293-.707-.187-.188-.442-.293-.707-.293zm-11 5c-.265 0-.52.105-.707.293-.188.187-.293.442-.293.707 0 .265.105.52.293.707.187.188.442.293.707.293.265 0 .52-.105.707-.293.188-.187.293-.442.293-.707 0-.265-.105-.52-.293-.707-.187-.188-.442-.293-.707-.293zm2-6c-.265 0-.52.105-.707.293-.188.187-.293.442-.293.707 0 .265.105.52.293.707.187.188.442.293.707.293.265 0 .52-.105.707-.293.188-.187.293-.442.293-.707 0-.265-.105-.52-.293-.707-.187-.188-.442-.293-.707-.293z" stroke-width=".5"/></g><g fill="none" stroke="#66fcf1" stroke-miterlimit="10"><path d="M286 32l28.49-10.84C317.55 15.25 300.54.54 298.5 3.5l-1 2c-4.57 9.46-7.43 16.54-12 26l.5.5zm11.5-26.5c3.76-.82 16.47 12.99 14.45 16.61" stroke-dasharray="2.011441724819679,86.28032705117721" stroke-dashoffset="88.291769"/><path d="M300.5 12.5c-.265 0-.52.105-.707.293-.188.187-.293.442-.293.707 0 .265.105.52.293.707.187.188.442.293.707.293.265 0 .52-.105.707-.293.188-.187.293-.442.293-.707 0-.265-.105-.52-.293-.707-.187-.188-.442-.293-.707-.293zm0 7c-.265 0-.52.105-.707.293-.188.187-.293.442-.293.707 0 .265.105.52.293.707.187.188.442.293.707.293.265 0 .52-.105.707-.293.188-.187.293-.442.293-.707 0-.265-.105-.52-.293-.707-.187-.188-.442-.293-.707-.293zm5-2c-.265 0-.52.105-.707.293-.188.187-.293.442-.293.707 0 .265.105.52.293.707.187.188.442.293.707.293.265 0 .52-.105.707-.293.188-.187.293-.442.293-.707 0-.265-.105-.52-.293-.707-.187-.188-.442-.293-.707-.293zm-11 5c-.265 0-.52.105-.707.293-.188.187-.293.442-.293.707 0 .265.105.52.293.707.187.188.442.293.707.293.265 0 .52-.105.707-.293.188-.187.293-.442.293-.707 0-.265-.105-.52-.293-.707-.187-.188-.442-.293-.707-.293zm2-6c-.265 0-.52.105-.707.293-.188.187-.293.442-.293.707 0 .265.105.52.293.707.187.188.442.293.707.293.265 0 .52-.105.707-.293.188-.187.293-.442.293-.707 0-.265-.105-.52-.293-.707-.187-.188-.442-.293-.707-.293z" stroke-width=".5"/></g><g fill="none" stroke="#66fcf1" stroke-miterlimit="10"><path d="M326 32l28.49-10.84C357.55 15.25 340.54.54 338.5 3.5l-1 2c-4.57 9.46-7.43 16.54-12 26l.5.5zm11.5-26.5c3.76-.82 16.47 12.99 14.45 16.61" stroke-dasharray="3.242506287736764,85.04926248826013" stroke-dashoffset="88.291769"/><path d="M340.5 12.5c-.265 0-.52.105-.707.293-.188.187-.293.442-.293.707 0 .265.105.52.293.707.187.188.442.293.707.293.265 0 .52-.105.707-.293.188-.187.293-.442.293-.707 0-.265-.105-.52-.293-.707-.187-.188-.442-.293-.707-.293zm0 7c-.265 0-.52.105-.707.293-.188.187-.293.442-.293.707 0 .265.105.52.293.707.187.188.442.293.707.293.265 0 .52-.105.707-.293.188-.187.293-.442.293-.707 0-.265-.105-.52-.293-.707-.187-.188-.442-.293-.707-.293zm5-2c-.265 0-.52.105-.707.293-.188.187-.293.442-.293.707 0 .265.105.52.293.707.187.188.442.293.707.293.265 0 .52-.105.707-.293.188-.187.293-.442.293-.707 0-.265-.105-.52-.293-.707-.187-.188-.442-.293-.707-.293zm-11 5c-.265 0-.52.105-.707.293-.188.187-.293.442-.293.707 0 .265.105.52.293.707.187.188.442.293.707.293.265 0 .52-.105.707-.293.188-.187.293-.442.293-.707 0-.265-.105-.52-.293-.707-.187-.188-.442-.293-.707-.293zm2-6c-.265 0-.52.105-.707.293-.188.187-.293.442-.293.707 0 .265.105.52.293.707.187.188.442.293.707.293.265 0 .52-.105.707-.293.188-.187.293-.442.293-.707 0-.265-.105-.52-.293-.707-.187-.188-.442-.293-.707-.293z" stroke-width=".5"/></g><g fill="none" stroke="#66fcf1" stroke-miterlimit="10"><path d="M366 32l28.49-10.84C397.55 15.25 380.54.54 378.5 3.5l-1 2c-4.57 9.46-7.43 16.54-12 26l.5.5zm11.5-26.5c3.76-.82 16.47 12.99 14.45 16.61" stroke-dasharray="4.864260758271948,83.42750801772493" stroke-dashoffset="88.291769"/><path d="M380.5 12.5c-.265 0-.52.105-.707.293-.188.187-.293.442-.293.707 0 .265.105.52.293.707.187.188.442.293.707.293.265 0 .52-.105.707-.293.188-.187.293-.442.293-.707 0-.265-.105-.52-.293-.707-.187-.188-.442-.293-.707-.293zm0 7c-.265 0-.52.105-.707.293-.188.187-.293.442-.293.707 0 .265.105.52.293.707.187.188.442.293.707.293.265 0 .52-.105.707-.293.188-.187.293-.442.293-.707 0-.265-.105-.52-.293-.707-.187-.188-.442-.293-.707-.293zm5-2c-.265 0-.52.105-.707.293-.188.187-.293.442-.293.707 0 .265.105.52.293.707.187.188.442.293.707.293.265 0 .52-.105.707-.293.188-.187.293-.442.293-.707 0-.265-.105-.52-.293-.707-.187-.188-.442-.293-.707-.293zm-11 5c-.265 0-.52.105-.707.293-.188.187-.293.442-.293.707 0 .265.105.52.293.707.187.188.442.293.707.293.265 0 .52-.105.707-.293.188-.187.293-.442.293-.707 0-.265-.105-.52-.293-.707-.187-.188-.442-.293-.707-.293zm2-6c-.265 0-.52.105-.707.293-.188.187-.293.442-.293.707 0 .265.105.52.293.707.187.188.442.293.707.293.265 0 .52-.105.707-.293.188-.187.293-.442.293-.707 0-.265-.105-.52-.293-.707-.187-.188-.442-.293-.707-.293z" stroke-width=".5"/></g><g fill="none" stroke="#66fcf1" stroke-miterlimit="10"><path d="M406 32l28.49-10.84C437.55 15.25 420.54.54 418.5 3.5l-1 2c-4.57 9.46-7.43 16.54-12 26l.5.5zm11.5-26.5c3.76-.82 16.47 12.99 14.45 16.61" stroke-dasharray="6.940536881723966,81.35123189427291" stroke-dashoffset="88.291769"/><path d="M420.5 12.5c-.265 0-.52.105-.707.293-.188.187-.293.442-.293.707 0 .265.105.52.293.707.187.188.442.293.707.293.265 0 .52-.105.707-.293.188-.187.293-.442.293-.707 0-.265-.105-.52-.293-.707-.187-.188-.442-.293-.707-.293zm0 7c-.265 0-.52.105-.707.293-.188.187-.293.442-.293.707 0 .265.105.52.293.707.187.188.442.293.707.293.265 0 .52-.105.707-.293.188-.187.293-.442.293-.707 0-.265-.105-.52-.293-.707-.187-.188-.442-.293-.707-.293zm5-2c-.265 0-.52.105-.707.293-.188.187-.293.442-.293.707 0 .265.105.52.293.707.187.188.442.293.707.293.265 0 .52-.105.707-.293.188-.187.293-.442.293-.707 0-.265-.105-.52-.293-.707-.187-.188-.442-.293-.707-.293zm-11 5c-.265 0-.52.105-.707.293-.188.187-.293.442-.293.707 0 .265.105.52.293.707.187.188.442.293.707.293.265 0 .52-.105.707-.293.188-.187.293-.442.293-.707 0-.265-.105-.52-.293-.707-.187-.188-.442-.293-.707-.293zm2-6c-.265 0-.52.105-.707.293-.188.187-.293.442-.293.707 0 .265.105.52.293.707.187.188.442.293.707.293.265 0 .52-.105.707-.293.188-.187.293-.442.293-.707 0-.265-.105-.52-.293-.707-.187-.188-.442-.293-.707-.293z" stroke-width=".5"/></g><g fill="none" stroke="#66fcf1" stroke-miterlimit="10"><path d="M446 32l28.49-10.84C477.55 15.25 460.54.54 458.5 3.5l-1 2c-4.57 9.46-7.43 16.54-12 26l.5.5zm11.5-26.5c3.76-.82 16.47 12.99 14.45 16.61" stroke-dasharray="9.540222187130894,78.75154658886599" stroke-dashoffset="88.291769"/><path d="M460.5 12.5c-.265 0-.52.105-.707.293-.188.187-.293.442-.293.707 0 .265.105.52.293.707.187.188.442.293.707.293.265 0 .52-.105.707-.293.188-.187.293-.442.293-.707 0-.265-.105-.52-.293-.707-.187-.188-.442-.293-.707-.293zm0 7c-.265 0-.52.105-.707.293-.188.187-.293.442-.293.707 0 .265.105.52.293.707.187.188.442.293.707.293.265 0 .52-.105.707-.293.188-.187.293-.442.293-.707 0-.265-.105-.52-.293-.707-.187-.188-.442-.293-.707-.293zm5-2c-.265 0-.52.105-.707.293-.188.187-.293.442-.293.707 0 .265.105.52.293.707.187.188.442.293.707.293.265 0 .52-.105.707-.293.188-.187.293-.442.293-.707 0-.265-.105-.52-.293-.707-.187-.188-.442-.293-.707-.293zm-11 5c-.265 0-.52.105-.707.293-.188.187-.293.442-.293.707 0 .265.105.52.293.707.187.188.442.293.707.293.265 0 .52-.105.707-.293.188-.187.293-.442.293-.707 0-.265-.105-.52-.293-.707-.187-.188-.442-.293-.707-.293zm2-6c-.265 0-.52.105-.707.293-.188.187-.293.442-.293.707 0 .265.105.52.293.707.187.188.442.293.707.293.265 0 .52-.105.707-.293.188-.187.293-.442.293-.707 0-.265-.105-.52-.293-.707-.187-.188-.442-.293-.707-.293z" stroke-width=".5"/></g><g fill="none" stroke="#66fcf1" stroke-miterlimit="10"><path d="M486 32l28.49-10.84C517.55 15.25 500.54.54 498.5 3.5l-1 2c-4.57 9.46-7.43 16.54-12 26l.5.5zm11.5-26.5c3.76-.82 16.47 12.99 14.45 16.61" stroke-dasharray="12.728201046739063,75.56356772925781" stroke-dashoffset="88.291769"/><path d="M500.5 12.5c-.265 0-.52.105-.707.293-.188.187-.293.442-.293.707 0 .265.105.52.293.707.187.188.442.293.707.293.265 0 .52-.105.707-.293.188-.187.293-.442.293-.707 0-.265-.105-.52-.293-.707-.187-.188-.442-.293-.707-.293zm0 7c-.265 0-.52.105-.707.293-.188.187-.293.442-.293.707 0 .265.105.52.293.707.187.188.442.293.707.293.265 0 .52-.105.707-.293.188-.187.293-.442.293-.707 0-.265-.105-.52-.293-.707-.187-.188-.442-.293-.707-.293zm5-2c-.265 0-.52.105-.707.293-.188.187-.293.442-.293.707 0 .265.105.52.293.707.187.188.442.293.707.293.265 0 .52-.105.707-.293.188-.187.293-.442.293-.707 0-.265-.105-.52-.293-.707-.187-.188-.442-.293-.707-.293zm-11 5c-.265 0-.52.105-.707.293-.188.187-.293.442-.293.707 0 .265.105.52.293.707.187.188.442.293.707.293.265 0 .52-.105.707-.293.188-.187.293-.442.293-.707 0-.265-.105-.52-.293-.707-.187-.188-.442-.293-.707-.293zm2-6c-.265 0-.52.105-.707.293-.188.187-.293.442-.293.707 0 .265.105.52.293.707.187.188.442.293.707.293.265 0 .52-.105.707-.293.188-.187.293-.442.293-.707 0-.265-.105-.52-.293-.707-.187-.188-.442-.293-.707-.293z" stroke-width=".5"/></g><g fill="none" stroke="#66fcf1" stroke-miterlimit="10"><path d="M526 32l28.49-10.84C557.55 15.25 540.54.54 538.5 3.5l-1 2c-4.57 9.46-7.43 16.54-12 26l.5.5zm11.5-26.5c3.76-.82 16.47 12.99 14.45 16.61" stroke-dasharray="16.546364572811484,71.7454042031854" stroke-dashoffset="88.291769"/><path d="M540.5 12.5c-.265 0-.52.105-.707.293-.188.187-.293.442-.293.707 0 .265.105.52.293.707.187.188.442.293.707.293.265 0 .52-.105.707-.293.188-.187.293-.442.293-.707 0-.265-.105-.52-.293-.707-.187-.188-.442-.293-.707-.293zm0 7c-.265 0-.52.105-.707.293-.188.187-.293.442-.293.707 0 .265.105.52.293.707.187.188.442.293.707.293.265 0 .52-.105.707-.293.188-.187.293-.442.293-.707 0-.265-.105-.52-.293-.707-.187-.188-.442-.293-.707-.293zm5-2c-.265 0-.52.105-.707.293-.188.187-.293.442-.293.707 0 .265.105.52.293.707.187.188.442.293.707.293.265 0 .52-.105.707-.293.188-.187.293-.442.293-.707 0-.265-.105-.52-.293-.707-.187-.188-.442-.293-.707-.293zm-11 5c-.265 0-.52.105-.707.293-.188.187-.293.442-.293.707 0 .265.105.52.293.707.187.188.442.293.707.293.265 0 .52-.105.707-.293.188-.187.293-.442.293-.707 0-.265-.105-.52-.293-.707-.187-.188-.442-.293-.707-.293zm2-6c-.265 0-.52.105-.707.293-.188.187-.293.442-.293.707 0 .265.105.52.293.707.187.188.442.293.707.293.265 0 .52-.105.707-.293.188-.187.293-.442.293-.707 0-.265-.105-.52-.293-.707-.187-.188-.442-.293-.707-.293z" stroke-width=".5"/></g><g fill="none" stroke="#66fcf1" stroke-miterlimit="10"><path d="M566 32l28.49-10.84C597.55 15.25 580.54.54 578.5 3.5l-1 2c-4.57 9.46-7.43 16.54-12 26l.5.5zm11.5-26.5c3.76-.82 16.47 12.99 14.45 16.61" stroke-dasharray="20.98304292092919,67.30872585506769" stroke-dashoffset="88.291769"/><path d="M580.5 12.5c-.265 0-.52.105-.707.293-.188.187-.293.442-.293.707 0 .265.105.52.293.707.187.188.442.293.707.293.265 0 .52-.105.707-.293.188-.187.293-.442.293-.707 0-.265-.105-.52-.293-.707-.187-.188-.442-.293-.707-.293zm0 7c-.265 0-.52.105-.707.293-.188.187-.293.442-.293.707 0 .265.105.52.293.707.187.188.442.293.707.293.265 0 .52-.105.707-.293.188-.187.293-.442.293-.707 0-.265-.105-.52-.293-.707-.187-.188-.442-.293-.707-.293zm5-2c-.265 0-.52.105-.707.293-.188.187-.293.442-.293.707 0 .265.105.52.293.707.187.188.442.293.707.293.265 0 .52-.105.707-.293.188-.187.293-.442.293-.707 0-.265-.105-.52-.293-.707-.187-.188-.442-.293-.707-.293zm-11 5c-.265 0-.52.105-.707.293-.188.187-.293.442-.293.707 0 .265.105.52.293.707.187.188.442.293.707.293.265 0 .52-.105.707-.293.188-.187.293-.442.293-.707 0-.265-.105-.52-.293-.707-.187-.188-.442-.293-.707-.293zm2-6c-.265 0-.52.105-.707.293-.188.187-.293.442-.293.707 0 .265.105.52.293.707.187.188.442.293.707.293.265 0 .52-.105.707-.293.188-.187.293-.442.293-.707 0-.265-.105-.52-.293-.707-.187-.188-.442-.293-.707-.293z" stroke-width=".5"/></g><g fill="none" stroke="#66fcf1" stroke-miterlimit="10"><path d="M606 32l28.49-10.84C637.55 15.25 620.54.54 618.5 3.5l-1 2c-4.57 9.46-7.43 16.54-12 26l.5.5zm11.5-26.5c3.76-.82 16.47 12.99 14.45 16.61" stroke-dasharray="25.940269799282664,62.351498976714225" stroke-dashoffset="88.291769"/><path d="M620.5 12.5c-.265 0-.52.105-.707.293-.188.187-.293.442-.293.707 0 .265.105.52.293.707.187.188.442.293.707.293.265 0 .52-.105.707-.293.188-.187.293-.442.293-.707 0-.265-.105-.52-.293-.707-.187-.188-.442-.293-.707-.293zm0 7c-.265 0-.52.105-.707.293-.188.187-.293.442-.293.707 0 .265.105.52.293.707.187.188.442.293.707.293.265 0 .52-.105.707-.293.188-.187.293-.442.293-.707 0-.265-.105-.52-.293-.707-.187-.188-.442-.293-.707-.293zm5-2c-.265 0-.52.105-.707.293-.188.187-.293.442-.293.707 0 .265.105.52.293.707.187.188.442.293.707.293.265 0 .52-.105.707-.293.188-.187.293-.442.293-.707 0-.265-.105-.52-.293-.707-.187-.188-.442-.293-.707-.293zm-11 5c-.265 0-.52.105-.707.293-.188.187-.293.442-.293.707 0 .265.105.52.293.707.187.188.442.293.707.293.265 0 .52-.105.707-.293.188-.187.293-.442.293-.707 0-.265-.105-.52-.293-.707-.187-.188-.442-.293-.707-.293zm2-6c-.265 0-.52.105-.707.293-.188.187-.293.442-.293.707 0 .265.105.52.293.707.187.188.442.293.707.293.265 0 .52-.105.707-.293.188-.187.293-.442.293-.707 0-.265-.105-.52-.293-.707-.187-.188-.442-.293-.707-.293z" stroke-width=".5"/></g><g fill="none" stroke="#66fcf1" stroke-miterlimit="10"><path d="M646 32l28.49-10.84C677.55 15.25 660.54.54 658.5 3.5l-1 2c-4.57 9.46-7.43 16.54-12 26l.5.5zm11.5-26.5c3.76-.82 16.47 12.99 14.45 16.61" stroke-dasharray="31.225357325515315,57.06641145048157" stroke-dashoffset="88.291769"/><path d="M660.5 12.5c-.265 0-.52.105-.707.293-.188.187-.293.442-.293.707 0 .265.105.52.293.707.187.188.442.293.707.293.265 0 .52-.105.707-.293.188-.187.293-.442.293-.707 0-.265-.105-.52-.293-.707-.187-.188-.442-.293-.707-.293zm0 7c-.265 0-.52.105-.707.293-.188.187-.293.442-.293.707 0 .265.105.52.293.707.187.188.442.293.707.293.265 0 .52-.105.707-.293.188-.187.293-.442.293-.707 0-.265-.105-.52-.293-.707-.187-.188-.442-.293-.707-.293zm5-2c-.265 0-.52.105-.707.293-.188.187-.293.442-.293.707 0 .265.105.52.293.707.187.188.442.293.707.293.265 0 .52-.105.707-.293.188-.187.293-.442.293-.707 0-.265-.105-.52-.293-.707-.187-.188-.442-.293-.707-.293zm-11 5c-.265 0-.52.105-.707.293-.188.187-.293.442-.293.707 0 .265.105.52.293.707.187.188.442.293.707.293.265 0 .52-.105.707-.293.188-.187.293-.442.293-.707 0-.265-.105-.52-.293-.707-.187-.188-.442-.293-.707-.293zm2-6c-.265 0-.52.105-.707.293-.188.187-.293.442-.293.707 0 .265.105.52.293.707.187.188.442.293.707.293.265 0 .52-.105.707-.293.188-.187.293-.442.293-.707 0-.265-.105-.52-.293-.707-.187-.188-.442-.293-.707-.293z" stroke-width=".5"/></g><g fill="none" stroke="#66fcf1" stroke-miterlimit="10"><path d="M686 32l28.49-10.84C717.55 15.25 700.54.54 698.5 3.5l-1 2c-4.57 9.46-7.43 16.54-12 26l.5.5zm11.5-26.5c3.76-.82 16.47 12.99 14.45 16.61" stroke-dasharray="36.590808022242214,51.70096075375467" stroke-dashoffset="88.291769"/><path d="M700.5 12.5c-.265 0-.52.105-.707.293-.188.187-.293.442-.293.707 0 .265.105.52.293.707.187.188.442.293.707.293.265 0 .52-.105.707-.293.188-.187.293-.442.293-.707 0-.265-.105-.52-.293-.707-.187-.188-.442-.293-.707-.293zm0 7c-.265 0-.52.105-.707.293-.188.187-.293.442-.293.707 0 .265.105.52.293.707.187.188.442.293.707.293.265 0 .52-.105.707-.293.188-.187.293-.442.293-.707 0-.265-.105-.52-.293-.707-.187-.188-.442-.293-.707-.293zm5-2c-.265 0-.52.105-.707.293-.188.187-.293.442-.293.707 0 .265.105.52.293.707.187.188.442.293.707.293.265 0 .52-.105.707-.293.188-.187.293-.442.293-.707 0-.265-.105-.52-.293-.707-.187-.188-.442-.293-.707-.293zm-11 5c-.265 0-.52.105-.707.293-.188.187-.293.442-.293.707 0 .265.105.52.293.707.187.188.442.293.707.293.265 0 .52-.105.707-.293.188-.187.293-.442.293-.707 0-.265-.105-.52-.293-.707-.187-.188-.442-.293-.707-.293zm2-6c-.265 0-.52.105-.707.293-.188.187-.293.442-.293.707 0 .265.105.52.293.707.187.188.442.293.707.293.265 0 .52-.105.707-.293.188-.187.293-.442.293-.707 0-.265-.105-.52-.293-.707-.187-.188-.442-.293-.707-.293z" stroke-width=".5"/></g><g fill="none" stroke="#66fcf1" stroke-miterlimit="10"><path d="M726 32l28.49-10.84C757.55 15.25 740.54.54 738.5 3.5l-1 2c-4.57 9.46-7.43 16.54-12 26l.5.5zm11.5-26.5c3.76-.82 16.47 12.99 14.45 16.61" stroke-dasharray="41.805701148919795,46.48606762707709" stroke-dashoffset="88.291769"/><path d="M740.5 12.5c-.265 0-.52.105-.707.293-.188.187-.293.442-.293.707 0 .265.105.52.293.707.187.188.442.293.707.293.265 0 .52-.105.707-.293.188-.187.293-.442.293-.707 0-.265-.105-.52-.293-.707-.187-.188-.442-.293-.707-.293zm0 7c-.265 0-.52.105-.707.293-.188.187-.293.442-.293.707 0 .265.105.52.293.707.187.188.442.293.707.293.265 0 .52-.105.707-.293.188-.187.293-.442.293-.707 0-.265-.105-.52-.293-.707-.187-.188-.442-.293-.707-.293zm5-2c-.265 0-.52.105-.707.293-.188.187-.293.442-.293.707 0 .265.105.52.293.707.187.188.442.293.707.293.265 0 .52-.105.707-.293.188-.187.293-.442.293-.707 0-.265-.105-.52-.293-.707-.187-.188-.442-.293-.707-.293zm-11 5c-.265 0-.52.105-.707.293-.188.187-.293.442-.293.707 0 .265.105.52.293.707.187.188.442.293.707.293.265 0 .52-.105.707-.293.188-.187.293-.442.293-.707 0-.265-.105-.52-.293-.707-.187-.188-.442-.293-.707-.293zm2-6c-.265 0-.52.105-.707.293-.188.187-.293.442-.293.707 0 .265.105.52.293.707.187.188.442.293.707.293.265 0 .52-.105.707-.293.188-.187.293-.442.293-.707 0-.265-.105-.52-.293-.707-.187-.188-.442-.293-.707-.293z" stroke-width=".5"/></g><g fill="none" stroke="#66fcf1" stroke-miterlimit="10"><path d="M766 32l28.49-10.84C797.55 15.25 780.54.54 778.5 3.5l-1 2c-4.57 9.46-7.43 16.54-12 26l.5.5zm11.5-26.5c3.76-.82 16.47 12.99 14.45 16.61" stroke-dasharray="46.708878789892076,41.58288998610481" stroke-dashoffset="88.291769"/><path d="M780.5 12.5c-.265 0-.52.105-.707.293-.188.187-.293.442-.293.707 0 .265.105.52.293.707.187.188.442.293.707.293.265 0 .52-.105.707-.293.188-.187.293-.442.293-.707 0-.265-.105-.52-.293-.707-.187-.188-.442-.293-.707-.293zm0 7c-.265 0-.52.105-.707.293-.188.187-.293.442-.293.707 0 .265.105.52.293.707.187.188.442.293.707.293.265 0 .52-.105.707-.293.188-.187.293-.442.293-.707 0-.265-.105-.52-.293-.707-.187-.188-.442-.293-.707-.293zm5-2c-.265 0-.52.105-.707.293-.188.187-.293.442-.293.707 0 .265.105.52.293.707.187.188.442.293.707.293.265 0 .52-.105.707-.293.188-.187.293-.442.293-.707 0-.265-.105-.52-.293-.707-.187-.188-.442-.293-.707-.293zm-11 5c-.265 0-.52.105-.707.293-.188.187-.293.442-.293.707 0 .265.105.52.293.707.187.188.442.293.707.293.265 0 .52-.105.707-.293.188-.187.293-.442.293-.707 0-.265-.105-.52-.293-.707-.187-.188-.442-.293-.707-.293zm2-6c-.265 0-.52.105-.707.293-.188.187-.293.442-.293.707 0 .265.105.52.293.707.187.188.442.293.707.293.265 0 .52-.105.707-.293.188-.187.293-.442.293-.707 0-.265-.105-.52-.293-.707-.187-.188-.442-.293-.707-.293z" stroke-width=".5"/></g><g fill="none" stroke="#66fcf1" stroke-miterlimit="10"><path d="M806 32l28.49-10.84C837.55 15.25 820.54.54 818.5 3.5l-1 2c-4.57 9.46-7.43 16.54-12 26l.5.5zm11.5-26.5c3.76-.82 16.47 12.99 14.45 16.61" stroke-dasharray="51.21837577256657,37.07339300343032" stroke-dashoffset="88.291769"/><path d="M820.5 12.5c-.265 0-.52.105-.707.293-.188.187-.293.442-.293.707 0 .265.105.52.293.707.187.188.442.293.707.293.265 0 .52-.105.707-.293.188-.187.293-.442.293-.707 0-.265-.105-.52-.293-.707-.187-.188-.442-.293-.707-.293zm0 7c-.265 0-.52.105-.707.293-.188.187-.293.442-.293.707 0 .265.105.52.293.707.187.188.442.293.707.293.265 0 .52-.105.707-.293.188-.187.293-.442.293-.707 0-.265-.105-.52-.293-.707-.187-.188-.442-.293-.707-.293zm5-2c-.265 0-.52.105-.707.293-.188.187-.293.442-.293.707 0 .265.105.52.293.707.187.188.442.293.707.293.265 0 .52-.105.707-.293.188-.187.293-.442.293-.707 0-.265-.105-.52-.293-.707-.187-.188-.442-.293-.707-.293zm-11 5c-.265 0-.52.105-.707.293-.188.187-.293.442-.293.707 0 .265.105.52.293.707.187.188.442.293.707.293.265 0 .52-.105.707-.293.188-.187.293-.442.293-.707 0-.265-.105-.52-.293-.707-.187-.188-.442-.293-.707-.293zm2-6c-.265 0-.52.105-.707.293-.188.187-.293.442-.293.707 0 .265.105.52.293.707.187.188.442.293.707.293.265 0 .52-.105.707-.293.188-.187.293-.442.293-.707 0-.265-.105-.52-.293-.707-.187-.188-.442-.293-.707-.293z" stroke-width=".5"/></g><g fill="none" stroke="#66fcf1" stroke-miterlimit="10"><path d="M846 32l28.49-10.84C877.55 15.25 860.54.54 858.5 3.5l-1 2c-4.57 9.46-7.43 16.54-12 26l.5.5zm11.5-26.5c3.76-.82 16.47 12.99 14.45 16.61" stroke-dasharray="55.31200944928487,32.97975932671201" stroke-dashoffset="88.291769"/><path d="M860.5 12.5c-.265 0-.52.105-.707.293-.188.187-.293.442-.293.707 0 .265.105.52.293.707.187.188.442.293.707.293.265 0 .52-.105.707-.293.188-.187.293-.442.293-.707 0-.265-.105-.52-.293-.707-.187-.188-.442-.293-.707-.293zm0 7c-.265 0-.52.105-.707.293-.188.187-.293.442-.293.707 0 .265.105.52.293.707.187.188.442.293.707.293.265 0 .52-.105.707-.293.188-.187.293-.442.293-.707 0-.265-.105-.52-.293-.707-.187-.188-.442-.293-.707-.293zm5-2c-.265 0-.52.105-.707.293-.188.187-.293.442-.293.707 0 .265.105.52.293.707.187.188.442.293.707.293.265 0 .52-.105.707-.293.188-.187.293-.442.293-.707 0-.265-.105-.52-.293-.707-.187-.188-.442-.293-.707-.293zm-11 5c-.265 0-.52.105-.707.293-.188.187-.293.442-.293.707 0 .265.105.52.293.707.187.188.442.293.707.293.265 0 .52-.105.707-.293.188-.187.293-.442.293-.707 0-.265-.105-.52-.293-.707-.187-.188-.442-.293-.707-.293zm2-6c-.265 0-.52.105-.707.293-.188.187-.293.442-.293.707 0 .265.105.52.293.707.187.188.442.293.707.293.265 0 .52-.105.707-.293.188-.187.293-.442.293-.707 0-.265-.105-.52-.293-.707-.187-.188-.442-.293-.707-.293z" stroke-width=".5"/></g><g fill="none" stroke="#66fcf1" stroke-miterlimit="10"><path d="M886 32l28.49-10.84C917.55 15.25 900.54.54 898.5 3.5l-1 2c-4.57 9.46-7.43 16.54-12 26l.5.5zm11.5-26.5c3.76-.82 16.47 12.99 14.45 16.61" stroke-dasharray="59.002684530349526,29.289084245647363" stroke-dashoffset="88.291769"/><path d="M900.5 12.5c-.265 0-.52.105-.707.293-.188.187-.293.442-.293.707 0 .265.105.52.293.707.187.188.442.293.707.293.265 0 .52-.105.707-.293.188-.187.293-.442.293-.707 0-.265-.105-.52-.293-.707-.187-.188-.442-.293-.707-.293zm0 7c-.265 0-.52.105-.707.293-.188.187-.293.442-.293.707 0 .265.105.52.293.707.187.188.442.293.707.293.265 0 .52-.105.707-.293.188-.187.293-.442.293-.707 0-.265-.105-.52-.293-.707-.187-.188-.442-.293-.707-.293zm5-2c-.265 0-.52.105-.707.293-.188.187-.293.442-.293.707 0 .265.105.52.293.707.187.188.442.293.707.293.265 0 .52-.105.707-.293.188-.187.293-.442.293-.707 0-.265-.105-.52-.293-.707-.187-.188-.442-.293-.707-.293zm-11 5c-.265 0-.52.105-.707.293-.188.187-.293.442-.293.707 0 .265.105.52.293.707.187.188.442.293.707.293.265 0 .52-.105.707-.293.188-.187.293-.442.293-.707 0-.265-.105-.52-.293-.707-.187-.188-.442-.293-.707-.293zm2-6c-.265 0-.52.105-.707.293-.188.187-.293.442-.293.707 0 .265.105.52.293.707.187.188.442.293.707.293.265 0 .52-.105.707-.293.188-.187.293-.442.293-.707 0-.265-.105-.52-.293-.707-.187-.188-.442-.293-.707-.293z" stroke-width=".5"/></g><g fill="none" stroke="#66fcf1" stroke-miterlimit="10"><path d="M926 32l28.49-10.84C957.55 15.25 940.54.54 938.5 3.5l-1 2c-4.57 9.46-7.43 16.54-12 26l.5.5zm11.5-26.5c3.76-.82 16.47 12.99 14.45 16.61" stroke-dasharray="62.31988672999186,25.971882046005028" stroke-dashoffset="88.291769"/><path d="M940.5 12.5c-.265 0-.52.105-.707.293-.188.187-.293.442-.293.707 0 .265.105.52.293.707.187.188.442.293.707.293.265 0 .52-.105.707-.293.188-.187.293-.442.293-.707 0-.265-.105-.52-.293-.707-.187-.188-.442-.293-.707-.293zm0 7c-.265 0-.52.105-.707.293-.188.187-.293.442-.293.707 0 .265.105.52.293.707.187.188.442.293.707.293.265 0 .52-.105.707-.293.188-.187.293-.442.293-.707 0-.265-.105-.52-.293-.707-.187-.188-.442-.293-.707-.293zm5-2c-.265 0-.52.105-.707.293-.188.187-.293.442-.293.707 0 .265.105.52.293.707.187.188.442.293.707.293.265 0 .52-.105.707-.293.188-.187.293-.442.293-.707 0-.265-.105-.52-.293-.707-.187-.188-.442-.293-.707-.293zm-11 5c-.265 0-.52.105-.707.293-.188.187-.293.442-.293.707 0 .265.105.52.293.707.187.188.442.293.707.293.265 0 .52-.105.707-.293.188-.187.293-.442.293-.707 0-.265-.105-.52-.293-.707-.187-.188-.442-.293-.707-.293zm2-6c-.265 0-.52.105-.707.293-.188.187-.293.442-.293.707 0 .265.105.52.293.707.187.188.442.293.707.293.265 0 .52-.105.707-.293.188-.187.293-.442.293-.707 0-.265-.105-.52-.293-.707-.187-.188-.442-.293-.707-.293z" stroke-width=".5"/></g><g fill="none" stroke="#66fcf1" stroke-miterlimit="10"><path d="M966 32l28.49-10.84C997.55 15.25 980.54.54 978.5 3.5l-1 2c-4.57 9.46-7.43 16.54-12 26l.5.5zm11.5-26.5c3.76-.82 16.47 12.99 14.45 16.61" stroke-dasharray="65.29868567740715,22.99308309858974" stroke-dashoffset="88.291769"/><path d="M980.5 12.5c-.265 0-.52.105-.707.293-.188.187-.293.442-.293.707 0 .265.105.52.293.707.187.188.442.293.707.293.265 0 .52-.105.707-.293.188-.187.293-.442.293-.707 0-.265-.105-.52-.293-.707-.187-.188-.442-.293-.707-.293zm0 7c-.265 0-.52.105-.707.293-.188.187-.293.442-.293.707 0 .265.105.52.293.707.187.188.442.293.707.293.265 0 .52-.105.707-.293.188-.187.293-.442.293-.707 0-.265-.105-.52-.293-.707-.187-.188-.442-.293-.707-.293zm5-2c-.265 0-.52.105-.707.293-.188.187-.293.442-.293.707 0 .265.105.52.293.707.187.188.442.293.707.293.265 0 .52-.105.707-.293.188-.187.293-.442.293-.707 0-.265-.105-.52-.293-.707-.187-.188-.442-.293-.707-.293zm-11 5c-.265 0-.52.105-.707.293-.188.187-.293.442-.293.707 0 .265.105.52.293.707.187.188.442.293.707.293.265 0 .52-.105.707-.293.188-.187.293-.442.293-.707 0-.265-.105-.52-.293-.707-.187-.188-.442-.293-.707-.293zm2-6c-.265 0-.52.105-.707.293-.188.187-.293.442-.293.707 0 .265.105.52.293.707.187.188.442.293.707.293.265 0 .52-.105.707-.293.188-.187.293-.442.293-.707 0-.265-.105-.52-.293-.707-.187-.188-.442-.293-.707-.293z" stroke-width=".5"/></g><g fill="none" stroke="#66fcf1" stroke-miterlimit="10"><path d="M1006 32l28.49-10.84c3.06-5.91-13.95-20.62-15.99-17.66l-1 2c-4.57 9.46-7.43 16.54-12 26l.5.5zm11.5-26.5c3.76-.82 16.47 12.99 14.45 16.61" stroke-dasharray="67.9740925403763,20.317676235620585" stroke-dashoffset="88.291769"/><path d="M1020.5 12.5c-.265 0-.52.105-.707.293-.188.187-.293.442-.293.707 0 .265.105.52.293.707.187.188.442.293.707.293.265 0 .52-.105.707-.293.188-.187.293-.442.293-.707 0-.265-.105-.52-.293-.707-.187-.188-.442-.293-.707-.293zm0 7c-.265 0-.52.105-.707.293-.188.187-.293.442-.293.707 0 .265.105.52.293.707.187.188.442.293.707.293.265 0 .52-.105.707-.293.188-.187.293-.442.293-.707 0-.265-.105-.52-.293-.707-.187-.188-.442-.293-.707-.293zm5-2c-.265 0-.52.105-.707.293-.188.187-.293.442-.293.707 0 .265.105.52.293.707.187.188.442.293.707.293.265 0 .52-.105.707-.293.188-.187.293-.442.293-.707 0-.265-.105-.52-.293-.707-.187-.188-.442-.293-.707-.293zm-11 5c-.265 0-.52.105-.707.293-.188.187-.293.442-.293.707 0 .265.105.52.293.707.187.188.442.293.707.293.265 0 .52-.105.707-.293.188-.187.293-.442.293-.707 0-.265-.105-.52-.293-.707-.187-.188-.442-.293-.707-.293zm2-6c-.265 0-.52.105-.707.293-.188.187-.293.442-.293.707 0 .265.105.52.293.707.187.188.442.293.707.293.265 0 .52-.105.707-.293.188-.187.293-.442.293-.707 0-.265-.105-.52-.293-.707-.187-.188-.442-.293-.707-.293z" stroke-width=".5"/></g><g fill="none" stroke="#66fcf1" stroke-miterlimit="10"><path d="M1046 32l28.49-10.84c3.06-5.91-13.95-20.62-15.99-17.66l-1 2c-4.57 9.46-7.43 16.54-12 26l.5.5zm11.5-26.5c3.76-.82 16.47 12.99 14.45 16.61" stroke-dasharray="70.37854368409113,17.913225091905765" stroke-dashoffset="88.291769"/><path d="M1060.5 12.5c-.265 0-.52.105-.707.293-.188.187-.293.442-.293.707 0 .265.105.52.293.707.187.188.442.293.707.293.265 0 .52-.105.707-.293.188-.187.293-.442.293-.707 0-.265-.105-.52-.293-.707-.187-.188-.442-.293-.707-.293zm0 7c-.265 0-.52.105-.707.293-.188.187-.293.442-.293.707 0 .265.105.52.293.707.187.188.442.293.707.293.265 0 .52-.105.707-.293.188-.187.293-.442.293-.707 0-.265-.105-.52-.293-.707-.187-.188-.442-.293-.707-.293zm5-2c-.265 0-.52.105-.707.293-.188.187-.293.442-.293.707 0 .265.105.52.293.707.187.188.442.293.707.293.265 0 .52-.105.707-.293.188-.187.293-.442.293-.707 0-.265-.105-.52-.293-.707-.187-.188-.442-.293-.707-.293zm-11 5c-.265 0-.52.105-.707.293-.188.187-.293.442-.293.707 0 .265.105.52.293.707.187.188.442.293.707.293.265 0 .52-.105.707-.293.188-.187.293-.442.293-.707 0-.265-.105-.52-.293-.707-.187-.188-.442-.293-.707-.293zm2-6c-.265 0-.52.105-.707.293-.188.187-.293.442-.293.707 0 .265.105.52.293.707.187.188.442.293.707.293.265 0 .52-.105.707-.293.188-.187.293-.442.293-.707 0-.265-.105-.52-.293-.707-.187-.188-.442-.293-.707-.293z" stroke-width=".5"/></g><g fill="none" stroke="#66fcf1" stroke-miterlimit="10"><path d="M1086 32l28.49-10.84c3.06-5.91-13.95-20.62-15.99-17.66l-1 2c-4.57 9.46-7.43 16.54-12 26l.5.5zm11.5-26.5c3.76-.82 16.47 12.99 14.45 16.61" stroke-dasharray="72.54102029950306,15.750748476493829" stroke-dashoffset="88.291769"/><path d="M1100.5 12.5c-.265 0-.52.105-.707.293-.188.187-.293.442-.293.707 0 .265.105.52.293.707.187.188.442.293.707.293.265 0 .52-.105.707-.293.188-.187.293-.442.293-.707 0-.265-.105-.52-.293-.707-.187-.188-.442-.293-.707-.293zm0 7c-.265 0-.52.105-.707.293-.188.187-.293.442-.293.707 0 .265.105.52.293.707.187.188.442.293.707.293.265 0 .52-.105.707-.293.188-.187.293-.442.293-.707 0-.265-.105-.52-.293-.707-.187-.188-.442-.293-.707-.293zm5-2c-.265 0-.52.105-.707.293-.188.187-.293.442-.293.707 0 .265.105.52.293.707.187.188.442.293.707.293.265 0 .52-.105.707-.293.188-.187.293-.442.293-.707 0-.265-.105-.52-.293-.707-.187-.188-.442-.293-.707-.293zm-11 5c-.265 0-.52.105-.707.293-.188.187-.293.442-.293.707 0 .265.105.52.293.707.187.188.442.293.707.293.265 0 .52-.105.707-.293.188-.187.293-.442.293-.707 0-.265-.105-.52-.293-.707-.187-.188-.442-.293-.707-.293zm2-6c-.265 0-.52.105-.707.293-.188.187-.293.442-.293.707 0 .265.105.52.293.707.187.188.442.293.707.293.265 0 .52-.105.707-.293.188-.187.293-.442.293-.707 0-.265-.105-.52-.293-.707-.187-.188-.442-.293-.707-.293z" stroke-width=".5"/></g><g fill="none" stroke="#66fcf1" stroke-miterlimit="10"><path d="M1126 32l28.49-10.84c3.06-5.91-13.95-20.62-15.99-17.66l-1 2c-4.57 9.46-7.43 16.54-12 26l.5.5zm11.5-26.5c3.76-.82 16.47 12.99 14.45 16.61" stroke-dasharray="74.48695582827523,13.804812947721652" stroke-dashoffset="88.291769"/><path d="M1140.5 12.5c-.265 0-.52.105-.707.293-.188.187-.293.442-.293.707 0 .265.105.52.293.707.187.188.442.293.707.293.265 0 .52-.105.707-.293.188-.187.293-.442.293-.707 0-.265-.105-.52-.293-.707-.187-.188-.442-.293-.707-.293zm0 7c-.265 0-.52.105-.707.293-.188.187-.293.442-.293.707 0 .265.105.52.293.707.187.188.442.293.707.293.265 0 .52-.105.707-.293.188-.187.293-.442.293-.707 0-.265-.105-.52-.293-.707-.187-.188-.442-.293-.707-.293zm5-2c-.265 0-.52.105-.707.293-.188.187-.293.442-.293.707 0 .265.105.52.293.707.187.188.442.293.707.293.265 0 .52-.105.707-.293.188-.187.293-.442.293-.707 0-.265-.105-.52-.293-.707-.187-.188-.442-.293-.707-.293zm-11 5c-.265 0-.52.105-.707.293-.188.187-.293.442-.293.707 0 .265.105.52.293.707.187.188.442.293.707.293.265 0 .52-.105.707-.293.188-.187.293-.442.293-.707 0-.265-.105-.52-.293-.707-.187-.188-.442-.293-.707-.293zm2-6c-.265 0-.52.105-.707.293-.188.187-.293.442-.293.707 0 .265.105.52.293.707.187.188.442.293.707.293.265 0 .52-.105.707-.293.188-.187.293-.442.293-.707 0-.265-.105-.52-.293-.707-.187-.188-.442-.293-.707-.293z" stroke-width=".5"/></g><g fill="none" stroke="#66fcf1" stroke-miterlimit="10"><path d="M1166 32l28.49-10.84c3.06-5.91-13.95-20.62-15.99-17.66l-1 2c-4.57 9.46-7.43 16.54-12 26l.5.5zm11.5-26.5c3.76-.82 16.47 12.99 14.45 16.61" stroke-dasharray="76.2384863902813,12.053282385715589" stroke-dashoffset="88.291769"/><path d="M1180.5 12.5c-.265 0-.52.105-.707.293-.188.187-.293.442-.293.707 0 .265.105.52.293.707.187.188.442.293.707.293.265 0 .52-.105.707-.293.188-.187.293-.442.293-.707 0-.265-.105-.52-.293-.707-.187-.188-.442-.293-.707-.293zm0 7c-.265 0-.52.105-.707.293-.188.187-.293.442-.293.707 0 .265.105.52.293.707.187.188.442.293.707.293.265 0 .52-.105.707-.293.188-.187.293-.442.293-.707 0-.265-.105-.52-.293-.707-.187-.188-.442-.293-.707-.293zm5-2c-.265 0-.52.105-.707.293-.188.187-.293.442-.293.707 0 .265.105.52.293.707.187.188.442.293.707.293.265 0 .52-.105.707-.293.188-.187.293-.442.293-.707 0-.265-.105-.52-.293-.707-.187-.188-.442-.293-.707-.293zm-11 5c-.265 0-.52.105-.707.293-.188.187-.293.442-.293.707 0 .265.105.52.293.707.187.188.442.293.707.293.265 0 .52-.105.707-.293.188-.187.293-.442.293-.707 0-.265-.105-.52-.293-.707-.187-.188-.442-.293-.707-.293zm2-6c-.265 0-.52.105-.707.293-.188.187-.293.442-.293.707 0 .265.105.52.293.707.187.188.442.293.707.293.265 0 .52-.105.707-.293.188-.187.293-.442.293-.707 0-.265-.105-.52-.293-.707-.187-.188-.442-.293-.707-.293z" stroke-width=".5"/></g><g fill="none" stroke="#66fcf1" stroke-miterlimit="10"><path d="M1206 32l28.49-10.84c3.06-5.91-13.95-20.62-15.99-17.66l-1 2c-4.57 9.46-7.43 16.54-12 26l.5.5zm11.5-26.5c3.76-.82 16.47 12.99 14.45 16.61" stroke-dasharray="77.81482340241934,10.476945373577546" stroke-dashoffset="88.291769"/><path d="M1220.5 12.5c-.265 0-.52.105-.707.293-.188.187-.293.442-.293.707 0 .265.105.52.293.707.187.188.442.293.707.293.265 0 .52-.105.707-.293.188-.187.293-.442.293-.707 0-.265-.105-.52-.293-.707-.187-.188-.442-.293-.707-.293zm0 7c-.265 0-.52.105-.707.293-.188.187-.293.442-.293.707 0 .265.105.52.293.707.187.188.442.293.707.293.265 0 .52-.105.707-.293.188-.187.293-.442.293-.707 0-.265-.105-.52-.293-.707-.187-.188-.442-.293-.707-.293zm5-2c-.265 0-.52.105-.707.293-.188.187-.293.442-.293.707 0 .265.105.52.293.707.187.188.442.293.707.293.265 0 .52-.105.707-.293.188-.187.293-.442.293-.707 0-.265-.105-.52-.293-.707-.187-.188-.442-.293-.707-.293zm-11 5c-.265 0-.52.105-.707.293-.188.187-.293.442-.293.707 0 .265.105.52.293.707.187.188.442.293.707.293.265 0 .52-.105.707-.293.188-.187.293-.442.293-.707 0-.265-.105-.52-.293-.707-.187-.188-.442-.293-.707-.293zm2-6c-.265 0-.52.105-.707.293-.188.187-.293.442-.293.707 0 .265.105.52.293.707.187.188.442.293.707.293.265 0 .52-.105.707-.293.188-.187.293-.442.293-.707 0-.265-.105-.52-.293-.707-.187-.188-.442-.293-.707-.293z" stroke-width=".5"/></g><g fill="none" stroke="#66fcf1" stroke-miterlimit="10"><path d="M1246 32l28.49-10.84c3.06-5.91-13.95-20.62-15.99-17.66l-1 2c-4.57 9.46-7.43 16.54-12 26l.5.5zm11.5-26.5c3.76-.82 16.47 12.99 14.45 16.61" stroke-dasharray="79.23264459617765,9.059124179819232" stroke-dashoffset="88.291769"/><path d="M1260.5 12.5c-.265 0-.52.105-.707.293-.188.187-.293.442-.293.707 0 .265.105.52.293.707.187.188.442.293.707.293.265 0 .52-.105.707-.293.188-.187.293-.442.293-.707 0-.265-.105-.52-.293-.707-.187-.188-.442-.293-.707-.293zm0 7c-.265 0-.52.105-.707.293-.188.187-.293.442-.293.707 0 .265.105.52.293.707.187.188.442.293.707.293.265 0 .52-.105.707-.293.188-.187.293-.442.293-.707 0-.265-.105-.52-.293-.707-.187-.188-.442-.293-.707-.293zm5-2c-.265 0-.52.105-.707.293-.188.187-.293.442-.293.707 0 .265.105.52.293.707.187.188.442.293.707.293.265 0 .52-.105.707-.293.188-.187.293-.442.293-.707 0-.265-.105-.52-.293-.707-.187-.188-.442-.293-.707-.293zm-11 5c-.265 0-.52.105-.707.293-.188.187-.293.442-.293.707 0 .265.105.52.293.707.187.188.442.293.707.293.265 0 .52-.105.707-.293.188-.187.293-.442.293-.707 0-.265-.105-.52-.293-.707-.187-.188-.442-.293-.707-.293zm2-6c-.265 0-.52.105-.707.293-.188.187-.293.442-.293.707 0 .265.105.52.293.707.187.188.442.293.707.293.265 0 .52-.105.707-.293.188-.187.293-.442.293-.707 0-.265-.105-.52-.293-.707-.187-.188-.442-.293-.707-.293z" stroke-width=".5"/></g><g fill="none" stroke="#66fcf1" stroke-miterlimit="10"><path d="M1286 32l28.49-10.84c3.06-5.91-13.95-20.62-15.99-17.66l-1 2c-4.57 9.46-7.43 16.54-12 26l.5.5zm11.5-26.5c3.76-.82 16.47 12.99 14.45 16.61" stroke-dasharray="80.50645853843695,7.785310237559936" stroke-dashoffset="88.291769"/><path d="M1300.5 12.5c-.265 0-.52.105-.707.293-.188.187-.293.442-.293.707 0 .265.105.52.293.707.187.188.442.293.707.293.265 0 .52-.105.707-.293.188-.187.293-.442.293-.707 0-.265-.105-.52-.293-.707-.187-.188-.442-.293-.707-.293zm0 7c-.265 0-.52.105-.707.293-.188.187-.293.442-.293.707 0 .265.105.52.293.707.187.188.442.293.707.293.265 0 .52-.105.707-.293.188-.187.293-.442.293-.707 0-.265-.105-.52-.293-.707-.187-.188-.442-.293-.707-.293zm5-2c-.265 0-.52.105-.707.293-.188.187-.293.442-.293.707 0 .265.105.52.293.707.187.188.442.293.707.293.265 0 .52-.105.707-.293.188-.187.293-.442.293-.707 0-.265-.105-.52-.293-.707-.187-.188-.442-.293-.707-.293zm-11 5c-.265 0-.52.105-.707.293-.188.187-.293.442-.293.707 0 .265.105.52.293.707.187.188.442.293.707.293.265 0 .52-.105.707-.293.188-.187.293-.442.293-.707 0-.265-.105-.52-.293-.707-.187-.188-.442-.293-.707-.293zm2-6c-.265 0-.52.105-.707.293-.188.187-.293.442-.293.707 0 .265.105.52.293.707.187.188.442.293.707.293.265 0 .52-.105.707-.293.188-.187.293-.442.293-.707 0-.265-.105-.52-.293-.707-.187-.188-.442-.293-.707-.293z" stroke-width=".5"/></g><g fill="none" stroke="#66fcf1" stroke-miterlimit="10"><path d="M1326 32l28.49-10.84c3.06-5.91-13.95-20.62-15.99-17.66l-1 2c-4.57 9.46-7.43 16.54-12 26l.5.5zm11.5-26.5c3.76-.82 16.47 12.99 14.45 16.61" stroke-dasharray="81.64892645656376,6.642842319433123" stroke-dashoffset="88.291769"/><path d="M1340.5 12.5c-.265 0-.52.105-.707.293-.188.187-.293.442-.293.707 0 .265.105.52.293.707.187.188.442.293.707.293.265 0 .52-.105.707-.293.188-.187.293-.442.293-.707 0-.265-.105-.52-.293-.707-.187-.188-.442-.293-.707-.293zm0 7c-.265 0-.52.105-.707.293-.188.187-.293.442-.293.707 0 .265.105.52.293.707.187.188.442.293.707.293.265 0 .52-.105.707-.293.188-.187.293-.442.293-.707 0-.265-.105-.52-.293-.707-.187-.188-.442-.293-.707-.293zm5-2c-.265 0-.52.105-.707.293-.188.187-.293.442-.293.707 0 .265.105.52.293.707.187.188.442.293.707.293.265 0 .52-.105.707-.293.188-.187.293-.442.293-.707 0-.265-.105-.52-.293-.707-.187-.188-.442-.293-.707-.293zm-11 5c-.265 0-.52.105-.707.293-.188.187-.293.442-.293.707 0 .265.105.52.293.707.187.188.442.293.707.293.265 0 .52-.105.707-.293.188-.187.293-.442.293-.707 0-.265-.105-.52-.293-.707-.187-.188-.442-.293-.707-.293zm2-6c-.265 0-.52.105-.707.293-.188.187-.293.442-.293.707 0 .265.105.52.293.707.187.188.442.293.707.293.265 0 .52-.105.707-.293.188-.187.293-.442.293-.707 0-.265-.105-.52-.293-.707-.187-.188-.442-.293-.707-.293z" stroke-width=".5"/></g><g fill="none" stroke="#66fcf1" stroke-miterlimit="10"><path d="M1366 32l28.49-10.84c3.06-5.91-13.95-20.62-15.99-17.66l-1 2c-4.57 9.46-7.43 16.54-12 26l.5.5zm11.5-26.5c3.76-.82 16.47 12.99 14.45 16.61" stroke-dasharray="82.6711385665159,5.620630209480984" stroke-dashoffset="88.291769"/><path d="M1380.5 12.5c-.265 0-.52.105-.707.293-.188.187-.293.442-.293.707 0 .265.105.52.293.707.187.188.442.293.707.293.265 0 .52-.105.707-.293.188-.187.293-.442.293-.707 0-.265-.105-.52-.293-.707-.187-.188-.442-.293-.707-.293zm0 7c-.265 0-.52.105-.707.293-.188.187-.293.442-.293.707 0 .265.105.52.293.707.187.188.442.293.707.293.265 0 .52-.105.707-.293.188-.187.293-.442.293-.707 0-.265-.105-.52-.293-.707-.187-.188-.442-.293-.707-.293zm5-2c-.265 0-.52.105-.707.293-.188.187-.293.442-.293.707 0 .265.105.52.293.707.187.188.442.293.707.293.265 0 .52-.105.707-.293.188-.187.293-.442.293-.707 0-.265-.105-.52-.293-.707-.187-.188-.442-.293-.707-.293zm-11 5c-.265 0-.52.105-.707.293-.188.187-.293.442-.293.707 0 .265.105.52.293.707.187.188.442.293.707.293.265 0 .52-.105.707-.293.188-.187.293-.442.293-.707 0-.265-.105-.52-.293-.707-.187-.188-.442-.293-.707-.293zm2-6c-.265 0-.52.105-.707.293-.188.187-.293.442-.293.707 0 .265.105.52.293.707.187.188.442.293.707.293.265 0 .52-.105.707-.293.188-.187.293-.442.293-.707 0-.265-.105-.52-.293-.707-.187-.188-.442-.293-.707-.293z" stroke-width=".5"/></g><g fill="none" stroke="#66fcf1" stroke-miterlimit="10"><path d="M1406 32l28.49-10.84c3.06-5.91-13.95-20.62-15.99-17.66l-1 2c-4.57 9.46-7.43 16.54-12 26l.5.5zm11.5-26.5c3.76-.82 16.47 12.99 14.45 16.61" stroke-dasharray="83.58284790146159,4.708920874535297" stroke-dashoffset="88.291769"/><path d="M1420.5 12.5c-.265 0-.52.105-.707.293-.188.187-.293.442-.293.707 0 .265.105.52.293.707.187.188.442.293.707.293.265 0 .52-.105.707-.293.188-.187.293-.442.293-.707 0-.265-.105-.52-.293-.707-.187-.188-.442-.293-.707-.293zm0 7c-.265 0-.52.105-.707.293-.188.187-.293.442-.293.707 0 .265.105.52.293.707.187.188.442.293.707.293.265 0 .52-.105.707-.293.188-.187.293-.442.293-.707 0-.265-.105-.52-.293-.707-.187-.188-.442-.293-.707-.293zm5-2c-.265 0-.52.105-.707.293-.188.187-.293.442-.293.707 0 .265.105.52.293.707.187.188.442.293.707.293.265 0 .52-.105.707-.293.188-.187.293-.442.293-.707 0-.265-.105-.52-.293-.707-.187-.188-.442-.293-.707-.293zm-11 5c-.265 0-.52.105-.707.293-.188.187-.293.442-.293.707 0 .265.105.52.293.707.187.188.442.293.707.293.265 0 .52-.105.707-.293.188-.187.293-.442.293-.707 0-.265-.105-.52-.293-.707-.187-.188-.442-.293-.707-.293zm2-6c-.265 0-.52.105-.707.293-.188.187-.293.442-.293.707 0 .265.105.52.293.707.187.188.442.293.707.293.265 0 .52-.105.707-.293.188-.187.293-.442.293-.707 0-.265-.105-.52-.293-.707-.187-.188-.442-.293-.707-.293z" stroke-width=".5"/></g><g stroke="#66fcf1" stroke-miterlimit="10"><path d="M1446 32l28.49-10.84c3.06-5.91-13.95-20.62-15.99-17.66l-1 2c-4.57 9.46-7.43 16.54-12 26l.5.5zm11.5-26.5c3.76-.82 16.47 12.99 14.45 16.61" fill="none" stroke-dasharray="84.39266675042418,3.899102025572705" stroke-dashoffset="88.291769"/><path d="M1460.5 12.5c-.265 0-.52.105-.707.293-.188.187-.293.442-.293.707 0 .265.105.52.293.707.187.188.442.293.707.293.265 0 .52-.105.707-.293.188-.187.293-.442.293-.707 0-.265-.105-.52-.293-.707-.187-.188-.442-.293-.707-.293zm0 7c-.265 0-.52.105-.707.293-.188.187-.293.442-.293.707 0 .265.105.52.293.707.187.188.442.293.707.293.265 0 .52-.105.707-.293.188-.187.293-.442.293-.707 0-.265-.105-.52-.293-.707-.187-.188-.442-.293-.707-.293zm5-2c-.265 0-.52.105-.707.293-.188.187-.293.442-.293.707 0 .265.105.52.293.707.187.188.442.293.707.293.265 0 .52-.105.707-.293.188-.187.293-.442.293-.707 0-.265-.105-.52-.293-.707-.187-.188-.442-.293-.707-.293zm-11 5c-.265 0-.52.105-.707.293-.188.187-.293.442-.293.707 0 .265.105.52.293.707.187.188.442.293.707.293.265 0 .52-.105.707-.293.188-.187.293-.442.293-.707 0-.265-.105-.52-.293-.707-.187-.188-.442-.293-.707-.293zm2-6c-.265 0-.52.105-.707.293-.188.187-.293.442-.293.707 0 .265.105.52.293.707.187.188.442.293.707.293.265 0 .52-.105.707-.293.188-.187.293-.442.293-.707 0-.265-.105-.52-.293-.707-.187-.188-.442-.293-.707-.293z" fill="#66fcf1" fill-opacity=".000885" stroke-width=".5"/></g><g stroke="#66fcf1" stroke-miterlimit="10"><path d="M1486 32l28.49-10.84c3.06-5.91-13.95-20.62-15.99-17.66l-1 2c-4.57 9.46-7.43 16.54-12 26l.5.5zm11.5-26.5c3.76-.82 16.47 12.99 14.45 16.61" fill="none" stroke-dasharray="85.10823120651538,3.1835375694815036" stroke-dashoffset="88.291769"/><path d="M1500.5 12.5c-.265 0-.52.105-.707.293-.188.187-.293.442-.293.707 0 .265.105.52.293.707.187.188.442.293.707.293.265 0 .52-.105.707-.293.188-.187.293-.442.293-.707 0-.265-.105-.52-.293-.707-.187-.188-.442-.293-.707-.293zm0 7c-.265 0-.52.105-.707.293-.188.187-.293.442-.293.707 0 .265.105.52.293.707.187.188.442.293.707.293.265 0 .52-.105.707-.293.188-.187.293-.442.293-.707 0-.265-.105-.52-.293-.707-.187-.188-.442-.293-.707-.293zm5-2c-.265 0-.52.105-.707.293-.188.187-.293.442-.293.707 0 .265.105.52.293.707.187.188.442.293.707.293.265 0 .52-.105.707-.293.188-.187.293-.442.293-.707 0-.265-.105-.52-.293-.707-.187-.188-.442-.293-.707-.293zm-11 5c-.265 0-.52.105-.707.293-.188.187-.293.442-.293.707 0 .265.105.52.293.707.187.188.442.293.707.293.265 0 .52-.105.707-.293.188-.187.293-.442.293-.707 0-.265-.105-.52-.293-.707-.187-.188-.442-.293-.707-.293zm2-6c-.265 0-.52.105-.707.293-.188.187-.293.442-.293.707 0 .265.105.52.293.707.187.188.442.293.707.293.265 0 .52-.105.707-.293.188-.187.293-.442.293-.707 0-.265-.105-.52-.293-.707-.187-.188-.442-.293-.707-.293z" fill="#66fcf1" fill-opacity=".009199" stroke-width=".5"/></g><g stroke="#66fcf1" stroke-miterlimit="10"><path d="M1526 32l28.49-10.84c3.06-5.91-13.95-20.62-15.99-17.66l-1 2c-4.57 9.46-7.43 16.54-12 26l.5.5zm11.5-26.5c3.76-.82 16.47 12.99 14.45 16.61" fill="none" stroke-dasharray="85.73633896673849,2.5554298092584005" stroke-dashoffset="88.291769"/><path d="M1540.5 12.5c-.265 0-.52.105-.707.293-.188.187-.293.442-.293.707 0 .265.105.52.293.707.187.188.442.293.707.293.265 0 .52-.105.707-.293.188-.187.293-.442.293-.707 0-.265-.105-.52-.293-.707-.187-.188-.442-.293-.707-.293zm0 7c-.265 0-.52.105-.707.293-.188.187-.293.442-.293.707 0 .265.105.52.293.707.187.188.442.293.707.293.265 0 .52-.105.707-.293.188-.187.293-.442.293-.707 0-.265-.105-.52-.293-.707-.187-.188-.442-.293-.707-.293zm5-2c-.265 0-.52.105-.707.293-.188.187-.293.442-.293.707 0 .265.105.52.293.707.187.188.442.293.707.293.265 0 .52-.105.707-.293.188-.187.293-.442.293-.707 0-.265-.105-.52-.293-.707-.187-.188-.442-.293-.707-.293zm-11 5c-.265 0-.52.105-.707.293-.188.187-.293.442-.293.707 0 .265.105.52.293.707.187.188.442.293.707.293.265 0 .52-.105.707-.293.188-.187.293-.442.293-.707 0-.265-.105-.52-.293-.707-.187-.188-.442-.293-.707-.293zm2-6c-.265 0-.52.105-.707.293-.188.187-.293.442-.293.707 0 .265.105.52.293.707.187.188.442.293.707.293.265 0 .52-.105.707-.293.188-.187.293-.442.293-.707 0-.265-.105-.52-.293-.707-.187-.188-.442-.293-.707-.293z" fill="#66fcf1" fill-opacity=".028475" stroke-width=".5"/></g><g stroke="#66fcf1" stroke-miterlimit="10"><path d="M1566 32l28.49-10.84c3.06-5.91-13.95-20.62-15.99-17.66l-1 2c-4.57 9.46-7.43 16.54-12 26l.5.5zm11.5-26.5c3.76-.82 16.47 12.99 14.45 16.61" fill="none" stroke-dasharray="86.28306489367895,2.008703882317928" stroke-dashoffset="88.291769"/><path d="M1580.5 12.5c-.265 0-.52.105-.707.293-.188.187-.293.442-.293.707 0 .265.105.52.293.707.187.188.442.293.707.293.265 0 .52-.105.707-.293.188-.187.293-.442.293-.707 0-.265-.105-.52-.293-.707-.187-.188-.442-.293-.707-.293zm0 7c-.265 0-.52.105-.707.293-.188.187-.293.442-.293.707 0 .265.105.52.293.707.187.188.442.293.707.293.265 0 .52-.105.707-.293.188-.187.293-.442.293-.707 0-.265-.105-.52-.293-.707-.187-.188-.442-.293-.707-.293zm5-2c-.265 0-.52.105-.707.293-.188.187-.293.442-.293.707 0 .265.105.52.293.707.187.188.442.293.707.293.265 0 .52-.105.707-.293.188-.187.293-.442.293-.707 0-.265-.105-.52-.293-.707-.187-.188-.442-.293-.707-.293zm-11 5c-.265 0-.52.105-.707.293-.188.187-.293.442-.293.707 0 .265.105.52.293.707.187.188.442.293.707.293.265 0 .52-.105.707-.293.188-.187.293-.442.293-.707 0-.265-.105-.52-.293-.707-.187-.188-.442-.293-.707-.293zm2-6c-.265 0-.52.105-.707.293-.188.187-.293.442-.293.707 0 .265.105.52.293.707.187.188.442.293.707.293.265 0 .52-.105.707-.293.188-.187.293-.442.293-.707 0-.265-.105-.52-.293-.707-.187-.188-.442-.293-.707-.293z" fill="#66fcf1" fill-opacity=".062322" stroke-width=".5"/></g><g stroke="#66fcf1" stroke-miterlimit="10"><path d="M1606 32l28.49-10.84c3.06-5.91-13.95-20.62-15.99-17.66l-1 2c-4.57 9.46-7.43 16.54-12 26l.5.5zm11.5-26.5c3.76-.82 16.47 12.99 14.45 16.61" fill="none" stroke-dasharray="86.7538581655288,1.5379106104680949" stroke-dashoffset="88.291769"/><path d="M1620.5 12.5c-.265 0-.52.105-.707.293-.188.187-.293.442-.293.707 0 .265.105.52.293.707.187.188.442.293.707.293.265 0 .52-.105.707-.293.188-.187.293-.442.293-.707 0-.265-.105-.52-.293-.707-.187-.188-.442-.293-.707-.293zm0 7c-.265 0-.52.105-.707.293-.188.187-.293.442-.293.707 0 .265.105.52.293.707.187.188.442.293.707.293.265 0 .52-.105.707-.293.188-.187.293-.442.293-.707 0-.265-.105-.52-.293-.707-.187-.188-.442-.293-.707-.293zm5-2c-.265 0-.52.105-.707.293-.188.187-.293.442-.293.707 0 .265.105.52.293.707.187.188.442.293.707.293.265 0 .52-.105.707-.293.188-.187.293-.442.293-.707 0-.265-.105-.52-.293-.707-.187-.188-.442-.293-.707-.293zm-11 5c-.265 0-.52.105-.707.293-.188.187-.293.442-.293.707 0 .265.105.52.293.707.187.188.442.293.707.293.265 0 .52-.105.707-.293.188-.187.293-.442.293-.707 0-.265-.105-.52-.293-.707-.187-.188-.442-.293-.707-.293zm2-6c-.265 0-.52.105-.707.293-.188.187-.293.442-.293.707 0 .265.105.52.293.707.187.188.442.293.707.293.265 0 .52-.105.707-.293.188-.187.293-.442.293-.707 0-.265-.105-.52-.293-.707-.187-.188-.442-.293-.707-.293z" fill="#66fcf1" fill-opacity=".115479" stroke-width=".5"/></g><g stroke="#66fcf1" stroke-miterlimit="10"><path d="M1646 32l28.49-10.84c3.06-5.91-13.95-20.62-15.99-17.66l-1 2c-4.57 9.46-7.43 16.54-12 26l.5.5zm11.5-26.5c3.76-.82 16.47 12.99 14.45 16.61" fill="none" stroke-dasharray="87.15362420150423,1.1381445744926555" stroke-dashoffset="88.291769"/><path d="M1660.5 12.5c-.265 0-.52.105-.707.293-.188.187-.293.442-.293.707 0 .265.105.52.293.707.187.188.442.293.707.293.265 0 .52-.105.707-.293.188-.187.293-.442.293-.707 0-.265-.105-.52-.293-.707-.187-.188-.442-.293-.707-.293zm0 7c-.265 0-.52.105-.707.293-.188.187-.293.442-.293.707 0 .265.105.52.293.707.187.188.442.293.707.293.265 0 .52-.105.707-.293.188-.187.293-.442.293-.707 0-.265-.105-.52-.293-.707-.187-.188-.442-.293-.707-.293zm5-2c-.265 0-.52.105-.707.293-.188.187-.293.442-.293.707 0 .265.105.52.293.707.187.188.442.293.707.293.265 0 .52-.105.707-.293.188-.187.293-.442.293-.707 0-.265-.105-.52-.293-.707-.187-.188-.442-.293-.707-.293zm-11 5c-.265 0-.52.105-.707.293-.188.187-.293.442-.293.707 0 .265.105.52.293.707.187.188.442.293.707.293.265 0 .52-.105.707-.293.188-.187.293-.442.293-.707 0-.265-.105-.52-.293-.707-.187-.188-.442-.293-.707-.293zm2-6c-.265 0-.52.105-.707.293-.188.187-.293.442-.293.707 0 .265.105.52.293.707.187.188.442.293.707.293.265 0 .52-.105.707-.293.188-.187.293-.442.293-.707 0-.265-.105-.52-.293-.707-.187-.188-.442-.293-.707-.293z" fill="#66fcf1" fill-opacity=".192654" stroke-width=".5"/></g><g stroke="#66fcf1" stroke-miterlimit="10"><path d="M1686 32l28.49-10.84c3.06-5.91-13.95-20.62-15.99-17.66l-1 2c-4.57 9.46-7.43 16.54-12 26l.5.5zm11.5-26.5c3.76-.82 16.47 12.99 14.45 16.61" fill="none" stroke-dasharray="87.48679399039723,0.8049747855996544" stroke-dashoffset="88.291769"/><path d="M1700.5 12.5c-.265 0-.52.105-.707.293-.188.187-.293.442-.293.707 0 .265.105.52.293.707.187.188.442.293.707.293.265 0 .52-.105.707-.293.188-.187.293-.442.293-.707 0-.265-.105-.52-.293-.707-.187-.188-.442-.293-.707-.293zm0 7c-.265 0-.52.105-.707.293-.188.187-.293.442-.293.707 0 .265.105.52.293.707.187.188.442.293.707.293.265 0 .52-.105.707-.293.188-.187.293-.442.293-.707 0-.265-.105-.52-.293-.707-.187-.188-.442-.293-.707-.293zm5-2c-.265 0-.52.105-.707.293-.188.187-.293.442-.293.707 0 .265.105.52.293.707.187.188.442.293.707.293.265 0 .52-.105.707-.293.188-.187.293-.442.293-.707 0-.265-.105-.52-.293-.707-.187-.188-.442-.293-.707-.293zm-11 5c-.265 0-.52.105-.707.293-.188.187-.293.442-.293.707 0 .265.105.52.293.707.187.188.442.293.707.293.265 0 .52-.105.707-.293.188-.187.293-.442.293-.707 0-.265-.105-.52-.293-.707-.187-.188-.442-.293-.707-.293zm2-6c-.265 0-.52.105-.707.293-.188.187-.293.442-.293.707 0 .265.105.52.293.707.187.188.442.293.707.293.265 0 .52-.105.707-.293.188-.187.293-.442.293-.707 0-.265-.105-.52-.293-.707-.187-.188-.442-.293-.707-.293z" fill="#66fcf1" fill-opacity=".293802" stroke-width=".5"/></g><g stroke="#66fcf1" stroke-miterlimit="10"><path d="M1726 32l28.49-10.84c3.06-5.91-13.95-20.62-15.99-17.66l-1 2c-4.57 9.46-7.43 16.54-12 26l.5.5zm11.5-26.5c3.76-.82 16.47 12.99 14.45 16.61" fill="none" stroke-dasharray="87.75738297760176,0.5343857983951256" stroke-dashoffset="88.291769"/><path d="M1740.5 12.5c-.265 0-.52.105-.707.293-.188.187-.293.442-.293.707 0 .265.105.52.293.707.187.188.442.293.707.293.265 0 .52-.105.707-.293.188-.187.293-.442.293-.707 0-.265-.105-.52-.293-.707-.187-.188-.442-.293-.707-.293zm0 7c-.265 0-.52.105-.707.293-.188.187-.293.442-.293.707 0 .265.105.52.293.707.187.188.442.293.707.293.265 0 .52-.105.707-.293.188-.187.293-.442.293-.707 0-.265-.105-.52-.293-.707-.187-.188-.442-.293-.707-.293zm5-2c-.265 0-.52.105-.707.293-.188.187-.293.442-.293.707 0 .265.105.52.293.707.187.188.442.293.707.293.265 0 .52-.105.707-.293.188-.187.293-.442.293-.707 0-.265-.105-.52-.293-.707-.187-.188-.442-.293-.707-.293zm-11 5c-.265 0-.52.105-.707.293-.188.187-.293.442-.293.707 0 .265.105.52.293.707.187.188.442.293.707.293.265 0 .52-.105.707-.293.188-.187.293-.442.293-.707 0-.265-.105-.52-.293-.707-.187-.188-.442-.293-.707-.293zm2-6c-.265 0-.52.105-.707.293-.188.187-.293.442-.293.707 0 .265.105.52.293.707.187.188.442.293.707.293.265 0 .52-.105.707-.293.188-.187.293-.442.293-.707 0-.265-.105-.52-.293-.707-.187-.188-.442-.293-.707-.293z" fill="#66fcf1" fill-opacity=".40772" stroke-width=".5"/></g><g stroke="#66fcf1" stroke-miterlimit="10"><path d="M1766 32l28.49-10.84c3.06-5.91-13.95-20.62-15.99-17.66l-1 2c-4.57 9.46-7.43 16.54-12 26l.5.5zm11.5-26.5c3.76-.82 16.47 12.99 14.45 16.61" fill="none" stroke-dasharray="87.96904127475638,0.3227275012405085" stroke-dashoffset="88.291769"/><path d="M1780.5 12.5c-.265 0-.52.105-.707.293-.188.187-.293.442-.293.707 0 .265.105.52.293.707.187.188.442.293.707.293.265 0 .52-.105.707-.293.188-.187.293-.442.293-.707 0-.265-.105-.52-.293-.707-.187-.188-.442-.293-.707-.293zm0 7c-.265 0-.52.105-.707.293-.188.187-.293.442-.293.707 0 .265.105.52.293.707.187.188.442.293.707.293.265 0 .52-.105.707-.293.188-.187.293-.442.293-.707 0-.265-.105-.52-.293-.707-.187-.188-.442-.293-.707-.293zm5-2c-.265 0-.52.105-.707.293-.188.187-.293.442-.293.707 0 .265.105.52.293.707.187.188.442.293.707.293.265 0 .52-.105.707-.293.188-.187.293-.442.293-.707 0-.265-.105-.52-.293-.707-.187-.188-.442-.293-.707-.293zm-11 5c-.265 0-.52.105-.707.293-.188.187-.293.442-.293.707 0 .265.105.52.293.707.187.188.442.293.707.293.265 0 .52-.105.707-.293.188-.187.293-.442.293-.707 0-.265-.105-.52-.293-.707-.187-.188-.442-.293-.707-.293zm2-6c-.265 0-.52.105-.707.293-.188.187-.293.442-.293.707 0 .265.105.52.293.707.187.188.442.293.707.293.265 0 .52-.105.707-.293.188-.187.293-.442.293-.707 0-.265-.105-.52-.293-.707-.187-.188-.442-.293-.707-.293z" fill="#66fcf1" fill-opacity=".517053" stroke-width=".5"/></g><g stroke="#66fcf1" stroke-miterlimit="10"><path d="M1806 32l28.49-10.84c3.06-5.91-13.95-20.62-15.99-17.66l-1 2c-4.57 9.46-7.43 16.54-12 26l.5.5zm11.5-26.5c3.76-.82 16.47 12.99 14.45 16.61" fill="none" stroke-dasharray="88.1250966357924,0.1666721402044872" stroke-dashoffset="88.291769"/><path d="M1820.5 12.5c-.265 0-.52.105-.707.293-.188.187-.293.442-.293.707 0 .265.105.52.293.707.187.188.442.293.707.293.265 0 .52-.105.707-.293.188-.187.293-.442.293-.707 0-.265-.105-.52-.293-.707-.187-.188-.442-.293-.707-.293zm0 7c-.265 0-.52.105-.707.293-.188.187-.293.442-.293.707 0 .265.105.52.293.707.187.188.442.293.707.293.265 0 .52-.105.707-.293.188-.187.293-.442.293-.707 0-.265-.105-.52-.293-.707-.187-.188-.442-.293-.707-.293zm5-2c-.265 0-.52.105-.707.293-.188.187-.293.442-.293.707 0 .265.105.52.293.707.187.188.442.293.707.293.265 0 .52-.105.707-.293.188-.187.293-.442.293-.707 0-.265-.105-.52-.293-.707-.187-.188-.442-.293-.707-.293zm-11 5c-.265 0-.52.105-.707.293-.188.187-.293.442-.293.707 0 .265.105.52.293.707.187.188.442.293.707.293.265 0 .52-.105.707-.293.188-.187.293-.442.293-.707 0-.265-.105-.52-.293-.707-.187-.188-.442-.293-.707-.293zm2-6c-.265 0-.52.105-.707.293-.188.187-.293.442-.293.707 0 .265.105.52.293.707.187.188.442.293.707.293.265 0 .52-.105.707-.293.188-.187.293-.442.293-.707 0-.265-.105-.52-.293-.707-.187-.188-.442-.293-.707-.293z" fill="#66fcf1" fill-opacity=".611533" stroke-width=".5"/></g><g stroke="#66fcf1" stroke-miterlimit="10"><path d="M1846 32l28.49-10.84c3.06-5.91-13.95-20.62-15.99-17.66l-1 2c-4.57 9.46-7.43 16.54-12 26l.5.5zm11.5-26.5c3.76-.82 16.47 12.99 14.45 16.61" fill="none" stroke-dasharray="88.22859138243183,0.06317739356505342" stroke-dashoffset="88.291769"/><path d="M1860.5 12.5c-.265 0-.52.105-.707.293-.188.187-.293.442-.293.707 0 .265.105.52.293.707.187.188.442.293.707.293.265 0 .52-.105.707-.293.188-.187.293-.442.293-.707 0-.265-.105-.52-.293-.707-.187-.188-.442-.293-.707-.293zm0 7c-.265 0-.52.105-.707.293-.188.187-.293.442-.293.707 0 .265.105.52.293.707.187.188.442.293.707.293.265 0 .52-.105.707-.293.188-.187.293-.442.293-.707 0-.265-.105-.52-.293-.707-.187-.188-.442-.293-.707-.293zm5-2c-.265 0-.52.105-.707.293-.188.187-.293.442-.293.707 0 .265.105.52.293.707.187.188.442.293.707.293.265 0 .52-.105.707-.293.188-.187.293-.442.293-.707 0-.265-.105-.52-.293-.707-.187-.188-.442-.293-.707-.293zm-11 5c-.265 0-.52.105-.707.293-.188.187-.293.442-.293.707 0 .265.105.52.293.707.187.188.442.293.707.293.265 0 .52-.105.707-.293.188-.187.293-.442.293-.707 0-.265-.105-.52-.293-.707-.187-.188-.442-.293-.707-.293zm2-6c-.265 0-.52.105-.707.293-.188.187-.293.442-.293.707 0 .265.105.52.293.707.187.188.442.293.707.293.265 0 .52-.105.707-.293.188-.187.293-.442.293-.707 0-.265-.105-.52-.293-.707-.187-.188-.442-.293-.707-.293z" fill="#66fcf1" fill-opacity=".689639" stroke-width=".5"/></g><g stroke="#66fcf1" stroke-miterlimit="10"><path d="M1886 32l28.49-10.84c3.06-5.91-13.95-20.62-15.99-17.66l-1 2c-4.57 9.46-7.43 16.54-12 26l.5.5zm11.5-26.5c3.76-.82 16.47 12.99 14.45 16.61" fill="none" stroke-dasharray="88.28231425055516,0.009454525441728775" stroke-dashoffset="88.291769"/><path d="M1900.5 12.5c-.265 0-.52.105-.707.293-.188.187-.293.442-.293.707 0 .265.105.52.293.707.187.188.442.293.707.293.265 0 .52-.105.707-.293.188-.187.293-.442.293-.707 0-.265-.105-.52-.293-.707-.187-.188-.442-.293-.707-.293zm0 7c-.265 0-.52.105-.707.293-.188.187-.293.442-.293.707 0 .265.105.52.293.707.187.188.442.293.707.293.265 0 .52-.105.707-.293.188-.187.293-.442.293-.707 0-.265-.105-.52-.293-.707-.187-.188-.442-.293-.707-.293zm5-2c-.265 0-.52.105-.707.293-.188.187-.293.442-.293.707 0 .265.105.52.293.707.187.188.442.293.707.293.265 0 .52-.105.707-.293.188-.187.293-.442.293-.707 0-.265-.105-.52-.293-.707-.187-.188-.442-.293-.707-.293zm-11 5c-.265 0-.52.105-.707.293-.188.187-.293.442-.293.707 0 .265.105.52.293.707.187.188.442.293.707.293.265 0 .52-.105.707-.293.188-.187.293-.442.293-.707 0-.265-.105-.52-.293-.707-.187-.188-.442-.293-.707-.293zm2-6c-.265 0-.52.105-.707.293-.188.187-.293.442-.293.707 0 .265.105.52.293.707.187.188.442.293.707.293.265 0 .52-.105.707-.293.188-.187.293-.442.293-.707 0-.265-.105-.52-.293-.707-.187-.188-.442-.293-.707-.293z" fill="#66fcf1" fill-opacity=".753447" stroke-width=".5"/></g><g stroke="#66fcf1" stroke-miterlimit="10"><path d="M1926 32l28.49-10.84c3.06-5.91-13.95-20.62-15.99-17.66l-1 2c-4.57 9.46-7.43 16.54-12 26l.5.5zm11.5-26.5c3.76-.82 16.47 12.99 14.45 16.61" fill="none"/><path d="M1940.5 12.5c-.265 0-.52.105-.707.293-.188.187-.293.442-.293.707 0 .265.105.52.293.707.187.188.442.293.707.293.265 0 .52-.105.707-.293.188-.187.293-.442.293-.707 0-.265-.105-.52-.293-.707-.187-.188-.442-.293-.707-.293zm0 7c-.265 0-.52.105-.707.293-.188.187-.293.442-.293.707 0 .265.105.52.293.707.187.188.442.293.707.293.265 0 .52-.105.707-.293.188-.187.293-.442.293-.707 0-.265-.105-.52-.293-.707-.187-.188-.442-.293-.707-.293zm5-2c-.265 0-.52.105-.707.293-.188.187-.293.442-.293.707 0 .265.105.52.293.707.187.188.442.293.707.293.265 0 .52-.105.707-.293.188-.187.293-.442.293-.707 0-.265-.105-.52-.293-.707-.187-.188-.442-.293-.707-.293zm-11 5c-.265 0-.52.105-.707.293-.188.187-.293.442-.293.707 0 .265.105.52.293.707.187.188.442.293.707.293.265 0 .52-.105.707-.293.188-.187.293-.442.293-.707 0-.265-.105-.52-.293-.707-.187-.188-.442-.293-.707-.293zm2-6c-.265 0-.52.105-.707.293-.188.187-.293.442-.293.707 0 .265.105.52.293.707.187.188.442.293.707.293.265 0 .52-.105.707-.293.188-.187.293-.442.293-.707 0-.265-.105-.52-.293-.707-.187-.188-.442-.293-.707-.293z" fill="#66fcf1" fill-opacity=".805567" stroke-width=".5"/></g><g stroke="#66fcf1" stroke-miterlimit="10"><path d="M1966 32l28.49-10.84c3.06-5.91-13.95-20.62-15.99-17.66l-1 2c-4.57 9.46-7.43 16.54-12 26l.5.5zm11.5-26.5c3.76-.82 16.47 12.99 14.45 16.61" fill="none"/><path d="M1980.5 12.5c-.265 0-.52.105-.707.293-.188.187-.293.442-.293.707 0 .265.105.52.293.707.187.188.442.293.707.293.265 0 .52-.105.707-.293.188-.187.293-.442.293-.707 0-.265-.105-.52-.293-.707-.187-.188-.442-.293-.707-.293zm0 7c-.265 0-.52.105-.707.293-.188.187-.293.442-.293.707 0 .265.105.52.293.707.187.188.442.293.707.293.265 0 .52-.105.707-.293.188-.187.293-.442.293-.707 0-.265-.105-.52-.293-.707-.187-.188-.442-.293-.707-.293zm5-2c-.265 0-.52.105-.707.293-.188.187-.293.442-.293.707 0 .265.105.52.293.707.187.188.442.293.707.293.265 0 .52-.105.707-.293.188-.187.293-.442.293-.707 0-.265-.105-.52-.293-.707-.187-.188-.442-.293-.707-.293zm-11 5c-.265 0-.52.105-.707.293-.188.187-.293.442-.293.707 0 .265.105.52.293.707.187.188.442.293.707.293.265 0 .52-.105.707-.293.188-.187.293-.442.293-.707 0-.265-.105-.52-.293-.707-.187-.188-.442-.293-.707-.293zm2-6c-.265 0-.52.105-.707.293-.188.187-.293.442-.293.707 0 .265.105.52.293.707.187.188.442.293.707.293.265 0 .52-.105.707-.293.188-.187.293-.442.293-.707 0-.265-.105-.52-.293-.707-.187-.188-.442-.293-.707-.293z" fill="#66fcf1" fill-opacity=".848236" stroke-width=".5"/></g><g stroke="#66fcf1" stroke-miterlimit="10"><path d="M2006 32l28.49-10.84c3.06-5.91-13.95-20.62-15.99-17.66l-1 2c-4.57 9.46-7.43 16.54-12 26l.5.5zm11.5-26.5c3.76-.82 16.47 12.99 14.45 16.61" fill="none"/><path d="M2020.5 12.5c-.265 0-.52.105-.707.293-.188.187-.293.442-.293.707 0 .265.105.52.293.707.187.188.442.293.707.293.265 0 .52-.105.707-.293.188-.187.293-.442.293-.707 0-.265-.105-.52-.293-.707-.187-.188-.442-.293-.707-.293zm0 7c-.265 0-.52.105-.707.293-.188.187-.293.442-.293.707 0 .265.105.52.293.707.187.188.442.293.707.293.265 0 .52-.105.707-.293.188-.187.293-.442.293-.707 0-.265-.105-.52-.293-.707-.187-.188-.442-.293-.707-.293zm5-2c-.265 0-.52.105-.707.293-.188.187-.293.442-.293.707 0 .265.105.52.293.707.187.188.442.293.707.293.265 0 .52-.105.707-.293.188-.187.293-.442.293-.707 0-.265-.105-.52-.293-.707-.187-.188-.442-.293-.707-.293zm-11 5c-.265 0-.52.105-.707.293-.188.187-.293.442-.293.707 0 .265.105.52.293.707.187.188.442.293.707.293.265 0 .52-.105.707-.293.188-.187.293-.442.293-.707 0-.265-.105-.52-.293-.707-.187-.188-.442-.293-.707-.293zm2-6c-.265 0-.52.105-.707.293-.188.187-.293.442-.293.707 0 .265.105.52.293.707.187.188.442.293.707.293.265 0 .52-.105.707-.293.188-.187.293-.442.293-.707 0-.265-.105-.52-.293-.707-.187-.188-.442-.293-.707-.293z" fill="#66fcf1" fill-opacity=".883207" stroke-width=".5"/></g><g stroke="#66fcf1" stroke-miterlimit="10"><path d="M2046 32l28.49-10.84c3.06-5.91-13.95-20.62-15.99-17.66l-1 2c-4.57 9.46-7.43 16.54-12 26l.5.5zm11.5-26.5c3.76-.82 16.47 12.99 14.45 16.61" fill="none"/><path d="M2060.5 12.5c-.265 0-.52.105-.707.293-.188.187-.293.442-.293.707 0 .265.105.52.293.707.187.188.442.293.707.293.265 0 .52-.105.707-.293.188-.187.293-.442.293-.707 0-.265-.105-.52-.293-.707-.187-.188-.442-.293-.707-.293zm0 7c-.265 0-.52.105-.707.293-.188.187-.293.442-.293.707 0 .265.105.52.293.707.187.188.442.293.707.293.265 0 .52-.105.707-.293.188-.187.293-.442.293-.707 0-.265-.105-.52-.293-.707-.187-.188-.442-.293-.707-.293zm5-2c-.265 0-.52.105-.707.293-.188.187-.293.442-.293.707 0 .265.105.52.293.707.187.188.442.293.707.293.265 0 .52-.105.707-.293.188-.187.293-.442.293-.707 0-.265-.105-.52-.293-.707-.187-.188-.442-.293-.707-.293zm-11 5c-.265 0-.52.105-.707.293-.188.187-.293.442-.293.707 0 .265.105.52.293.707.187.188.442.293.707.293.265 0 .52-.105.707-.293.188-.187.293-.442.293-.707 0-.265-.105-.52-.293-.707-.187-.188-.442-.293-.707-.293zm2-6c-.265 0-.52.105-.707.293-.188.187-.293.442-.293.707 0 .265.105.52.293.707.187.188.442.293.707.293.265 0 .52-.105.707-.293.188-.187.293-.442.293-.707 0-.265-.105-.52-.293-.707-.187-.188-.442-.293-.707-.293z" fill="#66fcf1" fill-opacity=".911823" stroke-width=".5"/></g><g stroke="#66fcf1" stroke-miterlimit="10"><path d="M2086 32l28.49-10.84c3.06-5.91-13.95-20.62-15.99-17.66l-1 2c-4.57 9.46-7.43 16.54-12 26l.5.5zm11.5-26.5c3.76-.82 16.47 12.99 14.45 16.61" fill="none"/><path d="M2100.5 12.5c-.265 0-.52.105-.707.293-.188.187-.293.442-.293.707 0 .265.105.52.293.707.187.188.442.293.707.293.265 0 .52-.105.707-.293.188-.187.293-.442.293-.707 0-.265-.105-.52-.293-.707-.187-.188-.442-.293-.707-.293zm0 7c-.265 0-.52.105-.707.293-.188.187-.293.442-.293.707 0 .265.105.52.293.707.187.188.442.293.707.293.265 0 .52-.105.707-.293.188-.187.293-.442.293-.707 0-.265-.105-.52-.293-.707-.187-.188-.442-.293-.707-.293zm5-2c-.265 0-.52.105-.707.293-.188.187-.293.442-.293.707 0 .265.105.52.293.707.187.188.442.293.707.293.265 0 .52-.105.707-.293.188-.187.293-.442.293-.707 0-.265-.105-.52-.293-.707-.187-.188-.442-.293-.707-.293zm-11 5c-.265 0-.52.105-.707.293-.188.187-.293.442-.293.707 0 .265.105.52.293.707.187.188.442.293.707.293.265 0 .52-.105.707-.293.188-.187.293-.442.293-.707 0-.265-.105-.52-.293-.707-.187-.188-.442-.293-.707-.293zm2-6c-.265 0-.52.105-.707.293-.188.187-.293.442-.293.707 0 .265.105.52.293.707.187.188.442.293.707.293.265 0 .52-.105.707-.293.188-.187.293-.442.293-.707 0-.265-.105-.52-.293-.707-.187-.188-.442-.293-.707-.293z" fill="#66fcf1" fill-opacity=".935118" stroke-width=".5"/></g><g stroke="#66fcf1" stroke-miterlimit="10"><path d="M2126 32l28.49-10.84c3.06-5.91-13.95-20.62-15.99-17.66l-1 2c-4.57 9.46-7.43 16.54-12 26l.5.5zm11.5-26.5c3.76-.82 16.47 12.99 14.45 16.61" fill="none"/><path d="M2140.5 12.5c-.265 0-.52.105-.707.293-.188.187-.293.442-.293.707 0 .265.105.52.293.707.187.188.442.293.707.293.265 0 .52-.105.707-.293.188-.187.293-.442.293-.707 0-.265-.105-.52-.293-.707-.187-.188-.442-.293-.707-.293zm0 7c-.265 0-.52.105-.707.293-.188.187-.293.442-.293.707 0 .265.105.52.293.707.187.188.442.293.707.293.265 0 .52-.105.707-.293.188-.187.293-.442.293-.707 0-.265-.105-.52-.293-.707-.187-.188-.442-.293-.707-.293zm5-2c-.265 0-.52.105-.707.293-.188.187-.293.442-.293.707 0 .265.105.52.293.707.187.188.442.293.707.293.265 0 .52-.105.707-.293.188-.187.293-.442.293-.707 0-.265-.105-.52-.293-.707-.187-.188-.442-.293-.707-.293zm-11 5c-.265 0-.52.105-.707.293-.188.187-.293.442-.293.707 0 .265.105.52.293.707.187.188.442.293.707.293.265 0 .52-.105.707-.293.188-.187.293-.442.293-.707 0-.265-.105-.52-.293-.707-.187-.188-.442-.293-.707-.293zm2-6c-.265 0-.52.105-.707.293-.188.187-.293.442-.293.707 0 .265.105.52.293.707.187.188.442.293.707.293.265 0 .52-.105.707-.293.188-.187.293-.442.293-.707 0-.265-.105-.52-.293-.707-.187-.188-.442-.293-.707-.293z" fill="#66fcf1" fill-opacity=".953895" stroke-width=".5"/></g><g stroke="#66fcf1" stroke-miterlimit="10"><path d="M2166 32l28.49-10.84c3.06-5.91-13.95-20.62-15.99-17.66l-1 2c-4.57 9.46-7.43 16.54-12 26l.5.5zm11.5-26.5c3.76-.82 16.47 12.99 14.45 16.61" fill="none"/><path d="M2180.5 12.5c-.265 0-.52.105-.707.293-.188.187-.293.442-.293.707 0 .265.105.52.293.707.187.188.442.293.707.293.265 0 .52-.105.707-.293.188-.187.293-.442.293-.707 0-.265-.105-.52-.293-.707-.187-.188-.442-.293-.707-.293zm0 7c-.265 0-.52.105-.707.293-.188.187-.293.442-.293.707 0 .265.105.52.293.707.187.188.442.293.707.293.265 0 .52-.105.707-.293.188-.187.293-.442.293-.707 0-.265-.105-.52-.293-.707-.187-.188-.442-.293-.707-.293zm5-2c-.265 0-.52.105-.707.293-.188.187-.293.442-.293.707 0 .265.105.52.293.707.187.188.442.293.707.293.265 0 .52-.105.707-.293.188-.187.293-.442.293-.707 0-.265-.105-.52-.293-.707-.187-.188-.442-.293-.707-.293zm-11 5c-.265 0-.52.105-.707.293-.188.187-.293.442-.293.707 0 .265.105.52.293.707.187.188.442.293.707.293.265 0 .52-.105.707-.293.188-.187.293-.442.293-.707 0-.265-.105-.52-.293-.707-.187-.188-.442-.293-.707-.293zm2-6c-.265 0-.52.105-.707.293-.188.187-.293.442-.293.707 0 .265.105.52.293.707.187.188.442.293.707.293.265 0 .52-.105.707-.293.188-.187.293-.442.293-.707 0-.265-.105-.52-.293-.707-.187-.188-.442-.293-.707-.293z" fill="#66fcf1" fill-opacity=".968791" stroke-width=".5"/></g><g stroke="#66fcf1" stroke-miterlimit="10"><path d="M2206 32l28.49-10.84c3.06-5.91-13.95-20.62-15.99-17.66l-1 2c-4.57 9.46-7.43 16.54-12 26l.5.5zm11.5-26.5c3.76-.82 16.47 12.99 14.45 16.61" fill="none"/><path d="M2220.5 12.5c-.265 0-.52.105-.707.293-.188.187-.293.442-.293.707 0 .265.105.52.293.707.187.188.442.293.707.293.265 0 .52-.105.707-.293.188-.187.293-.442.293-.707 0-.265-.105-.52-.293-.707-.187-.188-.442-.293-.707-.293zm0 7c-.265 0-.52.105-.707.293-.188.187-.293.442-.293.707 0 .265.105.52.293.707.187.188.442.293.707.293.265 0 .52-.105.707-.293.188-.187.293-.442.293-.707 0-.265-.105-.52-.293-.707-.187-.188-.442-.293-.707-.293zm5-2c-.265 0-.52.105-.707.293-.188.187-.293.442-.293.707 0 .265.105.52.293.707.187.188.442.293.707.293.265 0 .52-.105.707-.293.188-.187.293-.442.293-.707 0-.265-.105-.52-.293-.707-.187-.188-.442-.293-.707-.293zm-11 5c-.265 0-.52.105-.707.293-.188.187-.293.442-.293.707 0 .265.105.52.293.707.187.188.442.293.707.293.265 0 .52-.105.707-.293.188-.187.293-.442.293-.707 0-.265-.105-.52-.293-.707-.187-.188-.442-.293-.707-.293zm2-6c-.265 0-.52.105-.707.293-.188.187-.293.442-.293.707 0 .265.105.52.293.707.187.188.442.293.707.293.265 0 .52-.105.707-.293.188-.187.293-.442.293-.707 0-.265-.105-.52-.293-.707-.187-.188-.442-.293-.707-.293z" fill="#66fcf1" fill-opacity=".980314" stroke-width=".5"/></g><g stroke="#66fcf1" stroke-miterlimit="10"><path d="M2246 32l28.49-10.84c3.06-5.91-13.95-20.62-15.99-17.66l-1 2c-4.57 9.46-7.43 16.54-12 26l.5.5zm11.5-26.5c3.76-.82 16.47 12.99 14.45 16.61" fill="none"/><path d="M2260.5 12.5c-.265 0-.52.105-.707.293-.188.187-.293.442-.293.707 0 .265.105.52.293.707.187.188.442.293.707.293.265 0 .52-.105.707-.293.188-.187.293-.442.293-.707 0-.265-.105-.52-.293-.707-.187-.188-.442-.293-.707-.293zm0 7c-.265 0-.52.105-.707.293-.188.187-.293.442-.293.707 0 .265.105.52.293.707.187.188.442.293.707.293.265 0 .52-.105.707-.293.188-.187.293-.442.293-.707 0-.265-.105-.52-.293-.707-.187-.188-.442-.293-.707-.293zm5-2c-.265 0-.52.105-.707.293-.188.187-.293.442-.293.707 0 .265.105.52.293.707.187.188.442.293.707.293.265 0 .52-.105.707-.293.188-.187.293-.442.293-.707 0-.265-.105-.52-.293-.707-.187-.188-.442-.293-.707-.293zm-11 5c-.265 0-.52.105-.707.293-.188.187-.293.442-.293.707 0 .265.105.52.293.707.187.188.442.293.707.293.265 0 .52-.105.707-.293.188-.187.293-.442.293-.707 0-.265-.105-.52-.293-.707-.187-.188-.442-.293-.707-.293zm2-6c-.265 0-.52.105-.707.293-.188.187-.293.442-.293.707 0 .265.105.52.293.707.187.188.442.293.707.293.265 0 .52-.105.707-.293.188-.187.293-.442.293-.707 0-.265-.105-.52-.293-.707-.187-.188-.442-.293-.707-.293z" fill="#66fcf1" fill-opacity=".988877" stroke-width=".5"/></g><g stroke="#66fcf1" stroke-miterlimit="10"><path d="M2286 32l28.49-10.84c3.06-5.91-13.95-20.62-15.99-17.66l-1 2c-4.57 9.46-7.43 16.54-12 26l.5.5zm11.5-26.5c3.76-.82 16.47 12.99 14.45 16.61" fill="none"/><path d="M2300.5 12.5c-.265 0-.52.105-.707.293-.188.187-.293.442-.293.707 0 .265.105.52.293.707.187.188.442.293.707.293.265 0 .52-.105.707-.293.188-.187.293-.442.293-.707 0-.265-.105-.52-.293-.707-.187-.188-.442-.293-.707-.293zm0 7c-.265 0-.52.105-.707.293-.188.187-.293.442-.293.707 0 .265.105.52.293.707.187.188.442.293.707.293.265 0 .52-.105.707-.293.188-.187.293-.442.293-.707 0-.265-.105-.52-.293-.707-.187-.188-.442-.293-.707-.293zm5-2c-.265 0-.52.105-.707.293-.188.187-.293.442-.293.707 0 .265.105.52.293.707.187.188.442.293.707.293.265 0 .52-.105.707-.293.188-.187.293-.442.293-.707 0-.265-.105-.52-.293-.707-.187-.188-.442-.293-.707-.293zm-11 5c-.265 0-.52.105-.707.293-.188.187-.293.442-.293.707 0 .265.105.52.293.707.187.188.442.293.707.293.265 0 .52-.105.707-.293.188-.187.293-.442.293-.707 0-.265-.105-.52-.293-.707-.187-.188-.442-.293-.707-.293zm2-6c-.265 0-.52.105-.707.293-.188.187-.293.442-.293.707 0 .265.105.52.293.707.187.188.442.293.707.293.265 0 .52-.105.707-.293.188-.187.293-.442.293-.707 0-.265-.105-.52-.293-.707-.187-.188-.442-.293-.707-.293z" fill="#66fcf1" fill-opacity=".994819" stroke-width=".5"/></g><g stroke="#66fcf1" stroke-miterlimit="10"><path d="M2326 32l28.49-10.84c3.06-5.91-13.95-20.62-15.99-17.66l-1 2c-4.57 9.46-7.43 16.54-12 26l.5.5zm11.5-26.5c3.76-.82 16.47 12.99 14.45 16.61" fill="none"/><path d="M2340.5 12.5c-.265 0-.52.105-.707.293-.188.187-.293.442-.293.707 0 .265.105.52.293.707.187.188.442.293.707.293.265 0 .52-.105.707-.293.188-.187.293-.442.293-.707 0-.265-.105-.52-.293-.707-.187-.188-.442-.293-.707-.293zm0 7c-.265 0-.52.105-.707.293-.188.187-.293.442-.293.707 0 .265.105.52.293.707.187.188.442.293.707.293.265 0 .52-.105.707-.293.188-.187.293-.442.293-.707 0-.265-.105-.52-.293-.707-.187-.188-.442-.293-.707-.293zm5-2c-.265 0-.52.105-.707.293-.188.187-.293.442-.293.707 0 .265.105.52.293.707.187.188.442.293.707.293.265 0 .52-.105.707-.293.188-.187.293-.442.293-.707 0-.265-.105-.52-.293-.707-.187-.188-.442-.293-.707-.293zm-11 5c-.265 0-.52.105-.707.293-.188.187-.293.442-.293.707 0 .265.105.52.293.707.187.188.442.293.707.293.265 0 .52-.105.707-.293.188-.187.293-.442.293-.707 0-.265-.105-.52-.293-.707-.187-.188-.442-.293-.707-.293zm2-6c-.265 0-.52.105-.707.293-.188.187-.293.442-.293.707 0 .265.105.52.293.707.187.188.442.293.707.293.265 0 .52-.105.707-.293.188-.187.293-.442.293-.707 0-.265-.105-.52-.293-.707-.187-.188-.442-.293-.707-.293z" fill="#66fcf1" fill-opacity=".998423" stroke-width=".5"/></g><g stroke="#66fcf1" stroke-miterlimit="10"><path d="M2366 32l28.49-10.84c3.06-5.91-13.95-20.62-15.99-17.66l-1 2c-4.57 9.46-7.43 16.54-12 26l.5.5zm11.5-26.5c3.76-.82 16.47 12.99 14.45 16.61" fill="none"/><path d="M2380.5 12.5c-.265 0-.52.105-.707.293-.188.187-.293.442-.293.707 0 .265.105.52.293.707.187.188.442.293.707.293.265 0 .52-.105.707-.293.188-.187.293-.442.293-.707 0-.265-.105-.52-.293-.707-.187-.188-.442-.293-.707-.293zm0 7c-.265 0-.52.105-.707.293-.188.187-.293.442-.293.707 0 .265.105.52.293.707.187.188.442.293.707.293.265 0 .52-.105.707-.293.188-.187.293-.442.293-.707 0-.265-.105-.52-.293-.707-.187-.188-.442-.293-.707-.293zm5-2c-.265 0-.52.105-.707.293-.188.187-.293.442-.293.707 0 .265.105.52.293.707.187.188.442.293.707.293.265 0 .52-.105.707-.293.188-.187.293-.442.293-.707 0-.265-.105-.52-.293-.707-.187-.188-.442-.293-.707-.293zm-11 5c-.265 0-.52.105-.707.293-.188.187-.293.442-.293.707 0 .265.105.52.293.707.187.188.442.293.707.293.265 0 .52-.105.707-.293.188-.187.293-.442.293-.707 0-.265-.105-.52-.293-.707-.187-.188-.442-.293-.707-.293zm2-6c-.265 0-.52.105-.707.293-.188.187-.293.442-.293.707 0 .265.105.52.293.707.187.188.442.293.707.293.265 0 .52-.105.707-.293.188-.187.293-.442.293-.707 0-.265-.105-.52-.293-.707-.187-.188-.442-.293-.707-.293z" fill="#66fcf1" fill-opacity=".999927" stroke-width=".5"/></g><g stroke="#66fcf1" stroke-miterlimit="10"><path d="M2406 32l28.49-10.84c3.06-5.91-13.95-20.62-15.99-17.66l-1 2c-4.57 9.46-7.43 16.54-12 26l.5.5zm11.5-26.5c3.76-.82 16.47 12.99 14.45 16.61" fill="none"/><path d="M2420.5 12.5c-.265 0-.52.105-.707.293-.188.187-.293.442-.293.707 0 .265.105.52.293.707.187.188.442.293.707.293.265 0 .52-.105.707-.293.188-.187.293-.442.293-.707 0-.265-.105-.52-.293-.707-.187-.188-.442-.293-.707-.293zm0 7c-.265 0-.52.105-.707.293-.188.187-.293.442-.293.707 0 .265.105.52.293.707.187.188.442.293.707.293.265 0 .52-.105.707-.293.188-.187.293-.442.293-.707 0-.265-.105-.52-.293-.707-.187-.188-.442-.293-.707-.293zm5-2c-.265 0-.52.105-.707.293-.188.187-.293.442-.293.707 0 .265.105.52.293.707.187.188.442.293.707.293.265 0 .52-.105.707-.293.188-.187.293-.442.293-.707 0-.265-.105-.52-.293-.707-.187-.188-.442-.293-.707-.293zm-11 5c-.265 0-.52.105-.707.293-.188.187-.293.442-.293.707 0 .265.105.52.293.707.187.188.442.293.707.293.265 0 .52-.105.707-.293.188-.187.293-.442.293-.707 0-.265-.105-.52-.293-.707-.187-.188-.442-.293-.707-.293zm2-6c-.265 0-.52.105-.707.293-.188.187-.293.442-.293.707 0 .265.105.52.293.707.187.188.442.293.707.293.265 0 .52-.105.707-.293.188-.187.293-.442.293-.707 0-.265-.105-.52-.293-.707-.187-.188-.442-.293-.707-.293z" fill="#66fcf1" stroke-width=".5"/></g></svg>