<svg xmlns="http://www.w3.org/2000/svg" viewBox="0 0 2440 40" width="2440" height="40"><g fill="#66fcf1" stroke="#66fcf1"><path d="M21 5c4.41 0 8 3.59 8 8s-3.59 8-8 8-8-3.59-8-8 3.59-8 8-8m0-1c-4.97 0-9 4.03-9 9s4.03 9 9 9 9-4.03 9-9-4.03-9-9-9z" stroke-dasharray="0,50.258162997965215" stroke-dashoffset="50.258163"/><path d="M7.99 22c4.15 1.57 8.36 2.37 12.51 2.37 4.16 0 8.37-.8 12.51-2.37 1.66.09 2.99 1.47 2.99 3.15V32H5v-6.84c0-1.69 1.32-3.07 2.99-3.16m24.85-1c-4.11 1.58-8.23 2.37-12.34 2.37-4.11 0-8.23-.79-12.34-2.37C5.86 21 4 22.86 4 25.16V33h33v-7.84c0-2.3-1.86-4.16-4.16-4.16z" stroke-dasharray="0,79.8804196870738" stroke-dashoffset="79.88042"/></g><g fill="#66fcf1" stroke="#66fcf1"><path d="M61 5c4.41 0 8 3.59 8 8s-3.59 8-8 8-8-3.59-8-8 3.59-8 8-8m0-1c-4.97 0-9 4.03-9 9s4.03 9 9 9 9-4.03 9-9-4.03-9-9-9z" stroke-dasharray="0,50.258162997965215" stroke-dashoffset="50.258163"/><path d="M47.99 22c4.15 1.57 8.36 2.37 12.51 2.37 4.16 0 8.37-.8 12.51-2.37 1.66.09 2.99 1.47 2.99 3.15V32H45v-6.84c0-1.69 1.32-3.07 2.99-3.16m24.85-1c-4.11 1.58-8.23 2.37-12.34 2.37-4.11 0-8.23-.79-12.34-2.37-2.3 0-4.16 1.86-4.16 4.16V33h33v-7.84c0-2.3-1.86-4.16-4.16-4.16z" stroke-dasharray="0,79.8804196870738" stroke-dashoffset="79.88042"/></g><g fill="#66fcf1" stroke="#66fcf1"><path d="M101 5c4.41 0 8 3.59 8 8s-3.59 8-8 8-8-3.59-8-8 3.59-8 8-8m0-1c-4.97 0-9 4.03-9 9s4.03 9 9 9 9-4.03 9-9-4.03-9-9-9z" stroke-dasharray="0,50.258162997965215" stroke-dashoffset="50.258163"/><path d="M87.99 22c4.15 1.57 8.36 2.37 12.51 2.37 4.16 0 8.37-.8 12.51-2.37 1.66.09 2.99 1.47 2.99 3.15V32H85v-6.84c0-1.69 1.32-3.07 2.99-3.16m24.85-1c-4.11 1.58-8.23 2.37-12.34 2.37-4.11 0-8.23-.79-12.34-2.37-2.3 0-4.16 1.86-4.16 4.16V33h33v-7.84c0-2.3-1.86-4.16-4.16-4.16z" stroke-dasharray="0,79.8804196870738" stroke-dashoffset="79.88042"/></g><g fill="#66fcf1" stroke="#66fcf1"><path d="M141 5c4.41 0 8 3.59 8 8s-3.59 8-8 8-8-3.59-8-8 3.59-8 8-8m0-1c-4.97 0-9 4.03-9 9s4.03 9 9 9 9-4.03 9-9-4.03-9-9-9z" stroke-dasharray="0,50.258162997965215" stroke-dashoffset="50.258163"/><path d="M127.99 22c4.15 1.57 8.36 2.37 12.51 2.37 4.16 0 8.37-.8 12.51-2.37 1.66.09 2.99 1.47 2.99 3.15V32h-31v-6.84c0-1.69 1.32-3.07 2.99-3.16m24.85-1c-4.11 1.58-8.23 2.37-12.34 2.37-4.11 0-8.23-.79-12.34-2.37-2.3 0-4.16 1.86-4.16 4.16V33h33v-7.84c0-2.3-1.86-4.16-4.16-4.16z" stroke-dasharray="0,79.8804196870738" stroke-dashoffset="79.88042"/></g><g fill="#66fcf1" stroke="#66fcf1"><path d="M181 5c4.41 0 8 3.59 8 8s-3.59 8-8 8-8-3.59-8-8 3.59-8 8-8m0-1c-4.97 0-9 4.03-9 9s4.03 9 9 9 9-4.03 9-9-4.03-9-9-9z" stroke-dasharray="0.04088965269963783,50.217273345265575" stroke-dashoffset="50.258163"/><path d="M167.99 22c4.15 1.57 8.36 2.37 12.51 2.37 4.16 0 8.37-.8 12.51-2.37 1.66.09 2.99 1.47 2.99 3.15V32h-31v-6.84c0-1.69 1.32-3.07 2.99-3.16m24.85-1c-4.11 1.58-8.23 2.37-12.34 2.37-4.11 0-8.23-.79-12.34-2.37-2.3 0-4.16 1.86-4.16 4.16V33h33v-7.84c0-2.3-1.86-4.16-4.16-4.16z" stroke-dasharray="0.06499009163223894,79.81542959544156" stroke-dashoffset="79.88042"/></g><g fill="#66fcf1" stroke="#66fcf1"><path d="M221 5c4.41 0 8 3.59 8 8s-3.59 8-8 8-8-3.59-8-8 3.59-8 8-8m0-1c-4.97 0-9 4.03-9 9s4.03 9 9 9 9-4.03 9-9-4.03-9-9-9z" stroke-dasharray="0.21155861916249982,50.04660437880271" stroke-dashoffset="50.258163"/><path d="M207.99 22c4.15 1.57 8.36 2.37 12.51 2.37 4.16 0 8.37-.8 12.51-2.37 1.66.09 2.99 1.47 2.99 3.15V32h-31v-6.84c0-1.69 1.32-3.07 2.99-3.16m24.85-1c-4.11 1.58-8.23 2.37-12.34 2.37-4.11 0-8.23-.79-12.34-2.37-2.3 0-4.16 1.86-4.16 4.16V33h33v-7.84c0-2.3-1.86-4.16-4.16-4.16z" stroke-dasharray="0.3362516709534827,79.54416801612031" stroke-dashoffset="79.88042"/></g><g fill="#66fcf1" stroke="#66fcf1"><path d="M261 5c4.41 0 8 3.59 8 8s-3.59 8-8 8-8-3.59-8-8 3.59-8 8-8m0-1c-4.97 0-9 4.03-9 9s4.03 9 9 9 9-4.03 9-9-4.03-9-9-9z" stroke-dasharray="0.5347847920294381,49.723378205935774" stroke-dashoffset="50.258163"/><path d="M247.99 22c4.15 1.57 8.36 2.37 12.51 2.37 4.16 0 8.37-.8 12.51-2.37 1.66.09 2.99 1.47 2.99 3.15V32h-31v-6.84c0-1.69 1.32-3.07 2.99-3.16m24.85-1c-4.11 1.58-8.23 2.37-12.34 2.37-4.11 0-8.23-.79-12.34-2.37-2.3 0-4.16 1.86-4.16 4.16V33h33v-7.84c0-2.3-1.86-4.16-4.16-4.16z" stroke-dasharray="0.8499879637722839,79.0304317233015" stroke-dashoffset="79.88042"/></g><g fill="#66fcf1" stroke="#66fcf1"><path d="M301 5c4.41 0 8 3.59 8 8s-3.59 8-8 8-8-3.59-8-8 3.59-8 8-8m0-1c-4.97 0-9 4.03-9 9s4.03 9 9 9 9-4.03 9-9-4.03-9-9-9z" stroke-dasharray="1.035963313744283,49.22219968422093" stroke-dashoffset="50.258163"/><path d="M287.99 22c4.15 1.57 8.36 2.37 12.51 2.37 4.16 0 8.37-.8 12.51-2.37 1.66.09 2.99 1.47 2.99 3.15V32h-31v-6.84c0-1.69 1.32-3.07 2.99-3.16m24.85-1c-4.11 1.58-8.23 2.37-12.34 2.37-4.11 0-8.23-.79-12.34-2.37-2.3 0-4.16 1.86-4.16 4.16V33h33v-7.84c0-2.3-1.86-4.16-4.16-4.16z" stroke-dasharray="1.6465620577030526,78.23385762937075" stroke-dashoffset="79.88042"/></g><g fill="#66fcf1" stroke="#66fcf1"><path d="M341 5c4.41 0 8 3.59 8 8s-3.59 8-8 8-8-3.59-8-8 3.59-8 8-8m0-1c-4.97 0-9 4.03-9 9s4.03 9 9 9 9-4.03 9-9-4.03-9-9-9z" stroke-dasharray="1.7458765249000079,48.51228647306521" stroke-dashoffset="50.258163"/><path d="M327.99 22c4.15 1.57 8.36 2.37 12.51 2.37 4.16 0 8.37-.8 12.51-2.37 1.66.09 2.99 1.47 2.99 3.15V32h-31v-6.84c0-1.69 1.32-3.07 2.99-3.16m24.85-1c-4.11 1.58-8.23 2.37-12.34 2.37-4.11 0-8.23-.79-12.34-2.37-2.3 0-4.16 1.86-4.16 4.16V33h33v-7.84c0-2.3-1.86-4.16-4.16-4.16z" stroke-dasharray="2.7748994633263635,77.10552022374743" stroke-dashoffset="79.88042"/></g><g fill="#66fcf1" stroke="#66fcf1"><path d="M381 5c4.41 0 8 3.59 8 8s-3.59 8-8 8-8-3.59-8-8 3.59-8 8-8m0-1c-4.97 0-9 4.03-9 9s4.03 9 9 9 9-4.03 9-9-4.03-9-9-9z" stroke-dasharray="2.701399125350226,47.55676387261499" stroke-dashoffset="50.258163"/><path d="M367.99 22c4.15 1.57 8.36 2.37 12.51 2.37 4.16 0 8.37-.8 12.51-2.37 1.66.09 2.99 1.47 2.99 3.15V32h-31v-6.84c0-1.69 1.32-3.07 2.99-3.16m24.85-1c-4.11 1.58-8.23 2.37-12.34 2.37-4.11 0-8.23-.79-12.34-2.37-2.3 0-4.16 1.86-4.16 4.16V33h33v-7.84c0-2.3-1.86-4.16-4.16-4.16z" stroke-dasharray="4.293608898598357,75.58681078847543" stroke-dashoffset="79.88042"/></g><g fill="#66fcf1" stroke="#66fcf1"><path d="M421 5c4.41 0 8 3.59 8 8s-3.59 8-8 8-8-3.59-8-8 3.59-8 8-8m0-1c-4.97 0-9 4.03-9 9s4.03 9 9 9 9-4.03 9-9-4.03-9-9-9z" stroke-dasharray="3.9454170408175493,46.31274595714766" stroke-dashoffset="50.258163"/><path d="M407.99 22c4.15 1.57 8.36 2.37 12.51 2.37 4.16 0 8.37-.8 12.51-2.37 1.66.09 2.99 1.47 2.99 3.15V32h-31v-6.84c0-1.69 1.32-3.07 2.99-3.16m24.85-1c-4.11 1.58-8.23 2.37-12.34 2.37-4.11 0-8.23-.79-12.34-2.37-2.3 0-4.16 1.86-4.16 4.16V33h33v-7.84c0-2.3-1.86-4.16-4.16-4.16z" stroke-dasharray="6.2708533352840305,73.60956635178977" stroke-dashoffset="79.88042"/></g><g fill="#66fcf1" stroke="#66fcf1"><path d="M461 5c4.41 0 8 3.59 8 8s-3.59 8-8 8-8-3.59-8-8 3.59-8 8-8m0-1c-4.97 0-9 4.03-9 9s4.03 9 9 9 9-4.03 9-9-4.03-9-9-9z" stroke-dasharray="5.524628582360376,44.73353441560484" stroke-dashoffset="50.258163"/><path d="M447.99 22c4.15 1.57 8.36 2.37 12.51 2.37 4.16 0 8.37-.8 12.51-2.37 1.66.09 2.99 1.47 2.99 3.15V32h-31v-6.84c0-1.69 1.32-3.07 2.99-3.16m24.85-1c-4.11 1.58-8.23 2.37-12.34 2.37-4.11 0-8.23-.79-12.34-2.37-2.3 0-4.16 1.86-4.16 4.16V33h33v-7.84c0-2.3-1.86-4.16-4.16-4.16z" stroke-dasharray="8.780855157639119,71.09956452943467" stroke-dashoffset="79.88042"/></g><g fill="#66fcf1" stroke="#66fcf1"><path d="M501 5c4.41 0 8 3.59 8 8s-3.59 8-8 8-8-3.59-8-8 3.59-8 8-8m0-1c-4.97 0-9 4.03-9 9s4.03 9 9 9 9-4.03 9-9-4.03-9-9-9z" stroke-dasharray="7.482731322707623,42.77543167525759" stroke-dashoffset="50.258163"/><path d="M487.99 22c4.15 1.57 8.36 2.37 12.51 2.37 4.16 0 8.37-.8 12.51-2.37 1.66.09 2.99 1.47 2.99 3.15V32h-31v-6.84c0-1.69 1.32-3.07 2.99-3.16m24.85-1c-4.11 1.58-8.23 2.37-12.34 2.37-4.11 0-8.23-.79-12.34-2.37-2.3 0-4.16 1.86-4.16 4.16V33h33v-7.84c0-2.3-1.86-4.16-4.16-4.16z" stroke-dasharray="11.8930673707214,67.9873523163524" stroke-dashoffset="79.88042"/></g><g fill="#66fcf1" stroke="#66fcf1"><path d="M541 5c4.41 0 8 3.59 8 8s-3.59 8-8 8-8-3.59-8-8 3.59-8 8-8m0-1c-4.97 0-9 4.03-9 9s4.03 9 9 9 9-4.03 9-9-4.03-9-9-9z" stroke-dasharray="9.845604110157431,40.41255888780778" stroke-dashoffset="50.258163"/><path d="M527.99 22c4.15 1.57 8.36 2.37 12.51 2.37 4.16 0 8.37-.8 12.51-2.37 1.66.09 2.99 1.47 2.99 3.15V32h-31v-6.84c0-1.69 1.32-3.07 2.99-3.16m24.85-1c-4.11 1.58-8.23 2.37-12.34 2.37-4.11 0-8.23-.79-12.34-2.37-2.3 0-4.16 1.86-4.16 4.16V33h33v-7.84c0-2.3-1.86-4.16-4.16-4.16z" stroke-dasharray="15.648621865148474,64.23179782192533" stroke-dashoffset="79.88042"/></g><g fill="#66fcf1" stroke="#66fcf1"><path d="M581 5c4.41 0 8 3.59 8 8s-3.59 8-8 8-8-3.59-8-8 3.59-8 8-8m0-1c-4.97 0-9 4.03-9 9s4.03 9 9 9 9-4.03 9-9-4.03-9-9-9z" stroke-dasharray="12.597496412810296,37.660666585154914" stroke-dashoffset="50.258163"/><path d="M567.99 22c4.15 1.57 8.36 2.37 12.51 2.37 4.16 0 8.37-.8 12.51-2.37 1.66.09 2.99 1.47 2.99 3.15V32h-31v-6.84c0-1.69 1.32-3.07 2.99-3.16m24.85-1c-4.11 1.58-8.23 2.37-12.34 2.37-4.11 0-8.23-.79-12.34-2.37-2.3 0-4.16 1.86-4.16 4.16V33h33v-7.84c0-2.3-1.86-4.16-4.16-4.16z" stroke-dasharray="20.022484715615942,59.85793497145785" stroke-dashoffset="79.88042"/></g><g fill="#66fcf1" stroke="#66fcf1"><path d="M621 5c4.41 0 8 3.59 8 8s-3.59 8-8 8-8-3.59-8-8 3.59-8 8-8m0-1c-4.97 0-9 4.03-9 9s4.03 9 9 9 9-4.03 9-9-4.03-9-9-9z" stroke-dasharray="15.657806358062793,34.60035663990242" stroke-dashoffset="50.258163"/><path d="M607.99 22c4.15 1.57 8.36 2.37 12.51 2.37 4.16 0 8.37-.8 12.51-2.37 1.66.09 2.99 1.47 2.99 3.15V32h-31v-6.84c0-1.69 1.32-3.07 2.99-3.16m24.85-1c-4.11 1.58-8.23 2.37-12.34 2.37-4.11 0-8.23-.79-12.34-2.37-2.3 0-4.16 1.86-4.16 4.16V33h33v-7.84c0-2.3-1.86-4.16-4.16-4.16z" stroke-dasharray="24.886547152780476,54.993872534293324" stroke-dashoffset="79.88042"/></g><g fill="#66fcf1" stroke="#66fcf1"><path d="M661 5c4.41 0 8 3.59 8 8s-3.59 8-8 8-8-3.59-8-8 3.59-8 8-8m0-1c-4.97 0-9 4.03-9 9s4.03 9 9 9 9-4.03 9-9-4.03-9-9-9z" stroke-dasharray="18.881967667586103,31.37619533037911" stroke-dashoffset="50.258163"/><path d="M647.99 22c4.15 1.57 8.36 2.37 12.51 2.37 4.16 0 8.37-.8 12.51-2.37 1.66.09 2.99 1.47 2.99 3.15V32h-31v-6.84c0-1.69 1.32-3.07 2.99-3.16m24.85-1c-4.11 1.58-8.23 2.37-12.34 2.37-4.11 0-8.23-.79-12.34-2.37-2.3 0-4.16 1.86-4.16 4.16V33h33v-7.84c0-2.3-1.86-4.16-4.16-4.16z" stroke-dasharray="30.011035259398597,49.8693844276752" stroke-dashoffset="79.88042"/></g><g fill="#66fcf1" stroke="#66fcf1"><path d="M701 5c4.41 0 8 3.59 8 8s-3.59 8-8 8-8-3.59-8-8 3.59-8 8-8m0-1c-4.97 0-9 4.03-9 9s4.03 9 9 9 9-4.03 9-9-4.03-9-9-9z" stroke-dasharray="22.100796300618285,28.15736669734693" stroke-dashoffset="50.258163"/><path d="M687.99 22c4.15 1.57 8.36 2.37 12.51 2.37 4.16 0 8.37-.8 12.51-2.37 1.66.09 2.99 1.47 2.99 3.15V32h-31v-6.84c0-1.69 1.32-3.07 2.99-3.16m24.85-1c-4.11 1.58-8.23 2.37-12.34 2.37-4.11 0-8.23-.79-12.34-2.37-2.3 0-4.16 1.86-4.16 4.16V33h33v-7.84c0-2.3-1.86-4.16-4.16-4.16z" stroke-dasharray="35.12704759987731,44.75337208719649" stroke-dashoffset="79.88042"/></g><g fill="#66fcf1" stroke="#66fcf1"><path d="M741 5c4.41 0 8 3.59 8 8s-3.59 8-8 8-8-3.59-8-8 3.59-8 8-8m0-1c-4.97 0-9 4.03-9 9s4.03 9 9 9 9-4.03 9-9-4.03-9-9-9z" stroke-dasharray="25.173610244203665,25.08455275376155" stroke-dashoffset="50.258163"/><path d="M727.99 22c4.15 1.57 8.36 2.37 12.51 2.37 4.16 0 8.37-.8 12.51-2.37 1.66.09 2.99 1.47 2.99 3.15V32h-31v-6.84c0-1.69 1.32-3.07 2.99-3.16m24.85-1c-4.11 1.58-8.23 2.37-12.34 2.37-4.11 0-8.23-.79-12.34-2.37-2.3 0-4.16 1.86-4.16 4.16V33h33v-7.84c0-2.3-1.86-4.16-4.16-4.16z" stroke-dasharray="40.010983915731714,39.86943577134208" stroke-dashoffset="79.88042"/></g><g fill="#66fcf1" stroke="#66fcf1"><path d="M781 5c4.41 0 8 3.59 8 8s-3.59 8-8 8-8-3.59-8-8 3.59-8 8-8m0-1c-4.97 0-9 4.03-9 9s4.03 9 9 9 9-4.03 9-9-4.03-9-9-9z" stroke-dasharray="28.01595825783356,22.242204740131655" stroke-dashoffset="50.258163"/><path d="M767.99 22c4.15 1.57 8.36 2.37 12.51 2.37 4.16 0 8.37-.8 12.51-2.37 1.66.09 2.99 1.47 2.99 3.15V32h-31v-6.84c0-1.69 1.32-3.07 2.99-3.16m24.85-1c-4.11 1.58-8.23 2.37-12.34 2.37-4.11 0-8.23-.79-12.34-2.37-2.3 0-4.16 1.86-4.16 4.16V33h33v-7.84c0-2.3-1.86-4.16-4.16-4.16z" stroke-dasharray="44.528617244961616,35.35180244211218" stroke-dashoffset="79.88042"/></g><g fill="#66fcf1" stroke="#66fcf1"><path d="M821 5c4.41 0 8 3.59 8 8s-3.59 8-8 8-8-3.59-8-8 3.59-8 8-8m0-1c-4.97 0-9 4.03-9 9s4.03 9 9 9 9-4.03 9-9-4.03-9-9-9z" stroke-dasharray="30.594913997649645,19.66324900031557" stroke-dashoffset="50.258163"/><path d="M807.99 22c4.15 1.57 8.36 2.37 12.51 2.37 4.16 0 8.37-.8 12.51-2.37 1.66.09 2.99 1.47 2.99 3.15V32h-31v-6.84c0-1.69 1.32-3.07 2.99-3.16m24.85-1c-4.11 1.58-8.23 2.37-12.34 2.37-4.11 0-8.23-.79-12.34-2.37-2.3 0-4.16 1.86-4.16 4.16V33h33v-7.84c0-2.3-1.86-4.16-4.16-4.16z" stroke-dasharray="48.62761439412597,31.25280529294783" stroke-dashoffset="79.88042"/></g><g fill="#66fcf1" stroke="#66fcf1"><path d="M861 5c4.41 0 8 3.59 8 8s-3.59 8-8 8-8-3.59-8-8 3.59-8 8-8m0-1c-4.97 0-9 4.03-9 9s4.03 9 9 9 9-4.03 9-9-4.03-9-9-9z" stroke-dasharray="32.91073997663152,17.3474230213337" stroke-dashoffset="50.258163"/><path d="M847.99 22c4.15 1.57 8.36 2.37 12.51 2.37 4.16 0 8.37-.8 12.51-2.37 1.66.09 2.99 1.47 2.99 3.15V32h-31v-6.84c0-1.69 1.32-3.07 2.99-3.16m24.85-1c-4.11 1.58-8.23 2.37-12.34 2.37-4.11 0-8.23-.79-12.34-2.37-2.3 0-4.16 1.86-4.16 4.16V33h33v-7.84c0-2.3-1.86-4.16-4.16-4.16z" stroke-dasharray="52.30839260185294,27.572027085220856" stroke-dashoffset="79.88042"/></g><g fill="#66fcf1" stroke="#66fcf1"><path d="M901 5c4.41 0 8 3.59 8 8s-3.59 8-8 8-8-3.59-8-8 3.59-8 8-8m0-1c-4.97 0-9 4.03-9 9s4.03 9 9 9 9-4.03 9-9-4.03-9-9-9z" stroke-dasharray="34.980351278404825,15.277811719560386" stroke-dashoffset="50.258163"/><path d="M887.99 22c4.15 1.57 8.36 2.37 12.51 2.37 4.16 0 8.37-.8 12.51-2.37 1.66.09 2.99 1.47 2.99 3.15V32h-31v-6.84c0-1.69 1.32-3.07 2.99-3.16m24.85-1c-4.11 1.58-8.23 2.37-12.34 2.37-4.11 0-8.23-.79-12.34-2.37-2.3 0-4.16 1.86-4.16 4.16V33h33v-7.84c0-2.3-1.86-4.16-4.16-4.16z" stroke-dasharray="55.59783673417144,24.28258295290236" stroke-dashoffset="79.88042"/></g><g fill="#66fcf1" stroke="#66fcf1"><path d="M941 5c4.41 0 8 3.59 8 8s-3.59 8-8 8-8-3.59-8-8 3.59-8 8-8m0-1c-4.97 0-9 4.03-9 9s4.03 9 9 9 9-4.03 9-9-4.03-9-9-9z" stroke-dasharray="36.82690774933428,13.431255248630936" stroke-dashoffset="50.258163"/><path d="M927.99 22c4.15 1.57 8.36 2.37 12.51 2.37 4.16 0 8.37-.8 12.51-2.37 1.66.09 2.99 1.47 2.99 3.15V32h-31v-6.84c0-1.69 1.32-3.07 2.99-3.16m24.85-1c-4.11 1.58-8.23 2.37-12.34 2.37-4.11 0-8.23-.79-12.34-2.37-2.3 0-4.16 1.86-4.16 4.16V33h33v-7.84c0-2.3-1.86-4.16-4.16-4.16z" stroke-dasharray="58.532757094863854,21.347662592209943" stroke-dashoffset="79.88042"/></g><g fill="#66fcf1" stroke="#66fcf1"><path d="M981 5c4.41 0 8 3.59 8 8s-3.59 8-8 8-8-3.59-8-8 3.59-8 8-8m0-1c-4.97 0-9 4.03-9 9s4.03 9 9 9 9-4.03 9-9-4.03-9-9-9z" stroke-dasharray="38.47440691804489,11.783756079920321" stroke-dashoffset="50.258163"/><path d="M967.99 22c4.15 1.57 8.36 2.37 12.51 2.37 4.16 0 8.37-.8 12.51-2.37 1.66.09 2.99 1.47 2.99 3.15V32h-31v-6.84c0-1.69 1.32-3.07 2.99-3.16m24.85-1c-4.11 1.58-8.23 2.37-12.34 2.37-4.11 0-8.23-.79-12.34-2.37-2.3 0-4.16 1.86-4.16 4.16V33h33v-7.84c0-2.3-1.86-4.16-4.16-4.16z" stroke-dasharray="61.151295401487545,18.729124285586256" stroke-dashoffset="79.88042"/></g><g fill="#66fcf1" stroke="#66fcf1"><path d="M1021 5c4.41 0 8 3.59 8 8s-3.59 8-8 8-8-3.59-8-8 3.59-8 8-8m0-1c-4.97 0-9 4.03-9 9s4.03 9 9 9 9-4.03 9-9-4.03-9-9-9z" stroke-dasharray="39.945273540918215,10.312889457047" stroke-dashoffset="50.258163"/><path d="M1007.99 22c4.15 1.57 8.36 2.37 12.51 2.37 4.16 0 8.37-.8 12.51-2.37 1.66.09 2.99 1.47 2.99 3.15V32h-31v-6.84c0-1.69 1.32-3.07 2.99-3.16m24.85-1c-4.11 1.58-8.23 2.37-12.34 2.37-4.11 0-8.23-.79-12.34-2.37-2.3 0-4.16 1.86-4.16 4.16V33h33v-7.84c0-2.3-1.86-4.16-4.16-4.16z" stroke-dasharray="63.48909360441006,16.391326082663742" stroke-dashoffset="79.88042"/></g><g fill="#66fcf1" stroke="#66fcf1"><path d="M1061 5c4.41 0 8 3.59 8 8s-3.59 8-8 8-8-3.59-8-8 3.59-8 8-8m0-1c-4.97 0-9 4.03-9 9s4.03 9 9 9 9-4.03 9-9-4.03-9-9-9z" stroke-dasharray="41.25950100882408,8.998661989141135" stroke-dashoffset="50.258163"/><path d="M1047.99 22c4.15 1.57 8.36 2.37 12.51 2.37 4.16 0 8.37-.8 12.51-2.37 1.66.09 2.99 1.47 2.99 3.15V32h-31v-6.84c0-1.69 1.32-3.07 2.99-3.16m24.85-1c-4.11 1.58-8.23 2.37-12.34 2.37-4.11 0-8.23-.79-12.34-2.37-2.3 0-4.16 1.86-4.16 4.16V33h33v-7.84c0-2.3-1.86-4.16-4.16-4.16z" stroke-dasharray="65.57792923703855,14.302490450035245" stroke-dashoffset="79.88042"/></g><g fill="#66fcf1" stroke="#66fcf1"><path d="M1101 5c4.41 0 8 3.59 8 8s-3.59 8-8 8-8-3.59-8-8 3.59-8 8-8m0-1c-4.97 0-9 4.03-9 9s4.03 9 9 9 9-4.03 9-9-4.03-9-9-9z" stroke-dasharray="42.43452151969592,7.823641478269291" stroke-dashoffset="50.258163"/><path d="M1087.99 22c4.15 1.57 8.36 2.37 12.51 2.37 4.16 0 8.37-.8 12.51-2.37 1.66.09 2.99 1.47 2.99 3.15V32h-31v-6.84c0-1.69 1.32-3.07 2.99-3.16m24.85-1c-4.11 1.58-8.23 2.37-12.34 2.37-4.11 0-8.23-.79-12.34-2.37-2.3 0-4.16 1.86-4.16 4.16V33h33v-7.84c0-2.3-1.86-4.16-4.16-4.16z" stroke-dasharray="67.44550906786449,12.434910619209298" stroke-dashoffset="79.88042"/></g><g fill="#66fcf1" stroke="#66fcf1"><path d="M1141 5c4.41 0 8 3.59 8 8s-3.59 8-8 8-8-3.59-8-8 3.59-8 8-8m0-1c-4.97 0-9 4.03-9 9s4.03 9 9 9 9-4.03 9-9-4.03-9-9-9z" stroke-dasharray="43.48538377031737,6.7727792276478445" stroke-dashoffset="50.258163"/><path d="M1127.99 22c4.15 1.57 8.36 2.37 12.51 2.37 4.16 0 8.37-.8 12.51-2.37 1.66.09 2.99 1.47 2.99 3.15V32h-31v-6.84c0-1.69 1.32-3.07 2.99-3.16m24.85-1c-4.11 1.58-8.23 2.37-12.34 2.37-4.11 0-8.23-.79-12.34-2.37-2.3 0-4.16 1.86-4.16 4.16V33h33v-7.84c0-2.3-1.86-4.16-4.16-4.16z" stroke-dasharray="69.11575152412664,10.764668162947164" stroke-dashoffset="79.88042"/></g><g fill="#66fcf1" stroke="#66fcf1"><path d="M1181 5c4.41 0 8 3.59 8 8s-3.59 8-8 8-8-3.59-8-8 3.59-8 8-8m0-1c-4.97 0-9 4.03-9 9s4.03 9 9 9 9-4.03 9-9-4.03-9-9-9z" stroke-dasharray="44.425036255735755,5.833126742229459" stroke-dashoffset="50.258163"/><path d="M1167.99 22c4.15 1.57 8.36 2.37 12.51 2.37 4.16 0 8.37-.8 12.51-2.37 1.66.09 2.99 1.47 2.99 3.15V32h-31v-6.84c0-1.69 1.32-3.07 2.99-3.16m24.85-1c-4.11 1.58-8.23 2.37-12.34 2.37-4.11 0-8.23-.79-12.34-2.37-2.3 0-4.16 1.86-4.16 4.16V33h33v-7.84c0-2.3-1.86-4.16-4.16-4.16z" stroke-dasharray="70.60923696843668,9.271182718637123" stroke-dashoffset="79.88042"/></g><g fill="#66fcf1" stroke="#66fcf1"><path d="M1221 5c4.41 0 8 3.59 8 8s-3.59 8-8 8-8-3.59-8-8 3.59-8 8-8m0-1c-4.97 0-9 4.03-9 9s4.03 9 9 9 9-4.03 9-9-4.03-9-9-9z" stroke-dasharray="45.26462514314802,4.9935378548172" stroke-dashoffset="50.258163"/><path d="M1207.99 22c4.15 1.57 8.36 2.37 12.51 2.37 4.16 0 8.37-.8 12.51-2.37 1.66.09 2.99 1.47 2.99 3.15V32h-31v-6.84c0-1.69 1.32-3.07 2.99-3.16m24.85-1c-4.11 1.58-8.23 2.37-12.34 2.37-4.11 0-8.23-.79-12.34-2.37-2.3 0-4.16 1.86-4.16 4.16V33h33v-7.84c0-2.3-1.86-4.16-4.16-4.16z" stroke-dasharray="71.9436811400991,7.9367385469747" stroke-dashoffset="79.88042"/></g><g fill="#66fcf1" stroke="#66fcf1"><path d="M1261 5c4.41 0 8 3.59 8 8s-3.59 8-8 8-8-3.59-8-8 3.59-8 8-8m0-1c-4.97 0-9 4.03-9 9s4.03 9 9 9 9-4.03 9-9-4.03-9-9-9z" stroke-dasharray="46.0137693175927,4.24439368037252" stroke-dashoffset="50.258163"/><path d="M1247.99 22c4.15 1.57 8.36 2.37 12.51 2.37 4.16 0 8.37-.8 12.51-2.37 1.66.09 2.99 1.47 2.99 3.15V32h-31v-6.84c0-1.69 1.32-3.07 2.99-3.16m24.85-1c-4.11 1.58-8.23 2.37-12.34 2.37-4.11 0-8.23-.79-12.34-2.37-2.3 0-4.16 1.86-4.16 4.16V33h33v-7.84c0-2.3-1.86-4.16-4.16-4.16z" stroke-dasharray="73.1343723132562,6.7460473738176105" stroke-dashoffset="79.88042"/></g><g fill="#66fcf1" stroke="#66fcf1"><path d="M1301 5c4.41 0 8 3.59 8 8s-3.59 8-8 8-8-3.59-8-8 3.59-8 8-8m0-1c-4.97 0-9 4.03-9 9s4.03 9 9 9 9-4.03 9-9-4.03-9-9-9z" stroke-dasharray="46.68080019003676,3.577362807928453" stroke-dashoffset="50.258163"/><path d="M1287.99 22c4.15 1.57 8.36 2.37 12.51 2.37 4.16 0 8.37-.8 12.51-2.37 1.66.09 2.99 1.47 2.99 3.15V32h-31v-6.84c0-1.69 1.32-3.07 2.99-3.16m24.85-1c-4.11 1.58-8.23 2.37-12.34 2.37-4.11 0-8.23-.79-12.34-2.37-2.3 0-4.16 1.86-4.16 4.16V33h33v-7.84c0-2.3-1.86-4.16-4.16-4.16z" stroke-dasharray="74.19455244831651,5.685867238757276" stroke-dashoffset="79.88042"/></g><g fill="#66fcf1" stroke="#66fcf1"><path d="M1341 5c4.41 0 8 3.59 8 8s-3.59 8-8 8-8-3.59-8-8 3.59-8 8-8m0-1c-4.97 0-9 4.03-9 9s4.03 9 9 9 9-4.03 9-9-4.03-9-9-9z" stroke-dasharray="47.27296494005424,2.9851980579109774" stroke-dashoffset="50.258163"/><path d="M1327.99 22c4.15 1.57 8.36 2.37 12.51 2.37 4.16 0 8.37-.8 12.51-2.37 1.66.09 2.99 1.47 2.99 3.15V32h-31v-6.84c0-1.69 1.32-3.07 2.99-3.16m24.85-1c-4.11 1.58-8.23 2.37-12.34 2.37-4.11 0-8.23-.79-12.34-2.37-2.3 0-4.16 1.86-4.16 4.16V33h33v-7.84c0-2.3-1.86-4.16-4.16-4.16z" stroke-dasharray="75.13574022625426,4.744679460819547" stroke-dashoffset="79.88042"/></g><g fill="#66fcf1" stroke="#66fcf1"><path d="M1381 5c4.41 0 8 3.59 8 8s-3.59 8-8 8-8-3.59-8-8 3.59-8 8-8m0-1c-4.97 0-9 4.03-9 9s4.03 9 9 9 9-4.03 9-9-4.03-9-9-9z" stroke-dasharray="47.79659634022766,2.4615666577375594" stroke-dashoffset="50.258163"/><path d="M1367.99 22c4.15 1.57 8.36 2.37 12.51 2.37 4.16 0 8.37-.8 12.51-2.37 1.66.09 2.99 1.47 2.99 3.15V32h-31v-6.84c0-1.69 1.32-3.07 2.99-3.16m24.85-1c-4.11 1.58-8.23 2.37-12.34 2.37-4.11 0-8.23-.79-12.34-2.37-2.3 0-4.16 1.86-4.16 4.16V33h33v-7.84c0-2.3-1.86-4.16-4.16-4.16z" stroke-dasharray="75.9680009678352,3.9124187192385986" stroke-dashoffset="79.88042"/></g><g fill="#66fcf1" stroke="#66fcf1"><path d="M1421 5c4.41 0 8 3.59 8 8s-3.59 8-8 8-8-3.59-8-8 3.59-8 8-8m0-1c-4.97 0-9 4.03-9 9s4.03 9 9 9 9-4.03 9-9-4.03-9-9-9z" stroke-dasharray="48.257253734216114,2.0009092637490986" stroke-dashoffset="50.258163"/><path d="M1407.99 22c4.15 1.57 8.36 2.37 12.51 2.37 4.16 0 8.37-.8 12.51-2.37 1.66.09 2.99 1.47 2.99 3.15V32h-31v-6.84c0-1.69 1.32-3.07 2.99-3.16m24.85-1c-4.11 1.58-8.23 2.37-12.34 2.37-4.11 0-8.23-.79-12.34-2.37-2.3 0-4.16 1.86-4.16 4.16V33h33v-7.84c0-2.3-1.86-4.16-4.16-4.16z" stroke-dasharray="76.70017070442589,3.1802489826479126" stroke-dashoffset="79.88042"/></g><g fill="#66fcf1" stroke="#66fcf1"><path d="M1461 5c4.41 0 8 3.59 8 8s-3.59 8-8 8-8-3.59-8-8 3.59-8 8-8m0-1c-4.97 0-9 4.03-9 9s4.03 9 9 9 9-4.03 9-9-4.03-9-9-9z" stroke-dasharray="48.6598398240468,1.598323173918417" stroke-dashoffset="50.258163"/><path d="M1447.99 22c4.15 1.57 8.36 2.37 12.51 2.37 4.16 0 8.37-.8 12.51-2.37 1.66.09 2.99 1.47 2.99 3.15V32h-31v-6.84c0-1.69 1.32-3.07 2.99-3.16m24.85-1c-4.11 1.58-8.23 2.37-12.34 2.37-4.11 0-8.23-.79-12.34-2.37-2.3 0-4.16 1.86-4.16 4.16V33h33v-7.84c0-2.3-1.86-4.16-4.16-4.16z" stroke-dasharray="77.34004179993637,2.540377887137421" stroke-dashoffset="79.88042"/></g><g fill="#66fcf1" stroke="#66fcf1"><path d="M1501 5c4.41 0 8 3.59 8 8s-3.59 8-8 8-8-3.59-8-8 3.59-8 8-8m0-1c-4.97 0-9 4.03-9 9s4.03 9 9 9 9-4.03 9-9-4.03-9-9-9z" stroke-dasharray="49.0086974728567,1.2494655251085114" stroke-dashoffset="50.258163"/><path d="M1487.99 22c4.15 1.57 8.36 2.37 12.51 2.37 4.16 0 8.37-.8 12.51-2.37 1.66.09 2.99 1.47 2.99 3.15V32h-31v-6.84c0-1.69 1.32-3.07 2.99-3.16m24.85-1c-4.11 1.58-8.23 2.37-12.34 2.37-4.11 0-8.23-.79-12.34-2.37-2.3 0-4.16 1.86-4.16 4.16V33h33v-7.84c0-2.3-1.86-4.16-4.16-4.16z" stroke-dasharray="77.89451680928181,1.985902877791988" stroke-dashoffset="79.88042"/></g><g fill="#66fcf1" stroke="#66fcf1"><path d="M1541 5c4.41 0 8 3.59 8 8s-3.59 8-8 8-8-3.59-8-8 3.59-8 8-8m0-1c-4.97 0-9 4.03-9 9s4.03 9 9 9 9-4.03 9-9-4.03-9-9-9z" stroke-dasharray="49.30769011916229,0.9504728788029289" stroke-dashoffset="50.258163"/><path d="M1527.99 22c4.15 1.57 8.36 2.37 12.51 2.37 4.16 0 8.37-.8 12.51-2.37 1.66.09 2.99 1.47 2.99 3.15V32h-31v-6.84c0-1.69 1.32-3.07 2.99-3.16m24.85-1c-4.11 1.58-8.23 2.37-12.34 2.37-4.11 0-8.23-.79-12.34-2.37-2.3 0-4.16 1.86-4.16 4.16V33h33v-7.84c0-2.3-1.86-4.16-4.16-4.16z" stroke-dasharray="78.3697362889752,1.5106833980985954" stroke-dashoffset="79.88042"/></g><g fill="#66fcf1" stroke="#66fcf1"><path d="M1581 5c4.41 0 8 3.59 8 8s-3.59 8-8 8-8-3.59-8-8 3.59-8 8-8m0-1c-4.97 0-9 4.03-9 9s4.03 9 9 9 9-4.03 9-9-4.03-9-9-9z" stroke-dasharray="49.56026879037982,0.6978942075853943" stroke-dashoffset="50.258163"/><path d="M1567.99 22c4.15 1.57 8.36 2.37 12.51 2.37 4.16 0 8.37-.8 12.51-2.37 1.66.09 2.99 1.47 2.99 3.15V32h-31v-6.84c0-1.69 1.32-3.07 2.99-3.16m24.85-1c-4.11 1.58-8.23 2.37-12.34 2.37-4.11 0-8.23-.79-12.34-2.37-2.3 0-4.16 1.86-4.16 4.16V33h33v-7.84c0-2.3-1.86-4.16-4.16-4.16z" stroke-dasharray="78.77118530854396,1.109234378529835" stroke-dashoffset="79.88042"/></g><g fill="#66fcf1" stroke="#66fcf1"><path d="M1621 5c4.41 0 8 3.59 8 8s-3.59 8-8 8-8-3.59-8-8 3.59-8 8-8m0-1c-4.97 0-9 4.03-9 9s4.03 9 9 9 9-4.03 9-9-4.03-9-9-9z" fill-opacity=".003469" stroke-dasharray="49.76952816018524,0.4886348377799784" stroke-dashoffset="50.258163"/><path d="M1607.99 22c4.15 1.57 8.36 2.37 12.51 2.37 4.16 0 8.37-.8 12.51-2.37 1.66.09 2.99 1.47 2.99 3.15V32h-31v-6.84c0-1.69 1.32-3.07 2.99-3.16m24.85-1c-4.11 1.58-8.23 2.37-12.34 2.37-4.11 0-8.23-.79-12.34-2.37-2.3 0-4.16 1.86-4.16 4.16V33h33v-7.84c0-2.3-1.86-4.16-4.16-4.16z" fill-opacity=".001624" stroke-dasharray="79.10378254820404,0.776637138869763" stroke-dashoffset="79.88042"/></g><g fill="#66fcf1" stroke="#66fcf1"><path d="M1661 5c4.41 0 8 3.59 8 8s-3.59 8-8 8-8-3.59-8-8 3.59-8 8-8m0-1c-4.97 0-9 4.03-9 9s4.03 9 9 9 9-4.03 9-9-4.03-9-9-9z" fill-opacity=".02087" stroke-dasharray="49.93825363419628,0.31990936376893625" stroke-dashoffset="50.258163"/><path d="M1647.99 22c4.15 1.57 8.36 2.37 12.51 2.37 4.16 0 8.37-.8 12.51-2.37 1.66.09 2.99 1.47 2.99 3.15V32h-31v-6.84c0-1.69 1.32-3.07 2.99-3.16m24.85-1c-4.11 1.58-8.23 2.37-12.34 2.37-4.11 0-8.23-.79-12.34-2.37-2.3 0-4.16 1.86-4.16 4.16V33h33v-7.84c0-2.3-1.86-4.16-4.16-4.16z" fill-opacity=".015542" stroke-dasharray="79.37195513693251,0.5084645501412776" stroke-dashoffset="79.88042"/></g><g fill="#66fcf1" stroke="#66fcf1"><path d="M1701 5c4.41 0 8 3.59 8 8s-3.59 8-8 8-8-3.59-8-8 3.59-8 8-8m0-1c-4.97 0-9 4.03-9 9s4.03 9 9 9 9-4.03 9-9-4.03-9-9-9z" fill-opacity=".058308" stroke-dasharray="50.06896106939057,0.1892019285746446" stroke-dashoffset="50.258163"/><path d="M1687.99 22c4.15 1.57 8.36 2.37 12.51 2.37 4.16 0 8.37-.8 12.51-2.37 1.66.09 2.99 1.47 2.99 3.15V32h-31v-6.84c0-1.69 1.32-3.07 2.99-3.16m24.85-1c-4.11 1.58-8.23 2.37-12.34 2.37-4.11 0-8.23-.79-12.34-2.37-2.3 0-4.16 1.86-4.16 4.16V33h33v-7.84c0-2.3-1.86-4.16-4.16-4.16z" fill-opacity=".04848" stroke-dasharray="79.57970178258616,0.30071790448764046" stroke-dashoffset="79.88042"/></g><g fill="#66fcf1" stroke="#66fcf1"><path d="M1741 5c4.41 0 8 3.59 8 8s-3.59 8-8 8-8-3.59-8-8 3.59-8 8-8m0-1c-4.97 0-9 4.03-9 9s4.03 9 9 9 9-4.03 9-9-4.03-9-9-9z" fill-opacity=".124061" stroke-dasharray="50.163930425103466,0.09423257286175095" stroke-dashoffset="50.258163"/><path d="M1727.99 22c4.15 1.57 8.36 2.37 12.51 2.37 4.16 0 8.37-.8 12.51-2.37 1.66.09 2.99 1.47 2.99 3.15V32h-31v-6.84c0-1.69 1.32-3.07 2.99-3.16m24.85-1c-4.11 1.58-8.23 2.37-12.34 2.37-4.11 0-8.23-.79-12.34-2.37-2.3 0-4.16 1.86-4.16 4.16V33h33v-7.84c0-2.3-1.86-4.16-4.16-4.16z" fill-opacity=".108505" stroke-dasharray="79.73064625686119,0.14977343021260414" stroke-dashoffset="79.88042"/></g><g fill="#66fcf1" stroke="#66fcf1"><path d="M1781 5c4.41 0 8 3.59 8 8s-3.59 8-8 8-8-3.59-8-8 3.59-8 8-8m0-1c-4.97 0-9 4.03-9 9s4.03 9 9 9 9-4.03 9-9-4.03-9-9-9z" fill-opacity=".226203" stroke-dasharray="50.225234395920765,0.032928602044451596" stroke-dashoffset="50.258163"/><path d="M1767.99 22c4.15 1.57 8.36 2.37 12.51 2.37 4.16 0 8.37-.8 12.51-2.37 1.66.09 2.99 1.47 2.99 3.15V32h-31v-6.84c0-1.69 1.32-3.07 2.99-3.16m24.85-1c-4.11 1.58-8.23 2.37-12.34 2.37-4.11 0-8.23-.79-12.34-2.37-2.3 0-4.16 1.86-4.16 4.16V33h33v-7.84c0-2.3-1.86-4.16-4.16-4.16z" fill-opacity=".204655" stroke-dasharray="79.82808290446744,0.05233678260635837" stroke-dashoffset="79.88042"/></g><g fill="#66fcf1" stroke="#66fcf1"><path d="M1821 5c4.41 0 8 3.59 8 8s-3.59 8-8 8-8-3.59-8-8 3.59-8 8-8m0-1c-4.97 0-9 4.03-9 9s4.03 9 9 9 9-4.03 9-9-4.03-9-9-9z" fill-opacity=".35968" stroke-dasharray="50.254762878342426,0.0034001196227924856" stroke-dashoffset="50.258163"/><path d="M1807.99 22c4.15 1.57 8.36 2.37 12.51 2.37 4.16 0 8.37-.8 12.51-2.37 1.66.09 2.99 1.47 2.99 3.15V32h-31v-6.84c0-1.69 1.32-3.07 2.99-3.16m24.85-1c-4.11 1.58-8.23 2.37-12.34 2.37-4.11 0-8.23-.79-12.34-2.37-2.3 0-4.16 1.86-4.16 4.16V33h33v-7.84c0-2.3-1.86-4.16-4.16-4.16z" fill-opacity=".335685" stroke-dasharray="79.87501553049,0.005404156583795454" stroke-dashoffset="79.88042"/></g><g fill="#66fcf1" stroke="#66fcf1"><path d="M1861 5c4.41 0 8 3.59 8 8s-3.59 8-8 8-8-3.59-8-8 3.59-8 8-8m0-1c-4.97 0-9 4.03-9 9s4.03 9 9 9 9-4.03 9-9-4.03-9-9-9z" fill-opacity=".497027"/><path d="M1847.99 22c4.15 1.57 8.36 2.37 12.51 2.37 4.16 0 8.37-.8 12.51-2.37 1.66.09 2.99 1.47 2.99 3.15V32h-31v-6.84c0-1.69 1.32-3.07 2.99-3.16m24.85-1c-4.11 1.58-8.23 2.37-12.34 2.37-4.11 0-8.23-.79-12.34-2.37-2.3 0-4.16 1.86-4.16 4.16V33h33v-7.84c0-2.3-1.86-4.16-4.16-4.16z" fill-opacity=".476268"/></g><g fill="#66fcf1" stroke="#66fcf1"><path d="M1901 5c4.41 0 8 3.59 8 8s-3.59 8-8 8-8-3.59-8-8 3.59-8 8-8m0-1c-4.97 0-9 4.03-9 9s4.03 9 9 9 9-4.03 9-9-4.03-9-9-9z" fill-opacity=".614434"/><path d="M1887.99 22c4.15 1.57 8.36 2.37 12.51 2.37 4.16 0 8.37-.8 12.51-2.37 1.66.09 2.99 1.47 2.99 3.15V32h-31v-6.84c0-1.69 1.32-3.07 2.99-3.16m24.85-1c-4.11 1.58-8.23 2.37-12.34 2.37-4.11 0-8.23-.79-12.34-2.37-2.3 0-4.16 1.86-4.16 4.16V33h33v-7.84c0-2.3-1.86-4.16-4.16-4.16z" fill-opacity=".59889"/></g><g fill="#66fcf1" stroke="#66fcf1"><path d="M1941 5c4.41 0 8 3.59 8 8s-3.59 8-8 8-8-3.59-8-8 3.59-8 8-8m0-1c-4.97 0-9 4.03-9 9s4.03 9 9 9 9-4.03 9-9-4.03-9-9-9z" fill-opacity=".707484"/><path d="M1927.99 22c4.15 1.57 8.36 2.37 12.51 2.37 4.16 0 8.37-.8 12.51-2.37 1.66.09 2.99 1.47 2.99 3.15V32h-31v-6.84c0-1.69 1.32-3.07 2.99-3.16m24.85-1c-4.11 1.58-8.23 2.37-12.34 2.37-4.11 0-8.23-.79-12.34-2.37-2.3 0-4.16 1.86-4.16 4.16V33h33v-7.84c0-2.3-1.86-4.16-4.16-4.16z" fill-opacity=".696381"/></g><g fill="#66fcf1" stroke="#66fcf1"><path d="M1981 5c4.41 0 8 3.59 8 8s-3.59 8-8 8-8-3.59-8-8 3.59-8 8-8m0-1c-4.97 0-9 4.03-9 9s4.03 9 9 9 9-4.03 9-9-4.03-9-9-9z" fill-opacity=".780078"/><path d="M1967.99 22c4.15 1.57 8.36 2.37 12.51 2.37 4.16 0 8.37-.8 12.51-2.37 1.66.09 2.99 1.47 2.99 3.15V32h-31v-6.84c0-1.69 1.32-3.07 2.99-3.16m24.85-1c-4.11 1.58-8.23 2.37-12.34 2.37-4.11 0-8.23-.79-12.34-2.37-2.3 0-4.16 1.86-4.16 4.16V33h33v-7.84c0-2.3-1.86-4.16-4.16-4.16z" fill-opacity=".772246"/></g><g fill="#66fcf1" stroke="#66fcf1"><path d="M2021 5c4.41 0 8 3.59 8 8s-3.59 8-8 8-8-3.59-8-8 3.59-8 8-8m0-1c-4.97 0-9 4.03-9 9s4.03 9 9 9 9-4.03 9-9-4.03-9-9-9z" fill-opacity=".836798"/><path d="M2007.99 22c4.15 1.57 8.36 2.37 12.51 2.37 4.16 0 8.37-.8 12.51-2.37 1.66.09 2.99 1.47 2.99 3.15V32h-31v-6.84c0-1.69 1.32-3.07 2.99-3.16m24.85-1c-4.11 1.58-8.23 2.37-12.34 2.37-4.11 0-8.23-.79-12.34-2.37-2.3 0-4.16 1.86-4.16 4.16V33h33v-7.84c0-2.3-1.86-4.16-4.16-4.16z" fill-opacity=".831314"/></g><g fill="#66fcf1" stroke="#66fcf1"><path d="M2061 5c4.41 0 8 3.59 8 8s-3.59 8-8 8-8-3.59-8-8 3.59-8 8-8m0-1c-4.97 0-9 4.03-9 9s4.03 9 9 9 9-4.03 9-9-4.03-9-9-9z" fill-opacity=".88123"/><path d="M2047.99 22c4.15 1.57 8.36 2.37 12.51 2.37 4.16 0 8.37-.8 12.51-2.37 1.66.09 2.99 1.47 2.99 3.15V32h-31v-6.84c0-1.69 1.32-3.07 2.99-3.16m24.85-1c-4.11 1.58-8.23 2.37-12.34 2.37-4.11 0-8.23-.79-12.34-2.37-2.3 0-4.16 1.86-4.16 4.16V33h33v-7.84c0-2.3-1.86-4.16-4.16-4.16z" fill-opacity=".877438"/></g><g fill="#66fcf1" stroke="#66fcf1"><path d="M2101 5c4.41 0 8 3.59 8 8s-3.59 8-8 8-8-3.59-8-8 3.59-8 8-8m0-1c-4.97 0-9 4.03-9 9s4.03 9 9 9 9-4.03 9-9-4.03-9-9-9z" fill-opacity=".91598"/><path d="M2087.99 22c4.15 1.57 8.36 2.37 12.51 2.37 4.16 0 8.37-.8 12.51-2.37 1.66.09 2.99 1.47 2.99 3.15V32h-31v-6.84c0-1.69 1.32-3.07 2.99-3.16m24.85-1c-4.11 1.58-8.23 2.37-12.34 2.37-4.11 0-8.23-.79-12.34-2.37-2.3 0-4.16 1.86-4.16 4.16V33h33v-7.84c0-2.3-1.86-4.16-4.16-4.16z" fill-opacity=".913414"/></g><g fill="#66fcf1" stroke="#66fcf1"><path d="M2141 5c4.41 0 8 3.59 8 8s-3.59 8-8 8-8-3.59-8-8 3.59-8 8-8m0-1c-4.97 0-9 4.03-9 9s4.03 9 9 9 9-4.03 9-9-4.03-9-9-9z" fill-opacity=".942937"/><path d="M2127.99 22c4.15 1.57 8.36 2.37 12.51 2.37 4.16 0 8.37-.8 12.51-2.37 1.66.09 2.99 1.47 2.99 3.15V32h-31v-6.84c0-1.69 1.32-3.07 2.99-3.16m24.85-1c-4.11 1.58-8.23 2.37-12.34 2.37-4.11 0-8.23-.79-12.34-2.37-2.3 0-4.16 1.86-4.16 4.16V33h33v-7.84c0-2.3-1.86-4.16-4.16-4.16z" fill-opacity=".941261"/></g><g fill="#66fcf1" stroke="#66fcf1"><path d="M2181 5c4.41 0 8 3.59 8 8s-3.59 8-8 8-8-3.59-8-8 3.59-8 8-8m0-1c-4.97 0-9 4.03-9 9s4.03 9 9 9 9-4.03 9-9-4.03-9-9-9z" fill-opacity=".963493"/><path d="M2167.99 22c4.15 1.57 8.36 2.37 12.51 2.37 4.16 0 8.37-.8 12.51-2.37 1.66.09 2.99 1.47 2.99 3.15V32h-31v-6.84c0-1.69 1.32-3.07 2.99-3.16m24.85-1c-4.11 1.58-8.23 2.37-12.34 2.37-4.11 0-8.23-.79-12.34-2.37-2.3 0-4.16 1.86-4.16 4.16V33h33v-7.84c0-2.3-1.86-4.16-4.16-4.16z" fill-opacity=".962457"/></g><g fill="#66fcf1" stroke="#66fcf1"><path d="M2221 5c4.41 0 8 3.59 8 8s-3.59 8-8 8-8-3.59-8-8 3.59-8 8-8m0-1c-4.97 0-9 4.03-9 9s4.03 9 9 9 9-4.03 9-9-4.03-9-9-9z" fill-opacity=".978699"/><path d="M2207.99 22c4.15 1.57 8.36 2.37 12.51 2.37 4.16 0 8.37-.8 12.51-2.37 1.66.09 2.99 1.47 2.99 3.15V32h-31v-6.84c0-1.69 1.32-3.07 2.99-3.16m24.85-1c-4.11 1.58-8.23 2.37-12.34 2.37-4.11 0-8.23-.79-12.34-2.37-2.3 0-4.16 1.86-4.16 4.16V33h33v-7.84c0-2.3-1.86-4.16-4.16-4.16z" fill-opacity=".978112"/></g><g fill="#66fcf1" stroke="#66fcf1"><path d="M2261 5c4.41 0 8 3.59 8 8s-3.59 8-8 8-8-3.59-8-8 3.59-8 8-8m0-1c-4.97 0-9 4.03-9 9s4.03 9 9 9 9-4.03 9-9-4.03-9-9-9z" fill-opacity=".989359"/><path d="M2247.99 22c4.15 1.57 8.36 2.37 12.51 2.37 4.16 0 8.37-.8 12.51-2.37 1.66.09 2.99 1.47 2.99 3.15V32h-31v-6.84c0-1.69 1.32-3.07 2.99-3.16m24.85-1c-4.11 1.58-8.23 2.37-12.34 2.37-4.11 0-8.23-.79-12.34-2.37-2.3 0-4.16 1.86-4.16 4.16V33h33v-7.84c0-2.3-1.86-4.16-4.16-4.16z" fill-opacity=".989074"/></g><g fill="#66fcf1" stroke="#66fcf1"><path d="M2301 5c4.41 0 8 3.59 8 8s-3.59 8-8 8-8-3.59-8-8 3.59-8 8-8m0-1c-4.97 0-9 4.03-9 9s4.03 9 9 9 9-4.03 9-9-4.03-9-9-9z" fill-opacity=".996109"/><path d="M2287.99 22c4.15 1.57 8.36 2.37 12.51 2.37 4.16 0 8.37-.8 12.51-2.37 1.66.09 2.99 1.47 2.99 3.15V32h-31v-6.84c0-1.69 1.32-3.07 2.99-3.16m24.85-1c-4.11 1.58-8.23 2.37-12.34 2.37-4.11 0-8.23-.79-12.34-2.37-2.3 0-4.16 1.86-4.16 4.16V33h33v-7.84c0-2.3-1.86-4.16-4.16-4.16z" fill-opacity=".996007"/></g><g fill="#66fcf1" stroke="#66fcf1"><path d="M2341 5c4.41 0 8 3.59 8 8s-3.59 8-8 8-8-3.59-8-8 3.59-8 8-8m0-1c-4.97 0-9 4.03-9 9s4.03 9 9 9 9-4.03 9-9-4.03-9-9-9z" fill-opacity=".999454"/><path d="M2327.99 22c4.15 1.57 8.36 2.37 12.51 2.37 4.16 0 8.37-.8 12.51-2.37 1.66.09 2.99 1.47 2.99 3.15V32h-31v-6.84c0-1.69 1.32-3.07 2.99-3.16m24.85-1c-4.11 1.58-8.23 2.37-12.34 2.37-4.11 0-8.23-.79-12.34-2.37-2.3 0-4.16 1.86-4.16 4.16V33h33v-7.84c0-2.3-1.86-4.16-4.16-4.16z" fill-opacity=".99944"/></g><g fill="#66fcf1" stroke="#66fcf1"><path d="M2381 5c4.41 0 8 3.59 8 8s-3.59 8-8 8-8-3.59-8-8 3.59-8 8-8m0-1c-4.97 0-9 4.03-9 9s4.03 9 9 9 9-4.03 9-9-4.03-9-9-9z"/><path d="M2367.99 22c4.15 1.57 8.36 2.37 12.51 2.37 4.16 0 8.37-.8 12.51-2.37 1.66.09 2.99 1.47 2.99 3.15V32h-31v-6.84c0-1.69 1.32-3.07 2.99-3.16m24.85-1c-4.11 1.58-8.23 2.37-12.34 2.37-4.11 0-8.23-.79-12.34-2.37-2.3 0-4.16 1.86-4.16 4.16V33h33v-7.84c0-2.3-1.86-4.16-4.16-4.16z"/></g><g fill="#66fcf1" stroke="#66fcf1"><path d="M2421 5c4.41 0 8 3.59 8 8s-3.59 8-8 8-8-3.59-8-8 3.59-8 8-8m0-1c-4.97 0-9 4.03-9 9s4.03 9 9 9 9-4.03 9-9-4.03-9-9-9z"/><path d="M2407.99 22c4.15 1.57 8.36 2.37 12.51 2.37 4.16 0 8.37-.8 12.51-2.37 1.66.09 2.99 1.47 2.99 3.15V32h-31v-6.84c0-1.69 1.32-3.07 2.99-3.16m24.85-1c-4.11 1.58-8.23 2.37-12.34 2.37-4.11 0-8.23-.79-12.34-2.37-2.3 0-4.16 1.86-4.16 4.16V33h33v-7.84c0-2.3-1.86-4.16-4.16-4.16z"/></g></svg>