<?xml version="1.0" encoding="utf-8"?>
<!-- Generator: Adobe Illustrator 24.0.1, SVG Export Plug-In . SVG Version: 6.00 Build 0)  -->
<svg version="1.1" id="Layer_1" xmlns="http://www.w3.org/2000/svg" xmlns:xlink="http://www.w3.org/1999/xlink" x="0px" y="0px"
	 viewBox="0 0 40 40" style="enable-background:new 0 0 40 40;" xml:space="preserve">
<style type="text/css">
	.st0{fill:#66FCF1;}
</style>
<g>
	<path class="st0" d="M15,8c4.41,0,8,3.59,8,8s-3.59,8-8,8s-8-3.59-8-8S10.59,8,15,8 M15,6C9.48,6,5,10.48,5,16s4.48,10,10,10
		s10-4.48,10-10S20.52,6,15,6L15,6z"/>
</g>
<g>
	<path class="st0" d="M33.1,35.63c-0.03,0-0.1-0.01-0.16-0.07l-11-11c-0.09-0.09-0.09-0.23,0-0.32l1.8-1.8
		c0.06-0.06,0.12-0.07,0.16-0.07c0.03,0,0.1,0.01,0.16,0.07l11,11c0.09,0.09,0.09,0.23,0,0.32l-1.8,1.8
		C33.2,35.62,33.13,35.63,33.1,35.63z"/>
	<path class="st0" d="M23.9,22.99L34.51,33.6l-1.41,1.41L22.49,24.4L23.9,22.99 M23.9,21.88c-0.19,0-0.37,0.07-0.51,0.21l-1.8,1.8
		c-0.28,0.28-0.28,0.74,0,1.02l11,11c0.14,0.14,0.33,0.21,0.51,0.21s0.37-0.07,0.51-0.21l1.8-1.8c0.28-0.28,0.28-0.74,0-1.02l-11-11
		C24.27,21.95,24.09,21.88,23.9,21.88L23.9,21.88z"/>
</g>
</svg>
