
<svg version="1.1" id="Layer_1" xmlns="http://www.w3.org/2000/svg" xmlns:xlink="http://www.w3.org/1999/xlink" x="0px" y="0px"
	 viewBox="0 0 16 16"  xml:space="preserve">

<g>
	<path class="st0" d="M6,2c1.65,0,3,1.35,3,3S7.65,8,6,8S3,6.65,3,5S4.35,2,6,2 M6,1C3.79,1,2,2.79,2,5s1.79,4,4,4s4-1.79,4-4
		S8.21,1,6,1L6,1z"/>
</g>
<g>
	<path class="st0" d="M9.73,8.03c-0.13,0-0.26,0.05-0.35,0.15l-0.7,0.7c-0.2,0.2-0.2,0.51,0,0.71l4.24,4.24
		c0.1,0.1,0.23,0.15,0.35,0.15s0.26-0.05,0.35-0.15l0.7-0.7c0.2-0.2,0.2-0.51,0-0.71l-4.24-4.24C9.99,8.07,9.86,8.03,9.73,8.03
		L9.73,8.03z"/>
</g>
</svg>
