<svg xmlns="http://www.w3.org/2000/svg" viewBox="0 0 2440 40" width="2440" height="40"><path d="M20.5 3C29.6 3 37 10.4 37 19.5S29.6 36 20.5 36 4 28.6 4 19.5 11.4 3 20.5 3m0-1C10.84 2 3 9.84 3 19.5S10.84 37 20.5 37 38 29.16 38 19.5 30.16 2 20.5 2z" fill="#66fcf1" stroke="#66fcf1" stroke-dasharray="0,103.66505387804739" stroke-dashoffset="103.665054"/><path d="M20.5 3c4.07 0 7.5 7.56 7.5 16.5 0 8.94-3.43 16.5-7.5 16.5S13 28.44 13 19.5C13 10.56 16.43 3 20.5 3m0-1C15.81 2 12 9.84 12 19.5S15.81 37 20.5 37c4.69 0 8.5-7.84 8.5-17.5S25.19 2 20.5 2z" fill="#66fcf1"/><path d="M3.5 19.5h34m-17 17v-34m-13 28c0-5 26-5 26 0m-26-22c0 5 26 5 26 0" fill="none" stroke="#66fcf1" stroke-miterlimit="10"/><path d="M60.5 3C69.6 3 77 10.4 77 19.5S69.6 36 60.5 36 44 28.6 44 19.5 51.4 3 60.5 3m0-1C50.84 2 43 9.84 43 19.5S50.84 37 60.5 37 78 29.16 78 19.5 70.16 2 60.5 2z" fill="#66fcf1" stroke="#66fcf1" stroke-dasharray="0,103.66505387804739" stroke-dashoffset="103.665054"/><path d="M60.5 3c4.07 0 7.5 7.56 7.5 16.5 0 8.94-3.43 16.5-7.5 16.5S53 28.44 53 19.5C53 10.56 56.43 3 60.5 3m0-1C55.81 2 52 9.84 52 19.5S55.81 37 60.5 37c4.69 0 8.5-7.84 8.5-17.5S65.19 2 60.5 2z" fill="#66fcf1"/><path d="M43.5 19.5h34m-17 17v-34m-13 28c0-5 26-5 26 0m-26-22c0 5 26 5 26 0" fill="none" stroke="#66fcf1" stroke-miterlimit="10"/><path d="M100.5 3c9.1 0 16.5 7.4 16.5 16.5S109.6 36 100.5 36 84 28.6 84 19.5 91.4 3 100.5 3m0-1C90.84 2 83 9.84 83 19.5S90.84 37 100.5 37 118 29.16 118 19.5 110.16 2 100.5 2z" fill="#66fcf1" stroke="#66fcf1" stroke-dasharray="0,103.66505387804739" stroke-dashoffset="103.665054"/><path d="M100.5 3c4.07 0 7.5 7.56 7.5 16.5 0 8.94-3.43 16.5-7.5 16.5S93 28.44 93 19.5C93 10.56 96.43 3 100.5 3m0-1C95.81 2 92 9.84 92 19.5S95.81 37 100.5 37c4.69 0 8.5-7.84 8.5-17.5S105.19 2 100.5 2z" fill="#66fcf1"/><path d="M83.5 19.5h34m-17 17v-34m-13 28c0-5 26-5 26 0m-26-22c0 5 26 5 26 0" fill="none" stroke="#66fcf1" stroke-miterlimit="10"/><path d="M140.5 3c9.1 0 16.5 7.4 16.5 16.5S149.6 36 140.5 36 124 28.6 124 19.5 131.4 3 140.5 3m0-1C130.84 2 123 9.84 123 19.5S130.84 37 140.5 37 158 29.16 158 19.5 150.16 2 140.5 2z" fill="#66fcf1" stroke="#66fcf1" stroke-dasharray="0,103.66505387804739" stroke-dashoffset="103.665054"/><path d="M140.5 3c4.07 0 7.5 7.56 7.5 16.5 0 8.94-3.43 16.5-7.5 16.5s-7.5-7.56-7.5-16.5c0-8.94 3.43-16.5 7.5-16.5m0-1c-4.69 0-8.5 7.84-8.5 17.5s3.81 17.5 8.5 17.5c4.69 0 8.5-7.84 8.5-17.5S145.19 2 140.5 2z" fill="#66fcf1"/><path d="M123.5 19.5h34m-17 17v-34m-13 28c0-5 26-5 26 0m-26-22c0 5 26 5 26 0" fill="none" stroke="#66fcf1" stroke-miterlimit="10"/><path d="M180.5 3c9.1 0 16.5 7.4 16.5 16.5S189.6 36 180.5 36 164 28.6 164 19.5 171.4 3 180.5 3m0-1C170.84 2 163 9.84 163 19.5S170.84 37 180.5 37 198 29.16 198 19.5 190.16 2 180.5 2z" fill="#66fcf1" stroke="#66fcf1" stroke-dasharray="0.12875739666678357,103.5362964813806" stroke-dashoffset="103.665054"/><path d="M180.5 3c4.07 0 7.5 7.56 7.5 16.5 0 8.94-3.43 16.5-7.5 16.5s-7.5-7.56-7.5-16.5c0-8.94 3.43-16.5 7.5-16.5m0-1c-4.69 0-8.5 7.84-8.5 17.5s3.81 17.5 8.5 17.5c4.69 0 8.5-7.84 8.5-17.5S185.19 2 180.5 2z" fill="#66fcf1"/><path d="M163.5 19.5h34m-17 17v-34m-13 28c0-5 26-5 26 0m-26-22c0 5 26 5 26 0" fill="none" stroke="#66fcf1" stroke-miterlimit="10"/><path d="M220.5 3c9.1 0 16.5 7.4 16.5 16.5S229.6 36 220.5 36 204 28.6 204 19.5 211.4 3 220.5 3m0-1C210.84 2 203 9.84 203 19.5S210.84 37 220.5 37 238 29.16 238 19.5 230.16 2 220.5 2z" fill="#66fcf1" stroke="#66fcf1" stroke-dasharray="0.5414077236015608,103.12364615444582" stroke-dashoffset="103.665054"/><path d="M220.5 3c4.07 0 7.5 7.56 7.5 16.5 0 8.94-3.43 16.5-7.5 16.5s-7.5-7.56-7.5-16.5c0-8.94 3.43-16.5 7.5-16.5m0-1c-4.69 0-8.5 7.84-8.5 17.5s3.81 17.5 8.5 17.5c4.69 0 8.5-7.84 8.5-17.5S225.19 2 220.5 2z" fill="#66fcf1"/><path d="M203.5 19.5h34m-17 17v-34m-13 28c0-5 26-5 26 0m-26-22c0 5 26 5 26 0" fill="none" stroke="#66fcf1" stroke-miterlimit="10"/><path d="M260.5 3c9.1 0 16.5 7.4 16.5 16.5S269.6 36 260.5 36 244 28.6 244 19.5 251.4 3 260.5 3m0-1C250.84 2 243 9.84 243 19.5S250.84 37 260.5 37 278 29.16 278 19.5 270.16 2 260.5 2z" fill="#66fcf1" stroke="#66fcf1" stroke-dasharray="1.2838696271545238,102.38118425089287" stroke-dashoffset="103.665054"/><path d="M260.5 3c4.07 0 7.5 7.56 7.5 16.5 0 8.94-3.43 16.5-7.5 16.5s-7.5-7.56-7.5-16.5c0-8.94 3.43-16.5 7.5-16.5m0-1c-4.69 0-8.5 7.84-8.5 17.5s3.81 17.5 8.5 17.5c4.69 0 8.5-7.84 8.5-17.5S265.19 2 260.5 2z" fill="#66fcf1"/><path d="M243.5 19.5h34m-17 17v-34m-13 28c0-5 26-5 26 0m-26-22c0 5 26 5 26 0" fill="none" stroke="#66fcf1" stroke-miterlimit="10"/><path d="M300.5 3c9.1 0 16.5 7.4 16.5 16.5S309.6 36 300.5 36 284 28.6 284 19.5 291.4 3 300.5 3m0-1C290.84 2 283 9.84 283 19.5S290.84 37 300.5 37 318 29.16 318 19.5 310.16 2 300.5 2z" fill="#66fcf1" stroke="#66fcf1" stroke-dasharray="2.412036425546848,101.25301745250054" stroke-dashoffset="103.665054"/><path d="M300.5 3c4.07 0 7.5 7.56 7.5 16.5 0 8.94-3.43 16.5-7.5 16.5s-7.5-7.56-7.5-16.5c0-8.94 3.43-16.5 7.5-16.5m0-1c-4.69 0-8.5 7.84-8.5 17.5s3.81 17.5 8.5 17.5c4.69 0 8.5-7.84 8.5-17.5S305.19 2 300.5 2z" fill="#66fcf1"/><path d="M283.5 19.5h34m-17 17v-34m-13 28c0-5 26-5 26 0m-26-22c0 5 26 5 26 0" fill="none" stroke="#66fcf1" stroke-miterlimit="10"/><path d="M340.5 3c9.1 0 16.5 7.4 16.5 16.5S349.6 36 340.5 36 324 28.6 324 19.5 331.4 3 340.5 3m0-1C330.84 2 323 9.84 323 19.5S330.84 37 340.5 37 358 29.16 358 19.5 350.16 2 340.5 2z" fill="#66fcf1" stroke="#66fcf1" stroke-dasharray="3.993667046711915,99.67138683133547" stroke-dashoffset="103.665054"/><path d="M340.5 3c4.07 0 7.5 7.56 7.5 16.5 0 8.94-3.43 16.5-7.5 16.5s-7.5-7.56-7.5-16.5c0-8.94 3.43-16.5 7.5-16.5m0-1c-4.69 0-8.5 7.84-8.5 17.5s3.81 17.5 8.5 17.5c4.69 0 8.5-7.84 8.5-17.5S345.19 2 340.5 2z" fill="#66fcf1"/><path d="M323.5 19.5h34m-17 17v-34m-13 28c0-5 26-5 26 0m-26-22c0 5 26 5 26 0" fill="none" stroke="#66fcf1" stroke-miterlimit="10"/><path d="M380.5 3c9.1 0 16.5 7.4 16.5 16.5S389.6 36 380.5 36 364 28.6 364 19.5 371.4 3 380.5 3m0-1C370.84 2 363 9.84 363 19.5S370.84 37 380.5 37 398 29.16 398 19.5 390.16 2 380.5 2z" fill="#66fcf1" stroke="#66fcf1" stroke-dasharray="6.1096890254917104,97.55536485255568" stroke-dashoffset="103.665054"/><path d="M380.5 3c4.07 0 7.5 7.56 7.5 16.5 0 8.94-3.43 16.5-7.5 16.5s-7.5-7.56-7.5-16.5c0-8.94 3.43-16.5 7.5-16.5m0-1c-4.69 0-8.5 7.84-8.5 17.5s3.81 17.5 8.5 17.5c4.69 0 8.5-7.84 8.5-17.5S385.19 2 380.5 2z" fill="#66fcf1"/><path d="M363.5 19.5h34m-17 17v-34m-13 28c0-5 26-5 26 0m-26-22c0 5 26 5 26 0" fill="none" stroke="#66fcf1" stroke-miterlimit="10"/><path d="M420.5 3c9.1 0 16.5 7.4 16.5 16.5S429.6 36 420.5 36 404 28.6 404 19.5 411.4 3 420.5 3m0-1C410.84 2 403 9.84 403 19.5S410.84 37 420.5 37 438 29.16 438 19.5 430.16 2 420.5 2z" fill="#66fcf1" stroke="#66fcf1" stroke-dasharray="8.853334349313702,94.81171952873369" stroke-dashoffset="103.665054"/><path d="M420.5 3c4.07 0 7.5 7.56 7.5 16.5 0 8.94-3.43 16.5-7.5 16.5s-7.5-7.56-7.5-16.5c0-8.94 3.43-16.5 7.5-16.5m0-1c-4.69 0-8.5 7.84-8.5 17.5s3.81 17.5 8.5 17.5c4.69 0 8.5-7.84 8.5-17.5S425.19 2 420.5 2z" fill="#66fcf1"/><path d="M403.5 19.5h34m-17 17v-34m-13 28c0-5 26-5 26 0m-26-22c0 5 26 5 26 0" fill="none" stroke="#66fcf1" stroke-miterlimit="10"/><path d="M460.5 3c9.1 0 16.5 7.4 16.5 16.5S469.6 36 460.5 36 444 28.6 444 19.5 451.4 3 460.5 3m0-1C450.84 2 443 9.84 443 19.5S450.84 37 460.5 37 478 29.16 478 19.5 470.16 2 460.5 2z" fill="#66fcf1" stroke="#66fcf1" stroke-dasharray="12.323701308449362,91.34135256959803" stroke-dashoffset="103.665054"/><path d="M460.5 3c4.07 0 7.5 7.56 7.5 16.5 0 8.94-3.43 16.5-7.5 16.5s-7.5-7.56-7.5-16.5c0-8.94 3.43-16.5 7.5-16.5m0-1c-4.69 0-8.5 7.84-8.5 17.5s3.81 17.5 8.5 17.5c4.69 0 8.5-7.84 8.5-17.5S465.19 2 460.5 2z" fill="#66fcf1"/><path d="M443.5 19.5h34m-17 17v-34m-13 28c0-5 26-5 26 0m-26-22c0 5 26 5 26 0" fill="none" stroke="#66fcf1" stroke-miterlimit="10"/><path d="M500.5 3c9.1 0 16.5 7.4 16.5 16.5S509.6 36 500.5 36 484 28.6 484 19.5 491.4 3 500.5 3m0-1C490.84 2 483 9.84 483 19.5S490.84 37 500.5 37 518 29.16 518 19.5 510.16 2 500.5 2z" fill="#66fcf1" stroke="#66fcf1" stroke-dasharray="16.607654083409628,87.05739979463776" stroke-dashoffset="103.665054"/><path d="M500.5 3c4.07 0 7.5 7.56 7.5 16.5 0 8.94-3.43 16.5-7.5 16.5s-7.5-7.56-7.5-16.5c0-8.94 3.43-16.5 7.5-16.5m0-1c-4.69 0-8.5 7.84-8.5 17.5s3.81 17.5 8.5 17.5c4.69 0 8.5-7.84 8.5-17.5S505.19 2 500.5 2z" fill="#66fcf1"/><path d="M483.5 19.5h34m-17 17v-34m-13 28c0-5 26-5 26 0m-26-22c0 5 26 5 26 0" fill="none" stroke="#66fcf1" stroke-miterlimit="10"/><path d="M540.5 3c9.1 0 16.5 7.4 16.5 16.5S549.6 36 540.5 36 524 28.6 524 19.5 531.4 3 540.5 3m0-1C530.84 2 523 9.84 523 19.5S530.84 37 540.5 37 558 29.16 558 19.5 550.16 2 540.5 2z" fill="#66fcf1" stroke="#66fcf1" stroke-dasharray="21.742875707486014,81.92217817056138" stroke-dashoffset="103.665054"/><path d="M540.5 3c4.07 0 7.5 7.56 7.5 16.5 0 8.94-3.43 16.5-7.5 16.5s-7.5-7.56-7.5-16.5c0-8.94 3.43-16.5 7.5-16.5m0-1c-4.69 0-8.5 7.84-8.5 17.5s3.81 17.5 8.5 17.5c4.69 0 8.5-7.84 8.5-17.5S545.19 2 540.5 2z" fill="#66fcf1"/><path d="M523.5 19.5h34m-17 17v-34m-13 28c0-5 26-5 26 0m-26-22c0 5 26 5 26 0" fill="none" stroke="#66fcf1" stroke-miterlimit="10"/><path d="M580.5 3c9.1 0 16.5 7.4 16.5 16.5S589.6 36 580.5 36 564 28.6 564 19.5 571.4 3 580.5 3m0-1C570.84 2 563 9.84 563 19.5S570.84 37 580.5 37 598 29.16 598 19.5 590.16 2 580.5 2z" fill="#66fcf1" fill-opacity=".00017" stroke="#66fcf1" stroke-dasharray="27.663738004537382,76.00131587351001" stroke-dashoffset="103.665054"/><path d="M580.5 3c4.07 0 7.5 7.56 7.5 16.5 0 8.94-3.43 16.5-7.5 16.5s-7.5-7.56-7.5-16.5c0-8.94 3.43-16.5 7.5-16.5m0-1c-4.69 0-8.5 7.84-8.5 17.5s3.81 17.5 8.5 17.5c4.69 0 8.5-7.84 8.5-17.5S585.19 2 580.5 2z" fill="#66fcf1"/><path d="M563.5 19.5h34m-17 17v-34m-13 28c0-5 26-5 26 0m-26-22c0 5 26 5 26 0" fill="none" stroke="#66fcf1" stroke-miterlimit="10"/><path d="M620.5 3c9.1 0 16.5 7.4 16.5 16.5S629.6 36 620.5 36 604 28.6 604 19.5 611.4 3 620.5 3m0-1C610.84 2 603 9.84 603 19.5S610.84 37 620.5 37 638 29.16 638 19.5 630.16 2 620.5 2z" fill="#66fcf1" fill-opacity=".006726" stroke="#66fcf1" stroke-dasharray="34.15956097076988,69.5054929072775" stroke-dashoffset="103.665054"/><path d="M620.5 3c4.07 0 7.5 7.56 7.5 16.5 0 8.94-3.43 16.5-7.5 16.5s-7.5-7.56-7.5-16.5c0-8.94 3.43-16.5 7.5-16.5m0-1c-4.69 0-8.5 7.84-8.5 17.5s3.81 17.5 8.5 17.5c4.69 0 8.5-7.84 8.5-17.5S625.19 2 620.5 2z" fill="#66fcf1"/><path d="M603.5 19.5h34m-17 17v-34m-13 28c0-5 26-5 26 0m-26-22c0 5 26 5 26 0" fill="none" stroke="#66fcf1" stroke-miterlimit="10"/><path d="M660.5 3c9.1 0 16.5 7.4 16.5 16.5S669.6 36 660.5 36 644 28.6 644 19.5 651.4 3 660.5 3m0-1C650.84 2 643 9.84 643 19.5S650.84 37 660.5 37 678 29.16 678 19.5 670.16 2 660.5 2z" fill="#66fcf1" fill-opacity=".025041" stroke="#66fcf1" stroke-dasharray="40.898819562424336,62.76623431562306" stroke-dashoffset="103.665054"/><path d="M660.5 3c4.07 0 7.5 7.56 7.5 16.5 0 8.94-3.43 16.5-7.5 16.5s-7.5-7.56-7.5-16.5c0-8.94 3.43-16.5 7.5-16.5m0-1c-4.69 0-8.5 7.84-8.5 17.5s3.81 17.5 8.5 17.5c4.69 0 8.5-7.84 8.5-17.5S665.19 2 660.5 2z" fill="#66fcf1"/><path d="M643.5 19.5h34m-17 17v-34m-13 28c0-5 26-5 26 0m-26-22c0 5 26 5 26 0" fill="none" stroke="#66fcf1" stroke-miterlimit="10"/><path d="M700.5 3c9.1 0 16.5 7.4 16.5 16.5S709.6 36 700.5 36 684 28.6 684 19.5 691.4 3 700.5 3m0-1C690.84 2 683 9.84 683 19.5S690.84 37 700.5 37 718 29.16 718 19.5 710.16 2 700.5 2z" fill="#66fcf1" fill-opacity=".059238" stroke="#66fcf1" stroke-dasharray="47.53069334135363,56.134360536693755" stroke-dashoffset="103.665054"/><path d="M700.5 3c4.07 0 7.5 7.56 7.5 16.5 0 8.94-3.43 16.5-7.5 16.5s-7.5-7.56-7.5-16.5c0-8.94 3.43-16.5 7.5-16.5m0-1c-4.69 0-8.5 7.84-8.5 17.5s3.81 17.5 8.5 17.5c4.69 0 8.5-7.84 8.5-17.5S705.19 2 700.5 2z" fill="#66fcf1"/><path d="M683.5 19.5h34m-17 17v-34m-13 28c0-5 26-5 26 0m-26-22c0 5 26 5 26 0" fill="none" stroke="#66fcf1" stroke-miterlimit="10"/><path d="M740.5 3c9.1 0 16.5 7.4 16.5 16.5S749.6 36 740.5 36 724 28.6 724 19.5 731.4 3 740.5 3m0-1C730.84 2 723 9.84 723 19.5S730.84 37 740.5 37 758 29.16 758 19.5 750.16 2 740.5 2z" fill="#66fcf1" fill-opacity=".114897" stroke="#66fcf1" stroke-dasharray="53.79020452136195,49.87484935668544" stroke-dashoffset="103.665054"/><path d="M740.5 3c4.07 0 7.5 7.56 7.5 16.5 0 8.94-3.43 16.5-7.5 16.5s-7.5-7.56-7.5-16.5c0-8.94 3.43-16.5 7.5-16.5m0-1c-4.69 0-8.5 7.84-8.5 17.5s3.81 17.5 8.5 17.5c4.69 0 8.5-7.84 8.5-17.5S745.19 2 740.5 2z" fill="#66fcf1"/><path d="M723.5 19.5h34m-17 17v-34m-13 28c0-5 26-5 26 0m-26-22c0 5 26 5 26 0" fill="none" stroke="#66fcf1" stroke-miterlimit="10"/><path d="M780.5 3c9.1 0 16.5 7.4 16.5 16.5S789.6 36 780.5 36 764 28.6 764 19.5 771.4 3 780.5 3m0-1C770.84 2 763 9.84 763 19.5S770.84 37 780.5 37 798 29.16 798 19.5 790.16 2 780.5 2z" fill="#66fcf1" fill-opacity=".197683" stroke="#66fcf1" stroke-dasharray="59.53505231014163,44.13000156790576" stroke-dashoffset="103.665054"/><path d="M780.5 3c4.07 0 7.5 7.56 7.5 16.5 0 8.94-3.43 16.5-7.5 16.5s-7.5-7.56-7.5-16.5c0-8.94 3.43-16.5 7.5-16.5m0-1c-4.69 0-8.5 7.84-8.5 17.5s3.81 17.5 8.5 17.5c4.69 0 8.5-7.84 8.5-17.5S785.19 2 780.5 2z" fill="#66fcf1"/><path d="M763.5 19.5h34m-17 17v-34m-13 28c0-5 26-5 26 0m-26-22c0 5 26 5 26 0" fill="none" stroke="#66fcf1" stroke-miterlimit="10"/><path d="M820.5 3c9.1 0 16.5 7.4 16.5 16.5S829.6 36 820.5 36 804 28.6 804 19.5 811.4 3 820.5 3m0-1C810.84 2 803 9.84 803 19.5S810.84 37 820.5 37 838 29.16 838 19.5 830.16 2 820.5 2z" fill="#66fcf1" fill-opacity=".30714" stroke="#66fcf1" stroke-dasharray="64.72184852374886,38.94320535429852" stroke-dashoffset="103.665054"/><path d="M820.5 3c4.07 0 7.5 7.56 7.5 16.5 0 8.94-3.43 16.5-7.5 16.5s-7.5-7.56-7.5-16.5c0-8.94 3.43-16.5 7.5-16.5m0-1c-4.69 0-8.5 7.84-8.5 17.5s3.81 17.5 8.5 17.5c4.69 0 8.5-7.84 8.5-17.5S825.19 2 820.5 2z" fill="#66fcf1"/><path d="M803.5 19.5h34m-17 17v-34m-13 28c0-5 26-5 26 0m-26-22c0 5 26 5 26 0" fill="none" stroke="#66fcf1" stroke-miterlimit="10"/><g><path d="M860.5 3c9.1 0 16.5 7.4 16.5 16.5S869.6 36 860.5 36 844 28.6 844 19.5 851.4 3 860.5 3m0-1C850.84 2 843 9.84 843 19.5S850.84 37 860.5 37 878 29.16 878 19.5 870.16 2 860.5 2z" fill="#66fcf1" fill-opacity=".428692" stroke="#66fcf1" stroke-dasharray="69.36562813741143,34.29942574063595" stroke-dashoffset="103.665054"/><path d="M860.5 3c4.07 0 7.5 7.56 7.5 16.5 0 8.94-3.43 16.5-7.5 16.5s-7.5-7.56-7.5-16.5c0-8.94 3.43-16.5 7.5-16.5m0-1c-4.69 0-8.5 7.84-8.5 17.5s3.81 17.5 8.5 17.5c4.69 0 8.5-7.84 8.5-17.5S865.19 2 860.5 2z" fill="#66fcf1"/><path d="M843.5 19.5h34m-17 17v-34m-13 28c0-5 26-5 26 0m-26-22c0 5 26 5 26 0" fill="none" stroke="#66fcf1" stroke-miterlimit="10"/></g><g><path d="M900.5 3c9.1 0 16.5 7.4 16.5 16.5S909.6 36 900.5 36 884 28.6 884 19.5 891.4 3 900.5 3m0-1C890.84 2 883 9.84 883 19.5S890.84 37 900.5 37 918 29.16 918 19.5 910.16 2 900.5 2z" fill="#66fcf1" fill-opacity=".542139" stroke="#66fcf1" stroke-dasharray="73.50833908200029,30.1567147960471" stroke-dashoffset="103.665054"/><path d="M900.5 3c4.07 0 7.5 7.56 7.5 16.5 0 8.94-3.43 16.5-7.5 16.5s-7.5-7.56-7.5-16.5c0-8.94 3.43-16.5 7.5-16.5m0-1c-4.69 0-8.5 7.84-8.5 17.5s3.81 17.5 8.5 17.5c4.69 0 8.5-7.84 8.5-17.5S905.19 2 900.5 2z" fill="#66fcf1"/><path d="M883.5 19.5h34m-17 17v-34m-13 28c0-5 26-5 26 0m-26-22c0 5 26 5 26 0" fill="none" stroke="#66fcf1" stroke-miterlimit="10"/></g><g><path d="M940.5 3c9.1 0 16.5 7.4 16.5 16.5S949.6 36 940.5 36 924 28.6 924 19.5 931.4 3 940.5 3m0-1C930.84 2 923 9.84 923 19.5S930.84 37 940.5 37 958 29.16 958 19.5 950.16 2 940.5 2z" fill="#66fcf1" fill-opacity=".637718" stroke="#66fcf1" stroke-dasharray="77.2004594869408,26.464594391106594" stroke-dashoffset="103.665054"/><path d="M940.5 3c4.07 0 7.5 7.56 7.5 16.5 0 8.94-3.43 16.5-7.5 16.5s-7.5-7.56-7.5-16.5c0-8.94 3.43-16.5 7.5-16.5m0-1c-4.69 0-8.5 7.84-8.5 17.5s3.81 17.5 8.5 17.5c4.69 0 8.5-7.84 8.5-17.5S945.19 2 940.5 2z" fill="#66fcf1"/><path d="M923.5 19.5h34m-17 17v-34m-13 28c0-5 26-5 26 0m-26-22c0 5 26 5 26 0" fill="none" stroke="#66fcf1" stroke-miterlimit="10"/></g><g><path d="M980.5 3c9.1 0 16.5 7.4 16.5 16.5S989.6 36 980.5 36 964 28.6 964 19.5 971.4 3 980.5 3m0-1C970.84 2 963 9.84 963 19.5S970.84 37 980.5 37 998 29.16 998 19.5 990.16 2 980.5 2z" fill="#66fcf1" fill-opacity=".715299" stroke="#66fcf1" stroke-dasharray="80.49197142240556,23.173082455641833" stroke-dashoffset="103.665054"/><path d="M980.5 3c4.07 0 7.5 7.56 7.5 16.5 0 8.94-3.43 16.5-7.5 16.5s-7.5-7.56-7.5-16.5c0-8.94 3.43-16.5 7.5-16.5m0-1c-4.69 0-8.5 7.84-8.5 17.5s3.81 17.5 8.5 17.5c4.69 0 8.5-7.84 8.5-17.5S985.19 2 980.5 2z" fill="#66fcf1"/><path d="M963.5 19.5h34m-17 17v-34m-13 28c0-5 26-5 26 0m-26-22c0 5 26 5 26 0" fill="none" stroke="#66fcf1" stroke-miterlimit="10"/></g><g><path d="M1020.5 3c9.1 0 16.5 7.4 16.5 16.5s-7.4 16.5-16.5 16.5-16.5-7.4-16.5-16.5S1011.4 3 1020.5 3m0-1c-9.66 0-17.5 7.84-17.5 17.5s7.84 17.5 17.5 17.5 17.5-7.84 17.5-17.5S1030.16 2 1020.5 2z" fill="#66fcf1" fill-opacity=".777812" stroke="#66fcf1" stroke-dasharray="83.42859890954314,20.236454968504248" stroke-dashoffset="103.665054"/><path d="M1020.5 3c4.07 0 7.5 7.56 7.5 16.5 0 8.94-3.43 16.5-7.5 16.5s-7.5-7.56-7.5-16.5c0-8.94 3.43-16.5 7.5-16.5m0-1c-4.69 0-8.5 7.84-8.5 17.5s3.81 17.5 8.5 17.5c4.69 0 8.5-7.84 8.5-17.5S1025.19 2 1020.5 2z" fill="#66fcf1"/><path d="M1003.5 19.5h34m-17 17v-34m-13 28c0-5 26-5 26 0m-26-22c0 5 26 5 26 0" fill="none" stroke="#66fcf1" stroke-miterlimit="10"/></g><g><path d="M1060.5 3c9.1 0 16.5 7.4 16.5 16.5s-7.4 16.5-16.5 16.5-16.5-7.4-16.5-16.5S1051.4 3 1060.5 3m0-1c-9.66 0-17.5 7.84-17.5 17.5s7.84 17.5 17.5 17.5 17.5-7.84 17.5-17.5S1070.16 2 1060.5 2z" fill="#66fcf1" fill-opacity=".828265" stroke="#66fcf1" stroke-dasharray="86.05066119184056,17.61439268620682" stroke-dashoffset="103.665054"/><path d="M1060.5 3c4.07 0 7.5 7.56 7.5 16.5 0 8.94-3.43 16.5-7.5 16.5s-7.5-7.56-7.5-16.5c0-8.94 3.43-16.5 7.5-16.5m0-1c-4.69 0-8.5 7.84-8.5 17.5s3.81 17.5 8.5 17.5c4.69 0 8.5-7.84 8.5-17.5S1065.19 2 1060.5 2z" fill="#66fcf1"/><path d="M1043.5 19.5h34m-17 17v-34m-13 28c0-5 26-5 26 0m-26-22c0 5 26 5 26 0" fill="none" stroke="#66fcf1" stroke-miterlimit="10"/></g><g><path d="M1100.5 3c9.1 0 16.5 7.4 16.5 16.5s-7.4 16.5-16.5 16.5-16.5-7.4-16.5-16.5S1091.4 3 1100.5 3m0-1c-9.66 0-17.5 7.84-17.5 17.5s7.84 17.5 17.5 17.5 17.5-7.84 17.5-17.5S1110.16 2 1100.5 2z" fill="#66fcf1" fill-opacity=".869074" stroke="#66fcf1" stroke-dasharray="88.39310566142461,15.271948216622771" stroke-dashoffset="103.665054"/><path d="M1100.5 3c4.07 0 7.5 7.56 7.5 16.5 0 8.94-3.43 16.5-7.5 16.5s-7.5-7.56-7.5-16.5c0-8.94 3.43-16.5 7.5-16.5m0-1c-4.69 0-8.5 7.84-8.5 17.5s3.81 17.5 8.5 17.5c4.69 0 8.5-7.84 8.5-17.5S1105.19 2 1100.5 2z" fill="#66fcf1"/><path d="M1083.5 19.5h34m-17 17v-34m-13 28c0-5 26-5 26 0m-26-22c0 5 26 5 26 0" fill="none" stroke="#66fcf1" stroke-miterlimit="10"/></g><g><path d="M1140.5 3c9.1 0 16.5 7.4 16.5 16.5s-7.4 16.5-16.5 16.5-16.5-7.4-16.5-16.5S1131.4 3 1140.5 3m0-1c-9.66 0-17.5 7.84-17.5 17.5s7.84 17.5 17.5 17.5 17.5-7.84 17.5-17.5S1150.16 2 1140.5 2z" fill="#66fcf1" fill-opacity=".902075" stroke="#66fcf1" stroke-dasharray="90.4860084771777,13.179045400869676" stroke-dashoffset="103.665054"/><path d="M1140.5 3c4.07 0 7.5 7.56 7.5 16.5 0 8.94-3.43 16.5-7.5 16.5s-7.5-7.56-7.5-16.5c0-8.94 3.43-16.5 7.5-16.5m0-1c-4.69 0-8.5 7.84-8.5 17.5s3.81 17.5 8.5 17.5c4.69 0 8.5-7.84 8.5-17.5S1145.19 2 1140.5 2z" fill="#66fcf1"/><path d="M1123.5 19.5h34m-17 17v-34m-13 28c0-5 26-5 26 0m-26-22c0 5 26 5 26 0" fill="none" stroke="#66fcf1" stroke-miterlimit="10"/></g><g><path d="M1180.5 3c9.1 0 16.5 7.4 16.5 16.5s-7.4 16.5-16.5 16.5-16.5-7.4-16.5-16.5S1171.4 3 1180.5 3m0-1c-9.66 0-17.5 7.84-17.5 17.5s7.84 17.5 17.5 17.5 17.5-7.84 17.5-17.5S1190.16 2 1180.5 2z" fill="#66fcf1" fill-opacity=".928651" stroke="#66fcf1" stroke-dasharray="92.35521089024869,11.309842987798698" stroke-dashoffset="103.665054"/><path d="M1180.5 3c4.07 0 7.5 7.56 7.5 16.5 0 8.94-3.43 16.5-7.5 16.5s-7.5-7.56-7.5-16.5c0-8.94 3.43-16.5 7.5-16.5m0-1c-4.69 0-8.5 7.84-8.5 17.5s3.81 17.5 8.5 17.5c4.69 0 8.5-7.84 8.5-17.5S1185.19 2 1180.5 2z" fill="#66fcf1"/><path d="M1163.5 19.5h34m-17 17v-34m-13 28c0-5 26-5 26 0m-26-22c0 5 26 5 26 0" fill="none" stroke="#66fcf1" stroke-miterlimit="10"/></g><g><path d="M1220.5 3c9.1 0 16.5 7.4 16.5 16.5s-7.4 16.5-16.5 16.5-16.5-7.4-16.5-16.5S1211.4 3 1220.5 3m0-1c-9.66 0-17.5 7.84-17.5 17.5s7.84 17.5 17.5 17.5 17.5-7.84 17.5-17.5S1230.16 2 1220.5 2z" fill="#66fcf1" fill-opacity=".949856" stroke="#66fcf1" stroke-dasharray="94.02294680109213,9.64210707695526" stroke-dashoffset="103.665054"/><path d="M1220.5 3c4.07 0 7.5 7.56 7.5 16.5 0 8.94-3.43 16.5-7.5 16.5s-7.5-7.56-7.5-16.5c0-8.94 3.43-16.5 7.5-16.5m0-1c-4.69 0-8.5 7.84-8.5 17.5s3.81 17.5 8.5 17.5c4.69 0 8.5-7.84 8.5-17.5S1225.19 2 1220.5 2z" fill="#66fcf1"/><path d="M1203.5 19.5h34m-17 17v-34m-13 28c0-5 26-5 26 0m-26-22c0 5 26 5 26 0" fill="none" stroke="#66fcf1" stroke-miterlimit="10"/></g><g><path d="M1260.5 3c9.1 0 16.5 7.4 16.5 16.5s-7.4 16.5-16.5 16.5-16.5-7.4-16.5-16.5S1251.4 3 1260.5 3m0-1c-9.66 0-17.5 7.84-17.5 17.5s7.84 17.5 17.5 17.5 17.5-7.84 17.5-17.5S1270.16 2 1260.5 2z" fill="#66fcf1" fill-opacity=".966505" stroke="#66fcf1" stroke-dasharray="95.50840596870248,8.156647909344905" stroke-dashoffset="103.665054"/><path d="M1260.5 3c4.07 0 7.5 7.56 7.5 16.5 0 8.94-3.43 16.5-7.5 16.5s-7.5-7.56-7.5-16.5c0-8.94 3.43-16.5 7.5-16.5m0-1c-4.69 0-8.5 7.84-8.5 17.5s3.81 17.5 8.5 17.5c4.69 0 8.5-7.84 8.5-17.5S1265.19 2 1260.5 2z" fill="#66fcf1"/><path d="M1243.5 19.5h34m-17 17v-34m-13 28c0-5 26-5 26 0m-26-22c0 5 26 5 26 0" fill="none" stroke="#66fcf1" stroke-miterlimit="10"/></g><g><path d="M1300.5 3c9.1 0 16.5 7.4 16.5 16.5s-7.4 16.5-16.5 16.5-16.5-7.4-16.5-16.5S1291.4 3 1300.5 3m0-1c-9.66 0-17.5 7.84-17.5 17.5s7.84 17.5 17.5 17.5 17.5-7.84 17.5-17.5S1310.16 2 1300.5 2z" fill="#66fcf1" fill-opacity=".979241" stroke="#66fcf1" stroke-dasharray="96.82821777308492,6.836836104962476" stroke-dashoffset="103.665054"/><path d="M1300.5 3c4.07 0 7.5 7.56 7.5 16.5 0 8.94-3.43 16.5-7.5 16.5s-7.5-7.56-7.5-16.5c0-8.94 3.43-16.5 7.5-16.5m0-1c-4.69 0-8.5 7.84-8.5 17.5s3.81 17.5 8.5 17.5c4.69 0 8.5-7.84 8.5-17.5S1305.19 2 1300.5 2z" fill="#66fcf1"/><path d="M1283.5 19.5h34m-17 17v-34m-13 28c0-5 26-5 26 0m-26-22c0 5 26 5 26 0" fill="none" stroke="#66fcf1" stroke-miterlimit="10"/></g><g><path d="M1340.5 3c9.1 0 16.5 7.4 16.5 16.5s-7.4 16.5-16.5 16.5-16.5-7.4-16.5-16.5S1331.4 3 1340.5 3m0-1c-9.66 0-17.5 7.84-17.5 17.5s7.84 17.5 17.5 17.5 17.5-7.84 17.5-17.5S1350.16 2 1340.5 2z" fill="#66fcf1" fill-opacity=".988577" stroke="#66fcf1" stroke-dasharray="97.99685774444872,5.668196133598666" stroke-dashoffset="103.665054"/><path d="M1340.5 3c4.07 0 7.5 7.56 7.5 16.5 0 8.94-3.43 16.5-7.5 16.5s-7.5-7.56-7.5-16.5c0-8.94 3.43-16.5 7.5-16.5m0-1c-4.69 0-8.5 7.84-8.5 17.5s3.81 17.5 8.5 17.5c4.69 0 8.5-7.84 8.5-17.5S1345.19 2 1340.5 2z" fill="#66fcf1"/><path d="M1323.5 19.5h34m-17 17v-34m-13 28c0-5 26-5 26 0m-26-22c0 5 26 5 26 0" fill="none" stroke="#66fcf1" stroke-miterlimit="10"/></g><g><path d="M1380.5 3c9.1 0 16.5 7.4 16.5 16.5s-7.4 16.5-16.5 16.5-16.5-7.4-16.5-16.5S1371.4 3 1380.5 3m0-1c-9.66 0-17.5 7.84-17.5 17.5s7.84 17.5 17.5 17.5 17.5-7.84 17.5-17.5S1390.16 2 1380.5 2z" fill="#66fcf1" fill-opacity=".994928" stroke="#66fcf1" stroke-dasharray="99.0269855607324,4.638068317314986" stroke-dashoffset="103.665054"/><path d="M1380.5 3c4.07 0 7.5 7.56 7.5 16.5 0 8.94-3.43 16.5-7.5 16.5s-7.5-7.56-7.5-16.5c0-8.94 3.43-16.5 7.5-16.5m0-1c-4.69 0-8.5 7.84-8.5 17.5s3.81 17.5 8.5 17.5c4.69 0 8.5-7.84 8.5-17.5S1385.19 2 1380.5 2z" fill="#66fcf1"/><path d="M1363.5 19.5h34m-17 17v-34m-13 28c0-5 26-5 26 0m-26-22c0 5 26 5 26 0" fill="none" stroke="#66fcf1" stroke-miterlimit="10"/></g><g><path d="M1420.5 3c9.1 0 16.5 7.4 16.5 16.5s-7.4 16.5-16.5 16.5-16.5-7.4-16.5-16.5S1411.4 3 1420.5 3m0-1c-9.66 0-17.5 7.84-17.5 17.5s7.84 17.5 17.5 17.5 17.5-7.84 17.5-17.5S1430.16 2 1420.5 2z" fill="#66fcf1" fill-opacity=".998636" stroke="#66fcf1" stroke-dasharray="99.9297248191883,3.7353290588590986" stroke-dashoffset="103.665054"/><path d="M1420.5 3c4.07 0 7.5 7.56 7.5 16.5 0 8.94-3.43 16.5-7.5 16.5s-7.5-7.56-7.5-16.5c0-8.94 3.43-16.5 7.5-16.5m0-1c-4.69 0-8.5 7.84-8.5 17.5s3.81 17.5 8.5 17.5c4.69 0 8.5-7.84 8.5-17.5S1425.19 2 1420.5 2z" fill="#66fcf1"/><path d="M1403.5 19.5h34m-17 17v-34m-13 28c0-5 26-5 26 0m-26-22c0 5 26 5 26 0" fill="none" stroke="#66fcf1" stroke-miterlimit="10"/></g><g><path d="M1460.5 3c9.1 0 16.5 7.4 16.5 16.5s-7.4 16.5-16.5 16.5-16.5-7.4-16.5-16.5S1451.4 3 1460.5 3m0-1c-9.66 0-17.5 7.84-17.5 17.5s7.84 17.5 17.5 17.5 17.5-7.84 17.5-17.5S1470.16 2 1460.5 2z" fill="#66fcf1" fill-opacity=".999985" stroke="#66fcf1" stroke-dasharray="100.71489442800383,2.950159450043555" stroke-dashoffset="103.665054"/><path d="M1460.5 3c4.07 0 7.5 7.56 7.5 16.5 0 8.94-3.43 16.5-7.5 16.5s-7.5-7.56-7.5-16.5c0-8.94 3.43-16.5 7.5-16.5m0-1c-4.69 0-8.5 7.84-8.5 17.5s3.81 17.5 8.5 17.5c4.69 0 8.5-7.84 8.5-17.5S1465.19 2 1460.5 2z" fill="#66fcf1"/><path d="M1443.5 19.5h34m-17 17v-34m-13 28c0-5 26-5 26 0m-26-22c0 5 26 5 26 0" fill="none" stroke="#66fcf1" stroke-dasharray="0.04076974902858966,33.95923025097141" stroke-dashoffset="34" stroke-miterlimit="10"/></g><g><path d="M1500.5 3c9.1 0 16.5 7.4 16.5 16.5s-7.4 16.5-16.5 16.5-16.5-7.4-16.5-16.5S1491.4 3 1500.5 3m0-1c-9.66 0-17.5 7.84-17.5 17.5s7.84 17.5 17.5 17.5 17.5-7.84 17.5-17.5S1510.16 2 1500.5 2z" fill="#66fcf1" stroke="#66fcf1" stroke-dasharray="101.39120025319491,2.2738536248524763" stroke-dashoffset="103.665054"/><path d="M1500.5 3c4.07 0 7.5 7.56 7.5 16.5 0 8.94-3.43 16.5-7.5 16.5s-7.5-7.56-7.5-16.5c0-8.94 3.43-16.5 7.5-16.5m0-1c-4.69 0-8.5 7.84-8.5 17.5s3.81 17.5 8.5 17.5c4.69 0 8.5-7.84 8.5-17.5S1505.19 2 1500.5 2z" fill="#66fcf1"/><path d="M1483.5 19.5h34m-17 17v-34m-13 28c0-5 26-5 26 0m-26-22c0 5 26 5 26 0" fill="none" stroke="#66fcf1" stroke-dasharray="0.36381365307398883,33.63618634692601" stroke-dashoffset="34" stroke-miterlimit="10"/></g><g><path d="M1540.5 3c9.1 0 16.5 7.4 16.5 16.5s-7.4 16.5-16.5 16.5-16.5-7.4-16.5-16.5S1531.4 3 1540.5 3m0-1c-9.66 0-17.5 7.84-17.5 17.5s7.84 17.5 17.5 17.5 17.5-7.84 17.5-17.5S1550.16 2 1540.5 2z" fill="#66fcf1" stroke="#66fcf1" stroke-dasharray="101.9663942839474,1.6986595940999956" stroke-dashoffset="103.665054"/><path d="M1540.5 3c4.07 0 7.5 7.56 7.5 16.5 0 8.94-3.43 16.5-7.5 16.5s-7.5-7.56-7.5-16.5c0-8.94 3.43-16.5 7.5-16.5m0-1c-4.69 0-8.5 7.84-8.5 17.5s3.81 17.5 8.5 17.5c4.69 0 8.5-7.84 8.5-17.5S1545.19 2 1540.5 2z" fill="#66fcf1"/><path d="M1523.5 19.5h34m-17 17v-34m-13 28c0-5 26-5 26 0m-26-22c0 5 26 5 26 0" fill="none" stroke="#66fcf1" stroke-dasharray="1.0955380469301463,32.904461953069855" stroke-dashoffset="34" stroke-miterlimit="10"/></g><g><path d="M1580.5 3c9.1 0 16.5 7.4 16.5 16.5s-7.4 16.5-16.5 16.5-16.5-7.4-16.5-16.5S1571.4 3 1580.5 3m0-1c-9.66 0-17.5 7.84-17.5 17.5s7.84 17.5 17.5 17.5 17.5-7.84 17.5-17.5S1590.16 2 1580.5 2z" fill="#66fcf1" stroke="#66fcf1" stroke-dasharray="102.44740729242453,1.2176465856228567" stroke-dashoffset="103.665054"/><path d="M1580.5 3c4.07 0 7.5 7.56 7.5 16.5 0 8.94-3.43 16.5-7.5 16.5s-7.5-7.56-7.5-16.5c0-8.94 3.43-16.5 7.5-16.5m0-1c-4.69 0-8.5 7.84-8.5 17.5s3.81 17.5 8.5 17.5c4.69 0 8.5-7.84 8.5-17.5S1585.19 2 1580.5 2z" fill="#66fcf1"/><path d="M1563.5 19.5h34m-17 17v-34m-13 28c0-5 26-5 26 0m-26-22c0 5 26 5 26 0" fill="none" stroke="#66fcf1" stroke-dasharray="2.375968949434367,31.624031050565634" stroke-dashoffset="34" stroke-miterlimit="10"/></g><g><path d="M1620.5 3c9.1 0 16.5 7.4 16.5 16.5s-7.4 16.5-16.5 16.5-16.5-7.4-16.5-16.5S1611.4 3 1620.5 3m0-1c-9.66 0-17.5 7.84-17.5 17.5s7.84 17.5 17.5 17.5 17.5-7.84 17.5-17.5S1630.16 2 1620.5 2z" fill="#66fcf1" stroke="#66fcf1" stroke-dasharray="102.84045984813773,0.8245940299096556" stroke-dashoffset="103.665054"/><path d="M1620.5 3c4.07 0 7.5 7.56 7.5 16.5 0 8.94-3.43 16.5-7.5 16.5s-7.5-7.56-7.5-16.5c0-8.94 3.43-16.5 7.5-16.5m0-1c-4.69 0-8.5 7.84-8.5 17.5s3.81 17.5 8.5 17.5c4.69 0 8.5-7.84 8.5-17.5S1625.19 2 1620.5 2z" fill="#66fcf1"/><path d="M1603.5 19.5h34m-17 17v-34m-13 28c0-5 26-5 26 0m-26-22c0 5 26 5 26 0" fill="none" stroke="#66fcf1" stroke-dasharray="4.386300251303714,29.613699748696284" stroke-dashoffset="34" stroke-miterlimit="10"/></g><g><path d="M1660.5 3c9.1 0 16.5 7.4 16.5 16.5s-7.4 16.5-16.5 16.5-16.5-7.4-16.5-16.5S1651.4 3 1660.5 3m0-1c-9.66 0-17.5 7.84-17.5 17.5s7.84 17.5 17.5 17.5 17.5-7.84 17.5-17.5S1670.16 2 1660.5 2z" fill="#66fcf1" stroke="#66fcf1" stroke-dasharray="103.15115561711656,0.5138982609308358" stroke-dashoffset="103.665054"/><path d="M1660.5 3c4.07 0 7.5 7.56 7.5 16.5 0 8.94-3.43 16.5-7.5 16.5s-7.5-7.56-7.5-16.5c0-8.94 3.43-16.5 7.5-16.5m0-1c-4.69 0-8.5 7.84-8.5 17.5s3.81 17.5 8.5 17.5c4.69 0 8.5-7.84 8.5-17.5S1665.19 2 1660.5 2z" fill="#66fcf1"/><path d="M1643.5 19.5h34m-17 17v-34m-13 28c0-5 26-5 26 0m-26-22c0 5 26 5 26 0" fill="none" stroke="#66fcf1" stroke-dasharray="7.286027948282666,26.71397205171733" stroke-dashoffset="34" stroke-miterlimit="10"/></g><g><path d="M1700.5 3c9.1 0 16.5 7.4 16.5 16.5s-7.4 16.5-16.5 16.5-16.5-7.4-16.5-16.5S1691.4 3 1700.5 3m0-1c-9.66 0-17.5 7.84-17.5 17.5s7.84 17.5 17.5 17.5 17.5-7.84 17.5-17.5S1710.16 2 1700.5 2z" fill="#66fcf1" stroke="#66fcf1" stroke-dasharray="103.3845601176918,0.2804937603555871" stroke-dashoffset="103.665054"/><path d="M1700.5 3c4.07 0 7.5 7.56 7.5 16.5 0 8.94-3.43 16.5-7.5 16.5s-7.5-7.56-7.5-16.5c0-8.94 3.43-16.5 7.5-16.5m0-1c-4.69 0-8.5 7.84-8.5 17.5s3.81 17.5 8.5 17.5c4.69 0 8.5-7.84 8.5-17.5S1705.19 2 1700.5 2z" fill="#66fcf1"/><path d="M1683.5 19.5h34m-17 17v-34m-13 28c0-5 26-5 26 0m-26-22c0 5 26 5 26 0" fill="none" stroke="#66fcf1" stroke-dasharray="10.995578928207856,23.004421071792144" stroke-dashoffset="34" stroke-miterlimit="10"/></g><g><path d="M1740.5 3c9.1 0 16.5 7.4 16.5 16.5s-7.4 16.5-16.5 16.5-16.5-7.4-16.5-16.5S1731.4 3 1740.5 3m0-1c-9.66 0-17.5 7.84-17.5 17.5s7.84 17.5 17.5 17.5 17.5-7.84 17.5-17.5S1750.16 2 1740.5 2z" fill="#66fcf1" stroke="#66fcf1" stroke-dasharray="103.54526749326656,0.11978638478082311" stroke-dashoffset="103.665054"/><path d="M1740.5 3c4.07 0 7.5 7.56 7.5 16.5 0 8.94-3.43 16.5-7.5 16.5s-7.5-7.56-7.5-16.5c0-8.94 3.43-16.5 7.5-16.5m0-1c-4.69 0-8.5 7.84-8.5 17.5s3.81 17.5 8.5 17.5c4.69 0 8.5-7.84 8.5-17.5S1745.19 2 1740.5 2z" fill="#66fcf1"/><path d="M1723.5 19.5h34m-17 17v-34m-13 28c0-5 26-5 26 0m-26-22c0 5 26 5 26 0" fill="none" stroke="#66fcf1" stroke-dasharray="15.000494054806206,18.999505945193793" stroke-dashoffset="34" stroke-miterlimit="10"/></g><g><path d="M1780.5 3c9.1 0 16.5 7.4 16.5 16.5s-7.4 16.5-16.5 16.5-16.5-7.4-16.5-16.5S1771.4 3 1780.5 3m0-1c-9.66 0-17.5 7.84-17.5 17.5s7.84 17.5 17.5 17.5 17.5-7.84 17.5-17.5S1790.16 2 1780.5 2z" fill="#66fcf1" stroke="#66fcf1" stroke-dasharray="103.63745737242584,0.027596505621549586" stroke-dashoffset="103.665054"/><path d="M1780.5 3c4.07 0 7.5 7.56 7.5 16.5 0 8.94-3.43 16.5-7.5 16.5s-7.5-7.56-7.5-16.5c0-8.94 3.43-16.5 7.5-16.5m0-1c-4.69 0-8.5 7.84-8.5 17.5s3.81 17.5 8.5 17.5c4.69 0 8.5-7.84 8.5-17.5S1785.19 2 1780.5 2z" fill="#66fcf1"/><path d="M1763.5 19.5h34m-17 17v-34m-13 28c0-5 26-5 26 0m-26-22c0 5 26 5 26 0" fill="none" stroke="#66fcf1" stroke-dasharray="18.69227202644146,15.307727973558539" stroke-dashoffset="34" stroke-miterlimit="10"/></g><g><path d="M1820.5 3c9.1 0 16.5 7.4 16.5 16.5s-7.4 16.5-16.5 16.5-16.5-7.4-16.5-16.5S1811.4 3 1820.5 3m0-1c-9.66 0-17.5 7.84-17.5 17.5s7.84 17.5 17.5 17.5 17.5-7.84 17.5-17.5S1830.16 2 1820.5 2z" fill="#66fcf1" stroke="#66fcf1"/><path d="M1820.5 3c4.07 0 7.5 7.56 7.5 16.5 0 8.94-3.43 16.5-7.5 16.5s-7.5-7.56-7.5-16.5c0-8.94 3.43-16.5 7.5-16.5m0-1c-4.69 0-8.5 7.84-8.5 17.5s3.81 17.5 8.5 17.5c4.69 0 8.5-7.84 8.5-17.5S1825.19 2 1820.5 2z" fill="#66fcf1"/><path d="M1803.5 19.5h34m-17 17v-34m-13 28c0-5 26-5 26 0m-26-22c0 5 26 5 26 0" fill="none" stroke="#66fcf1" stroke-dasharray="21.804582995864788,12.195417004135212" stroke-dashoffset="34" stroke-miterlimit="10"/></g><g><path d="M1860.5 3c9.1 0 16.5 7.4 16.5 16.5s-7.4 16.5-16.5 16.5-16.5-7.4-16.5-16.5S1851.4 3 1860.5 3m0-1c-9.66 0-17.5 7.84-17.5 17.5s7.84 17.5 17.5 17.5 17.5-7.84 17.5-17.5S1870.16 2 1860.5 2z" fill="#66fcf1" stroke="#66fcf1"/><path d="M1860.5 3c4.07 0 7.5 7.56 7.5 16.5 0 8.94-3.43 16.5-7.5 16.5s-7.5-7.56-7.5-16.5c0-8.94 3.43-16.5 7.5-16.5m0-1c-4.69 0-8.5 7.84-8.5 17.5s3.81 17.5 8.5 17.5c4.69 0 8.5-7.84 8.5-17.5S1865.19 2 1860.5 2z" fill="#66fcf1"/><path d="M1843.5 19.5h34m-17 17v-34m-13 28c0-5 26-5 26 0m-26-22c0 5 26 5 26 0" fill="none" stroke="#66fcf1" stroke-dasharray="24.34525580039985,9.654744199600149" stroke-dashoffset="34" stroke-miterlimit="10"/></g><g><path d="M1900.5 3c9.1 0 16.5 7.4 16.5 16.5s-7.4 16.5-16.5 16.5-16.5-7.4-16.5-16.5S1891.4 3 1900.5 3m0-1c-9.66 0-17.5 7.84-17.5 17.5s7.84 17.5 17.5 17.5 17.5-7.84 17.5-17.5S1910.16 2 1900.5 2z" fill="#66fcf1" stroke="#66fcf1"/><path d="M1900.5 3c4.07 0 7.5 7.56 7.5 16.5 0 8.94-3.43 16.5-7.5 16.5s-7.5-7.56-7.5-16.5c0-8.94 3.43-16.5 7.5-16.5m0-1c-4.69 0-8.5 7.84-8.5 17.5s3.81 17.5 8.5 17.5c4.69 0 8.5-7.84 8.5-17.5S1905.19 2 1900.5 2z" fill="#66fcf1"/><path d="M1883.5 19.5h34m-17 17v-34m-13 28c0-5 26-5 26 0m-26-22c0 5 26 5 26 0" fill="none" stroke="#66fcf1" stroke-dasharray="26.4062323585338,7.5937676414662025" stroke-dashoffset="34" stroke-miterlimit="10"/></g><g><path d="M1940.5 3c9.1 0 16.5 7.4 16.5 16.5s-7.4 16.5-16.5 16.5-16.5-7.4-16.5-16.5S1931.4 3 1940.5 3m0-1c-9.66 0-17.5 7.84-17.5 17.5s7.84 17.5 17.5 17.5 17.5-7.84 17.5-17.5S1950.16 2 1940.5 2z" fill="#66fcf1" stroke="#66fcf1"/><path d="M1940.5 3c4.07 0 7.5 7.56 7.5 16.5 0 8.94-3.43 16.5-7.5 16.5s-7.5-7.56-7.5-16.5c0-8.94 3.43-16.5 7.5-16.5m0-1c-4.69 0-8.5 7.84-8.5 17.5s3.81 17.5 8.5 17.5c4.69 0 8.5-7.84 8.5-17.5S1945.19 2 1940.5 2z" fill="#66fcf1"/><path d="M1923.5 19.5h34m-17 17v-34m-13 28c0-5 26-5 26 0m-26-22c0 5 26 5 26 0" fill="none" stroke="#66fcf1" stroke-dasharray="28.080692012246388,5.919307987753612" stroke-dashoffset="34" stroke-miterlimit="10"/></g><g><path d="M1980.5 3c9.1 0 16.5 7.4 16.5 16.5s-7.4 16.5-16.5 16.5-16.5-7.4-16.5-16.5S1971.4 3 1980.5 3m0-1c-9.66 0-17.5 7.84-17.5 17.5s7.84 17.5 17.5 17.5 17.5-7.84 17.5-17.5S1990.16 2 1980.5 2z" fill="#66fcf1" stroke="#66fcf1"/><path d="M1980.5 3c4.07 0 7.5 7.56 7.5 16.5 0 8.94-3.43 16.5-7.5 16.5s-7.5-7.56-7.5-16.5c0-8.94 3.43-16.5 7.5-16.5m0-1c-4.69 0-8.5 7.84-8.5 17.5s3.81 17.5 8.5 17.5c4.69 0 8.5-7.84 8.5-17.5S1985.19 2 1980.5 2z" fill="#66fcf1"/><path d="M1963.5 19.5h34m-17 17v-34m-13 28c0-5 26-5 26 0m-26-22c0 5 26 5 26 0" fill="none" stroke="#66fcf1" stroke-dasharray="29.444044388581453,4.555955611418547" stroke-dashoffset="34" stroke-miterlimit="10"/></g><g><path d="M2020.5 3c9.1 0 16.5 7.4 16.5 16.5s-7.4 16.5-16.5 16.5-16.5-7.4-16.5-16.5S2011.4 3 2020.5 3m0-1c-9.66 0-17.5 7.84-17.5 17.5s7.84 17.5 17.5 17.5 17.5-7.84 17.5-17.5S2030.16 2 2020.5 2z" fill="#66fcf1" stroke="#66fcf1"/><path d="M2020.5 3c4.07 0 7.5 7.56 7.5 16.5 0 8.94-3.43 16.5-7.5 16.5s-7.5-7.56-7.5-16.5c0-8.94 3.43-16.5 7.5-16.5m0-1c-4.69 0-8.5 7.84-8.5 17.5s3.81 17.5 8.5 17.5c4.69 0 8.5-7.84 8.5-17.5S2025.19 2 2020.5 2z" fill="#66fcf1"/><path d="M2003.5 19.5h34m-17 17v-34m-13 28c0-5 26-5 26 0m-26-22c0 5 26 5 26 0" fill="none" stroke="#66fcf1" stroke-dasharray="30.554053680087907,3.4459463199120934" stroke-dashoffset="34" stroke-miterlimit="10"/></g><g><path d="M2060.5 3c9.1 0 16.5 7.4 16.5 16.5s-7.4 16.5-16.5 16.5-16.5-7.4-16.5-16.5S2051.4 3 2060.5 3m0-1c-9.66 0-17.5 7.84-17.5 17.5s7.84 17.5 17.5 17.5 17.5-7.84 17.5-17.5S2070.16 2 2060.5 2z" fill="#66fcf1" stroke="#66fcf1"/><path d="M2060.5 3c4.07 0 7.5 7.56 7.5 16.5 0 8.94-3.43 16.5-7.5 16.5s-7.5-7.56-7.5-16.5c0-8.94 3.43-16.5 7.5-16.5m0-1c-4.69 0-8.5 7.84-8.5 17.5s3.81 17.5 8.5 17.5c4.69 0 8.5-7.84 8.5-17.5S2065.19 2 2060.5 2z" fill="#66fcf1"/><path d="M2043.5 19.5h34m-17 17v-34m-13 28c0-5 26-5 26 0m-26-22c0 5 26 5 26 0" fill="none" stroke="#66fcf1" stroke-dasharray="31.45465097690766,2.5453490230923372" stroke-dashoffset="34" stroke-miterlimit="10"/></g><g><path d="M2100.5 3c9.1 0 16.5 7.4 16.5 16.5s-7.4 16.5-16.5 16.5-16.5-7.4-16.5-16.5S2091.4 3 2100.5 3m0-1c-9.66 0-17.5 7.84-17.5 17.5s7.84 17.5 17.5 17.5 17.5-7.84 17.5-17.5S2110.16 2 2100.5 2z" fill="#66fcf1" stroke="#66fcf1"/><path d="M2100.5 3c4.07 0 7.5 7.56 7.5 16.5 0 8.94-3.43 16.5-7.5 16.5s-7.5-7.56-7.5-16.5c0-8.94 3.43-16.5 7.5-16.5m0-1c-4.69 0-8.5 7.84-8.5 17.5s3.81 17.5 8.5 17.5c4.69 0 8.5-7.84 8.5-17.5S2105.19 2 2100.5 2z" fill="#66fcf1"/><path d="M2083.5 19.5h34m-17 17v-34m-13 28c0-5 26-5 26 0m-26-22c0 5 26 5 26 0" fill="none" stroke="#66fcf1" stroke-dasharray="32.17954579153786,1.8204542084621367" stroke-dashoffset="34" stroke-miterlimit="10"/></g><g><path d="M2140.5 3c9.1 0 16.5 7.4 16.5 16.5s-7.4 16.5-16.5 16.5-16.5-7.4-16.5-16.5S2131.4 3 2140.5 3m0-1c-9.66 0-17.5 7.84-17.5 17.5s7.84 17.5 17.5 17.5 17.5-7.84 17.5-17.5S2150.16 2 2140.5 2z" fill="#66fcf1" stroke="#66fcf1"/><path d="M2140.5 3c4.07 0 7.5 7.56 7.5 16.5 0 8.94-3.43 16.5-7.5 16.5s-7.5-7.56-7.5-16.5c0-8.94 3.43-16.5 7.5-16.5m0-1c-4.69 0-8.5 7.84-8.5 17.5s3.81 17.5 8.5 17.5c4.69 0 8.5-7.84 8.5-17.5S2145.19 2 2140.5 2z" fill="#66fcf1"/><path d="M2123.5 19.5h34m-17 17v-34m-13 28c0-5 26-5 26 0m-26-22c0 5 26 5 26 0" fill="none" stroke="#66fcf1" stroke-dasharray="32.75497426774226,1.2450257322577365" stroke-dashoffset="34" stroke-miterlimit="10"/></g><g><path d="M2180.5 3c9.1 0 16.5 7.4 16.5 16.5s-7.4 16.5-16.5 16.5-16.5-7.4-16.5-16.5S2171.4 3 2180.5 3m0-1c-9.66 0-17.5 7.84-17.5 17.5s7.84 17.5 17.5 17.5 17.5-7.84 17.5-17.5S2190.16 2 2180.5 2z" fill="#66fcf1" stroke="#66fcf1"/><path d="M2180.5 3c4.07 0 7.5 7.56 7.5 16.5 0 8.94-3.43 16.5-7.5 16.5s-7.5-7.56-7.5-16.5c0-8.94 3.43-16.5 7.5-16.5m0-1c-4.69 0-8.5 7.84-8.5 17.5s3.81 17.5 8.5 17.5c4.69 0 8.5-7.84 8.5-17.5S2185.19 2 2180.5 2z" fill="#66fcf1"/><path d="M2163.5 19.5h34m-17 17v-34m-13 28c0-5 26-5 26 0m-26-22c0 5 26 5 26 0" fill="none" stroke="#66fcf1" stroke-dasharray="33.201672869870535,0.7983271301294639" stroke-dashoffset="34" stroke-miterlimit="10"/></g><g><path d="M2220.5 3c9.1 0 16.5 7.4 16.5 16.5s-7.4 16.5-16.5 16.5-16.5-7.4-16.5-16.5S2211.4 3 2220.5 3m0-1c-9.66 0-17.5 7.84-17.5 17.5s7.84 17.5 17.5 17.5 17.5-7.84 17.5-17.5S2230.16 2 2220.5 2z" fill="#66fcf1" stroke="#66fcf1"/><path d="M2220.5 3c4.07 0 7.5 7.56 7.5 16.5 0 8.94-3.43 16.5-7.5 16.5s-7.5-7.56-7.5-16.5c0-8.94 3.43-16.5 7.5-16.5m0-1c-4.69 0-8.5 7.84-8.5 17.5s3.81 17.5 8.5 17.5c4.69 0 8.5-7.84 8.5-17.5S2225.19 2 2220.5 2z" fill="#66fcf1"/><path d="M2203.5 19.5h34m-17 17v-34m-13 28c0-5 26-5 26 0m-26-22c0 5 26 5 26 0" fill="none" stroke="#66fcf1" stroke-dasharray="33.5362787164064,0.4637212835935973" stroke-dashoffset="34" stroke-miterlimit="10"/></g><g><path d="M2260.5 3c9.1 0 16.5 7.4 16.5 16.5s-7.4 16.5-16.5 16.5-16.5-7.4-16.5-16.5S2251.4 3 2260.5 3m0-1c-9.66 0-17.5 7.84-17.5 17.5s7.84 17.5 17.5 17.5 17.5-7.84 17.5-17.5S2270.16 2 2260.5 2z" fill="#66fcf1" stroke="#66fcf1"/><path d="M2260.5 3c4.07 0 7.5 7.56 7.5 16.5 0 8.94-3.43 16.5-7.5 16.5s-7.5-7.56-7.5-16.5c0-8.94 3.43-16.5 7.5-16.5m0-1c-4.69 0-8.5 7.84-8.5 17.5s3.81 17.5 8.5 17.5c4.69 0 8.5-7.84 8.5-17.5S2265.19 2 2260.5 2z" fill="#66fcf1"/><path d="M2243.5 19.5h34m-17 17v-34m-13 28c0-5 26-5 26 0m-26-22c0 5 26 5 26 0" fill="none" stroke="#66fcf1" stroke-dasharray="33.772327812556206,0.2276721874437957" stroke-dashoffset="34" stroke-miterlimit="10"/></g><g><path d="M2300.5 3c9.1 0 16.5 7.4 16.5 16.5s-7.4 16.5-16.5 16.5-16.5-7.4-16.5-16.5S2291.4 3 2300.5 3m0-1c-9.66 0-17.5 7.84-17.5 17.5s7.84 17.5 17.5 17.5 17.5-7.84 17.5-17.5S2310.16 2 2300.5 2z" fill="#66fcf1" stroke="#66fcf1"/><path d="M2300.5 3c4.07 0 7.5 7.56 7.5 16.5 0 8.94-3.43 16.5-7.5 16.5s-7.5-7.56-7.5-16.5c0-8.94 3.43-16.5 7.5-16.5m0-1c-4.69 0-8.5 7.84-8.5 17.5s3.81 17.5 8.5 17.5c4.69 0 8.5-7.84 8.5-17.5S2305.19 2 2300.5 2z" fill="#66fcf1"/><path d="M2283.5 19.5h34m-17 17v-34m-13 28c0-5 26-5 26 0m-26-22c0 5 26 5 26 0" fill="none" stroke="#66fcf1" stroke-dasharray="33.920974808495224,0.07902519150477305" stroke-dashoffset="34" stroke-miterlimit="10"/></g><g><path d="M2340.5 3c9.1 0 16.5 7.4 16.5 16.5s-7.4 16.5-16.5 16.5-16.5-7.4-16.5-16.5S2331.4 3 2340.5 3m0-1c-9.66 0-17.5 7.84-17.5 17.5s7.84 17.5 17.5 17.5 17.5-7.84 17.5-17.5S2350.16 2 2340.5 2z" fill="#66fcf1" stroke="#66fcf1"/><path d="M2340.5 3c4.07 0 7.5 7.56 7.5 16.5 0 8.94-3.43 16.5-7.5 16.5s-7.5-7.56-7.5-16.5c0-8.94 3.43-16.5 7.5-16.5m0-1c-4.69 0-8.5 7.84-8.5 17.5s3.81 17.5 8.5 17.5c4.69 0 8.5-7.84 8.5-17.5S2345.19 2 2340.5 2z" fill="#66fcf1"/><path d="M2323.5 19.5h34m-17 17v-34m-13 28c0-5 26-5 26 0m-26-22c0 5 26 5 26 0" fill="none" stroke="#66fcf1" stroke-dasharray="33.991519231830935,0.008480768169065511" stroke-dashoffset="34" stroke-miterlimit="10"/></g><g><path d="M2380.5 3c9.1 0 16.5 7.4 16.5 16.5s-7.4 16.5-16.5 16.5-16.5-7.4-16.5-16.5S2371.4 3 2380.5 3m0-1c-9.66 0-17.5 7.84-17.5 17.5s7.84 17.5 17.5 17.5 17.5-7.84 17.5-17.5S2390.16 2 2380.5 2z" fill="#66fcf1" stroke="#66fcf1"/><path d="M2380.5 3c4.07 0 7.5 7.56 7.5 16.5 0 8.94-3.43 16.5-7.5 16.5s-7.5-7.56-7.5-16.5c0-8.94 3.43-16.5 7.5-16.5m0-1c-4.69 0-8.5 7.84-8.5 17.5s3.81 17.5 8.5 17.5c4.69 0 8.5-7.84 8.5-17.5S2385.19 2 2380.5 2z" fill="#66fcf1"/><path d="M2363.5 19.5h34m-17 17v-34m-13 28c0-5 26-5 26 0m-26-22c0 5 26 5 26 0" fill="none" stroke="#66fcf1" stroke-miterlimit="10"/></g><g><path d="M2420.5 3c9.1 0 16.5 7.4 16.5 16.5s-7.4 16.5-16.5 16.5-16.5-7.4-16.5-16.5S2411.4 3 2420.5 3m0-1c-9.66 0-17.5 7.84-17.5 17.5s7.84 17.5 17.5 17.5 17.5-7.84 17.5-17.5S2430.16 2 2420.5 2z" fill="#66fcf1" stroke="#66fcf1"/><path d="M2420.5 3c4.07 0 7.5 7.56 7.5 16.5 0 8.94-3.43 16.5-7.5 16.5s-7.5-7.56-7.5-16.5c0-8.94 3.43-16.5 7.5-16.5m0-1c-4.69 0-8.5 7.84-8.5 17.5s3.81 17.5 8.5 17.5c4.69 0 8.5-7.84 8.5-17.5S2425.19 2 2420.5 2z" fill="#66fcf1"/><path d="M2403.5 19.5h34m-17 17v-34m-13 28c0-5 26-5 26 0m-26-22c0 5 26 5 26 0" fill="none" stroke="#66fcf1" stroke-miterlimit="10"/></g></svg>